<?xml version="1.0" encoding="UTF-8"?>
<svg width="760px" height="185px" viewBox="0 0 760 185" version="1.1" xmlns="http://www.w3.org/2000/svg" xmlns:xlink="http://www.w3.org/1999/xlink">
    <!-- Generator: Sketch 52.5 (67469) - http://www.bohemiancoding.com/sketch -->
    <title>Horizontal Logo - Blue@1x</title>
    <desc>Created with Sketch.</desc>
    <g id="Horizontal-Logo---Blue" stroke="none" stroke-width="1" fill="none" fill-rule="evenodd">
        <g id="main" transform="translate(20.000000, 20.000000)">
            <g id="lettering" transform="translate(298.395722, 46.111111)" fill="#335eea">
                <path d="M0,51.1689826 L0,7.58828696 C0,5.42841739 1.95854326,3.49172174 4.48806456,3.49172174 C7.01758585,3.49172174 8.97612912,5.42841739 8.97612912,7.58828696 L8.97612912,28.9688522 L35.4145641,4.75763478 C37.20979,3.11850435 39.9836544,3.11850435 41.7801463,4.75763478 C43.4930803,6.32237391 43.4930803,8.9285913 41.7801463,10.5689826 L23.827888,26.8833739 L41.9434637,48.5615043 C43.5753721,50.2750261 43.2487372,52.8825043 41.2901939,54.2972 C40.4736067,54.9679826 39.4949681,55.2655478 38.4340378,55.2655478 C37.20979,55.2655478 35.9855422,54.7448087 35.0879293,53.7764609 L17.4623059,32.6934609 L8.97612912,40.590287 L8.97612912,51.1689826 C8.97612912,53.4032435 7.01758585,55.2655478 4.48806456,55.2655478 C1.95854326,55.2655478 0,53.4032435 0,51.1689826" id="Fill-1"></path>
                <path d="M71.5029077,52.2433696 L71.5029077,6.12328261 C71.5029077,3.6998913 73.3867554,1.82371739 75.8200586,1.82371739 C78.2533619,1.82371739 80.2144372,3.6998913 80.2144372,6.12328261 L80.2144372,24.8837609 L106.873161,24.8837609 L106.873161,6.12328261 C106.873161,3.6998913 108.757009,1.82371739 111.190312,1.82371739 C113.624881,1.82371739 115.585956,3.6998913 115.585956,6.12328261 L115.585956,52.2433696 C115.585956,54.6667609 113.624881,56.5429348 111.190312,56.5429348 C108.757009,56.5429348 106.873161,54.6667609 106.873161,52.2433696 L106.873161,33.4828913 L80.2144372,33.4828913 L80.2144372,52.2433696 C80.2144372,54.6667609 78.2533619,56.5429348 75.8200586,56.5429348 C73.3867554,56.5429348 71.5029077,54.6667609 71.5029077,52.2433696" id="Fill-3"></path>
                <path d="M187.994706,28.4014609 C187.994706,23.0856348 185.875378,18.1606783 182.658404,14.722287 C179.36167,11.2044609 174.966026,9.17193913 170.256406,9.17193913 C165.232813,9.17193913 160.838434,11.2044609 157.541701,14.722287 C154.244967,18.1606783 152.204132,23.0856348 152.204132,28.4014609 C152.204132,33.717287 154.244967,38.6422435 157.541701,42.0037217 C160.838434,45.520287 165.232813,47.6309826 170.256406,47.6309826 C174.966026,47.6309826 179.36167,45.520287 182.658404,42.0037217 C185.875378,38.6422435 187.994706,33.717287 187.994706,28.4014609 M189.01639,8.62472174 C193.88173,13.7842 196.942983,20.6622435 196.942983,28.4014609 C196.942983,36.1406783 193.88173,43.0968957 189.01639,48.1782 C184.383998,53.2595043 177.477823,56.5428087 170.256406,56.5428087 C162.721016,56.5428087 155.81484,53.2595043 151.026727,48.1782 C146.160121,43.0968957 143.255856,36.1406783 143.255856,28.4014609 C143.255856,20.6622435 146.160121,13.7842 151.026727,8.62472174 C155.81484,3.46524348 162.721016,0.261373913 170.256406,0.261373913 C177.477823,0.261373913 184.383998,3.46524348 189.01639,8.62472174" id="Fill-6"></path>
                <path d="M233.562931,52.2433696 C233.562931,54.588587 231.60059,56.5429348 229.323008,56.5429348 C226.889704,56.5429348 225.007123,54.588587 225.007123,52.2433696 L225.007123,6.82684783 L225.007123,6.74867391 C224.928629,5.41971739 225.556578,4.01258696 226.733983,3.15267391 C228.696324,1.82371739 231.365109,2.21458696 232.698235,4.09076087 L260.583738,39.0319783 L260.583738,6.82684783 C260.583738,4.55980435 262.46632,2.60545652 264.821129,2.60545652 C267.175939,2.60545652 269.139546,4.55980435 269.139546,6.82684783 L269.139546,52.2433696 C269.139546,54.588587 267.175939,56.5429348 264.821129,56.5429348 C263.565231,56.5429348 262.389092,55.9175435 261.60289,54.9794565 C261.445902,54.8231087 261.288915,54.6667609 261.211687,54.510413 L233.562931,19.8024565 L233.562931,52.2433696 Z" id="Fill-9"></path>
                <path d="M318.397732,55.7606913 C318.228085,55.6043435 318.057171,55.5261696 317.801434,55.3698217 C317.801434,55.2916478 317.71661,55.2916478 317.71661,55.1353 C317.546963,54.9789522 317.377315,54.8226043 317.292491,54.6662565 C317.292491,54.6662565 317.206401,54.6662565 317.206401,54.5880826 C317.122844,54.4317348 316.95193,54.1190391 316.782282,53.9626913 L295.943483,8.31164783 C294.923066,6.20095217 296.028307,3.62121304 298.494527,2.7613 C300.792366,1.82447391 303.513057,2.83947391 304.53474,5.02960435 L321.118424,41.2216043 L337.704639,5.02960435 C338.725057,2.83947391 341.531838,1.82447391 343.82841,2.7613 C346.20854,3.62121304 347.315048,6.20095217 346.379454,8.31164783 L325.372273,53.9626913 C325.286184,54.1190391 325.202626,54.4317348 325.031712,54.5880826 C325.031712,54.6662565 325.031712,54.6662565 324.946888,54.6662565 C324.862065,54.8226043 324.606327,54.9789522 324.521503,55.1353 C324.435414,55.2916478 324.435414,55.2916478 324.351856,55.3698217 C324.180942,55.5261696 324.011295,55.6043435 323.840381,55.7606913 L323.670734,55.8388652 C323.501086,55.9170391 323.245349,56.1515609 322.990877,56.2297348 C322.904787,56.2297348 322.904787,56.2297348 322.819964,56.3079087 C322.565492,56.3079087 322.395845,56.3860826 322.140107,56.4642565 L321.969194,56.4642565 C321.628632,56.5424304 321.374161,56.5424304 321.118424,56.5424304 C320.863952,56.5424304 320.523391,56.5424304 320.267654,56.4642565 L320.098006,56.4642565 C319.929625,56.3860826 319.589064,56.3079087 319.41815,56.3079087 C319.41815,56.2297348 319.333326,56.2297348 319.333326,56.2297348 L319.248502,56.2297348 C319.078855,56.1515609 318.738294,55.9170391 318.482556,55.7606913 L318.397732,55.7606913 Z" id="Fill-12"></path>
                <path d="M411.335864,28.4014609 C411.335864,23.0856348 409.216536,18.1606783 405.999562,14.722287 C402.702828,11.2044609 398.307184,9.17193913 393.597565,9.17193913 C388.573971,9.17193913 384.179592,11.2044609 380.882859,14.722287 C377.586125,18.1606783 375.54529,23.0856348 375.54529,28.4014609 C375.54529,33.717287 377.586125,38.6422435 380.882859,42.0037217 C384.179592,45.520287 388.573971,47.6309826 393.597565,47.6309826 C398.307184,47.6309826 402.702828,45.520287 405.999562,42.0037217 C409.216536,38.6422435 411.335864,33.717287 411.335864,28.4014609 M412.357548,8.62472174 C417.222888,13.7842 420.284141,20.6622435 420.284141,28.4014609 C420.284141,36.1406783 417.222888,43.0968957 412.357548,48.1782 C407.725156,53.2595043 400.818981,56.5428087 393.597565,56.5428087 C386.062174,56.5428087 379.155998,53.2595043 374.367885,48.1782 C369.501279,43.0968957 366.597014,36.1406783 366.597014,28.4014609 C366.597014,20.6622435 369.501279,13.7842 374.367885,8.62472174 C379.155998,3.46524348 386.062174,0.261373913 393.597565,0.261373913 C400.818981,0.261373913 407.725156,3.46524348 412.357548,8.62472174" id="Fill-14"></path>
            </g>
            <path d="M35.4529412,109.431624 C15.9352941,89.7264957 0,73.1196581 0,72.5 C0,70.8888889 70.6588235,0 72.2647059,0 C73.0058824,0 84,10.4102564 96.7235294,23.2991453 L119.823529,46.474359 L108.705882,57.6282051 L97.5882353,68.7820513 L85.2352941,56.3888889 L72.8823529,43.9957265 L58.6764706,58.2478632 L44.4705882,72.5 L58.6764706,86.7521368 L72.8823529,101.004274 L123.282353,50.4401709 C150.952941,22.6794872 174.176471,0 174.794118,0 C176.4,0 247.058824,70.8888889 247.058824,72.5 C247.058824,74.1111111 176.4,145 174.794118,145 C174.052941,145 163.058824,134.589744 150.335294,121.700855 L127.235294,98.525641 L138.352941,87.3717949 L149.347059,76.3418803 L158.364706,84.8931624 C163.305882,89.6025641 168.864706,95.0555556 170.717647,97.1623932 L174.052941,101.004274 L188.382353,86.7521368 L202.588235,72.5 L188.382353,58.3717949 L174.3,44.1196581 L124.147059,94.1880342 C96.6,121.824786 73.3764706,144.504274 72.5117647,144.752137 C71.6470588,144.876068 55.0941176,129.012821 35.4529412,109.431624 Z" id="Logo-Convo" fill="#4346ED" fill-rule="nonzero"></path>
        </g>
    </g>
</svg>
