<?xml version="1.0" encoding="UTF-8" standalone="no"?>
<!DOCTYPE svg PUBLIC "-//W3C//DTD SVG 1.1//EN" "http://www.w3.org/Graphics/SVG/1.1/DTD/svg11.dtd">
<svg version="1.1" xmlns="http://www.w3.org/2000/svg" xmlns:xlink="http://www.w3.org/1999/xlink" preserveAspectRatio="xMidYMid meet" viewBox="-1 908.2673606641093 722.679863 149.0000000000001" width="718.68" height="145"><defs><path d="M298.4 1006.55C298.4 980.4 298.4 965.87 298.4 962.97C298.4 960.81 300.35 958.87 302.88 958.87C305.41 958.87 307.37 960.81 307.37 962.97C307.37 964.39 307.37 971.52 307.37 984.35C323.23 969.82 332.05 961.75 333.81 960.14C335.61 958.5 338.38 958.5 340.18 960.14C341.89 961.7 341.89 964.31 340.18 965.95C338.98 967.04 332.99 972.47 322.22 982.26C333.09 995.27 339.13 1002.49 340.34 1003.94C341.97 1005.65 341.64 1008.26 339.69 1009.68C338.87 1010.35 337.89 1010.64 336.83 1010.64C335.61 1010.64 334.38 1010.12 333.48 1009.15C332.31 1007.75 326.43 1000.72 315.86 988.07L307.37 995.97C307.37 1002.32 307.37 1005.84 307.37 1006.55C307.37 1008.78 305.41 1010.64 302.88 1010.64C300.35 1010.64 298.4 1008.78 298.4 1006.55" id="d18Gvvgtj"></path><path d="M369.9 1007.62C369.9 979.95 369.9 964.58 369.9 961.5C369.9 959.08 371.78 957.2 374.22 957.2C376.65 957.2 378.61 959.08 378.61 961.5C378.61 962.75 378.61 969.01 378.61 980.26L405.27 980.26C405.27 969.01 405.27 962.75 405.27 961.5C405.27 959.08 407.15 957.2 409.59 957.2C412.02 957.2 413.98 959.08 413.98 961.5C413.98 966.11 413.98 1003.01 413.98 1007.62C413.98 1010.05 412.02 1011.92 409.59 1011.92C407.15 1011.92 405.27 1010.05 405.27 1007.62C405.27 1006.37 405.27 1000.12 405.27 988.86L378.61 988.86C378.61 1000.12 378.61 1006.37 378.61 1007.62C378.61 1010.05 376.65 1011.92 374.22 1011.92C371.78 1011.92 369.9 1010.05 369.9 1007.62" id="a6dZp0h3y"></path><path d="M486.39 983.78C486.39 978.46 484.27 973.54 481.05 970.1C477.76 966.58 473.36 964.55 468.65 964.55C463.63 964.55 459.23 966.58 455.94 970.1C452.64 973.54 450.6 978.46 450.6 983.78C450.6 989.1 452.64 994.02 455.94 997.38C459.23 1000.9 463.63 1003.01 468.65 1003.01C473.36 1003.01 477.76 1000.9 481.05 997.38C484.27 994.02 486.39 989.1 486.39 983.78M487.41 964C492.28 969.16 495.34 976.04 495.34 983.78C495.34 991.52 492.28 998.48 487.41 1003.56C482.78 1008.64 475.87 1011.92 468.65 1011.92C461.12 1011.92 454.21 1008.64 449.42 1003.56C444.56 998.48 441.65 991.52 441.65 983.78C441.65 976.04 444.56 969.16 449.42 964C454.21 958.84 461.12 955.64 468.65 955.64C475.87 955.64 482.78 958.84 487.41 964" id="gnLoA5Hmy"></path><path d="M527.72 1011.92C525.29 1011.92 523.4 1009.97 523.4 1007.62C523.4 1004.59 523.4 989.46 523.4 962.21C523.4 962.16 523.4 962.13 523.4 962.13C523.32 960.8 523.95 959.39 525.13 958.53C527.09 957.2 529.76 957.59 531.09 959.47C532.95 961.8 542.25 973.45 558.98 994.41C558.98 975.09 558.98 964.35 558.98 962.21C558.98 959.94 560.86 957.98 563.22 957.98C565.57 957.98 567.54 959.94 567.54 962.21C567.54 966.75 567.54 1003.08 567.54 1007.62C567.54 1009.97 565.57 1011.92 563.22 1011.92C561.96 1011.92 560.78 1011.3 560 1010.36C559.84 1010.2 559.68 1010.05 559.61 1009.89C557.76 1007.58 548.55 996.01 531.96 975.18L531.96 1007.62C530.65 1010.49 529.24 1011.92 527.72 1011.92Z" id="a1EnU9HvMP"></path><path d="M616.2 1010.75C616.2 1010.67 616.11 1010.67 616.11 1010.51C615.94 1010.36 615.77 1010.2 615.69 1010.04C615.69 1010.04 615.6 1010.04 615.6 1009.97C615.52 1009.81 615.35 1009.5 615.18 1009.34C613.09 1004.78 596.42 968.26 594.34 963.69C593.32 961.58 594.42 959 596.89 958.14C599.19 957.2 601.91 958.22 602.93 960.41C604.04 962.82 609.56 974.88 619.51 996.6C629.47 974.88 634.99 962.82 636.1 960.41C637.12 958.22 639.93 957.2 642.22 958.14C644.6 959 645.71 961.58 644.78 963.69C642.67 968.26 625.87 1004.78 623.77 1009.34C623.68 1009.5 623.6 1009.81 623.43 1009.97C623.43 1010.04 623.43 1010.04 623.34 1010.04C623.26 1010.2 623 1010.36 622.92 1010.51C622.83 1010.67 622.83 1010.67 622.75 1010.75C622.58 1010.9 622.41 1010.98 622.24 1011.14C622.22 1011.15 622.08 1011.21 622.07 1011.22C621.9 1011.3 621.64 1011.53 621.39 1011.61C621.3 1011.61 621.3 1011.61 621.22 1011.69C620.96 1011.69 620.79 1011.76 620.54 1011.84C620.52 1011.84 620.38 1011.84 620.36 1011.84C620.02 1011.92 619.77 1011.92 619.51 1011.92C619.26 1011.92 618.92 1011.92 618.66 1011.84C618.65 1011.84 618.51 1011.84 618.49 1011.84C618.33 1011.76 617.98 1011.69 617.81 1011.69C617.81 1011.61 617.73 1011.61 617.73 1011.61C617.72 1011.61 617.65 1011.61 617.64 1011.61C617.47 1011.53 617.13 1011.3 616.88 1011.14C616.87 1011.14 616.84 1011.14 616.79 1011.14C616.57 1010.98 616.37 1010.85 616.2 1010.75Z" id="e72HdYTWR8"></path><path d="M709.73 983.78C709.73 978.46 707.61 973.54 704.4 970.1C701.1 966.58 696.7 964.55 691.99 964.55C686.97 964.55 682.58 966.58 679.28 970.1C675.98 973.54 673.94 978.46 673.94 983.78C673.94 989.1 675.98 994.02 679.28 997.38C682.58 1000.9 686.97 1003.01 691.99 1003.01C696.7 1003.01 701.1 1000.9 704.4 997.38C707.61 994.02 709.73 989.1 709.73 983.78M710.75 964C715.62 969.16 718.68 976.04 718.68 983.78C718.68 991.52 715.62 998.48 710.75 1003.56C706.12 1008.64 699.21 1011.92 691.99 1011.92C684.46 1011.92 677.55 1008.64 672.76 1003.56C667.9 998.48 664.99 991.52 664.99 983.78C664.99 976.04 667.9 969.16 672.76 964C677.55 958.84 684.46 955.64 691.99 955.64C699.21 955.64 706.12 958.84 710.75 964" id="bBw2eIFx1"></path><path d="M0 981.77C0 980.16 70.66 909.27 72.26 909.27C73.01 909.27 84 919.68 96.72 932.57C98.26 934.11 105.96 941.84 119.82 955.74L108.71 966.9L97.59 978.05L85.24 965.66L72.88 953.26L58.68 967.52L44.47 981.77L58.68 996.02L72.88 1010.27C103.12 979.93 119.92 963.08 123.28 959.71C150.95 931.95 174.18 909.27 174.79 909.27C176.4 909.27 247.06 980.16 247.06 981.77C247.06 983.38 176.4 1054.27 174.79 1054.27C174.05 1054.27 163.06 1043.86 150.34 1030.97C148.8 1029.42 141.1 1021.7 127.24 1007.79L138.35 996.64L149.35 985.61C154.76 990.74 157.76 993.59 158.36 994.16C163.31 998.87 168.86 1004.32 170.72 1006.43C170.94 1006.69 172.05 1007.97 174.05 1010.27L188.38 996.02L202.59 981.77L188.38 967.64L174.3 953.39C144.21 983.43 127.49 1000.12 124.15 1003.46C96.6 1031.09 73.38 1053.77 72.51 1054.02C71.65 1054.14 55.09 1038.28 35.45 1018.7C15.94 998.99 0 982.39 0 981.77Z" id="c1UFMyiAPe"></path></defs><g><g><use xlink:href="#d18Gvvgtj" opacity="1" fill="#335eea" fill-opacity="1"></use><g><use xlink:href="#d18Gvvgtj" opacity="1" fill-opacity="0" stroke="#000000" stroke-width="1" stroke-opacity="0"></use></g></g><g><use xlink:href="#a6dZp0h3y" opacity="1" fill="#335eea" fill-opacity="1"></use><g><use xlink:href="#a6dZp0h3y" opacity="1" fill-opacity="0" stroke="#000000" stroke-width="1" stroke-opacity="0"></use></g></g><g><use xlink:href="#gnLoA5Hmy" opacity="1" fill="#335eea" fill-opacity="1"></use><g><use xlink:href="#gnLoA5Hmy" opacity="1" fill-opacity="0" stroke="#000000" stroke-width="1" stroke-opacity="0"></use></g></g><g><use xlink:href="#a1EnU9HvMP" opacity="1" fill="#335eea" fill-opacity="1"></use><g><use xlink:href="#a1EnU9HvMP" opacity="1" fill-opacity="0" stroke="#000000" stroke-width="1" stroke-opacity="0"></use></g></g><g><use xlink:href="#e72HdYTWR8" opacity="1" fill="#335eea" fill-opacity="1"></use><g><use xlink:href="#e72HdYTWR8" opacity="1" fill-opacity="0" stroke="#000000" stroke-width="1" stroke-opacity="0"></use></g></g><g><use xlink:href="#bBw2eIFx1" opacity="1" fill="#335eea" fill-opacity="1"></use><g><use xlink:href="#bBw2eIFx1" opacity="1" fill-opacity="0" stroke="#000000" stroke-width="1" stroke-opacity="0"></use></g></g><g><use xlink:href="#c1UFMyiAPe" opacity="1" fill="#4346ed" fill-opacity="1"></use><g><use xlink:href="#c1UFMyiAPe" opacity="1" fill-opacity="0" stroke="#000000" stroke-width="1" stroke-opacity="0"></use></g></g></g></svg>