<?xml version="1.0" encoding="UTF-8" standalone="no"?>
<!DOCTYPE svg PUBLIC "-//W3C//DTD SVG 1.1//EN" "http://www.w3.org/Graphics/SVG/1.1/DTD/svg11.dtd">
<svg version="1.1" xmlns="http://www.w3.org/2000/svg" xmlns:xlink="http://www.w3.org/1999/xlink" preserveAspectRatio="xMidYMid meet" viewBox="252.61269451008673 364.71053966636947 90.99999999999977 90.99999999999977" width="87" height="87"><defs><path d="M253.61 409.21C253.61 433.22 273.1 452.71 297.11 452.71C321.12 452.71 340.61 433.22 340.61 409.21C340.61 385.2 321.12 365.71 297.11 365.71C273.1 365.71 253.61 385.2 253.61 409.21Z" id="eeUERNTx2"></path><radialGradient id="gradienta1LUJz8K81" gradientUnits="userSpaceOnUse" cx="261.39" cy="359.38" dx="328.54" dy="459.32" r="120.4"><stop style="stop-color: #dee2e6;stop-opacity: 1" offset="0%"></stop><stop style="stop-color: #343a40;stop-opacity: 1" offset="100%"></stop></radialGradient><path d="M270.38 409.21C270.38 424.25 282.59 436.46 297.63 436.46C312.67 436.46 324.88 424.25 324.88 409.21C324.88 394.17 312.67 381.96 297.63 381.96C282.59 381.96 270.38 394.17 270.38 409.21Z" id="c4tOxvHQ1"></path><radialGradient id="gradientb1XF84lYuV" gradientUnits="userSpaceOnUse" cx="288.49" cy="385.4" dx="311.69" dy="434.51" r="54.32"><stop style="stop-color: #38bfff;stop-opacity: 1" offset="0%"></stop><stop style="stop-color: #054ec4;stop-opacity: 1" offset="100%"></stop></radialGradient></defs><g><g><use xlink:href="#eeUERNTx2" opacity="1" fill="url(#gradienta1LUJz8K81)"></use></g><g><use xlink:href="#c4tOxvHQ1" opacity="1" fill="url(#gradientb1XF84lYuV)"></use><g><use xlink:href="#c4tOxvHQ1" opacity="1" fill-opacity="0" stroke="#646c72" stroke-width="1" stroke-opacity="1"></use></g></g></g></svg>