<?xml version="1.0" encoding="UTF-8" standalone="no"?>
<!DOCTYPE svg PUBLIC "-//W3C//DTD SVG 1.1//EN" "http://www.w3.org/Graphics/SVG/1.1/DTD/svg11.dtd">
<svg version="1.1" xmlns="http://www.w3.org/2000/svg" xmlns:xlink="http://www.w3.org/1999/xlink" preserveAspectRatio="xMidYMid meet" viewBox="66.36644633242861 452.20311534795894 246.21969696969938 183.50000000000034" width="229.79" height="137.81"><defs><path d="M275.28 473.2C278.21 473.2 280.59 475.58 280.59 478.51C280.59 503.75 280.59 574.16 280.59 599.4C280.59 602.33 278.21 604.7 275.28 604.7C237.56 604.7 129.68 604.7 91.95 604.7C89.02 604.7 86.65 602.33 86.65 599.4C86.65 574.16 86.65 503.75 86.65 478.51C86.65 475.58 89.02 473.2 91.95 473.2C129.68 473.2 237.56 473.2 275.28 473.2Z" id="b24yDTK2LA"></path><radialGradient id="gradientdid6uqAFp" gradientUnits="userSpaceOnUse" cx="176.62" cy="508.66" dx="369.12" dy="645.58" r="236.23"><stop style="stop-color: #f1f3f5;stop-opacity: 1" offset="0%"></stop><stop style="stop-color: #b9c0c8;stop-opacity: 1" offset="100%"></stop></radialGradient><path d="M93.37 480.27L273.87 480.27L273.87 591.52L93.37 591.52L93.37 480.27Z" id="anvmyUAEx"></path><radialGradient id="gradientb2kgx43YX7" gradientUnits="userSpaceOnUse" cx="142.76" cy="438.17" dx="260.89" dy="546.6" r="160.34"><stop style="stop-color: #147de6;stop-opacity: 1" offset="0%"></stop><stop style="stop-color: #0a233e;stop-opacity: 1" offset="100%"></stop></radialGradient><path d="M67.37 599.02L297.15 599.02L297.15 602.52L67.37 602.52L67.37 599.02Z" id="b2Mo8oXOFc"></path><path d="M297.15 602.02L284.87 604.7L80.87 604.7L67.37 602.02L297.15 602.02Z" id="ae97WrgeH"></path><path d="M283.47 506.68C286.17 506.68 288.37 508.88 288.37 511.58C288.37 531.47 288.37 586.23 288.37 606.12C288.37 608.82 286.17 611.02 283.47 611.02C274.04 611.02 250.65 611.02 241.22 611.02C238.51 611.02 236.32 608.82 236.32 606.12C236.32 586.23 236.32 531.47 236.32 511.58C236.32 508.88 238.51 506.68 241.22 506.68C250.65 506.68 274.04 506.68 283.47 506.68Z" id="cgLBat1T9"></path><radialGradient id="gradientioWoqYHYX" gradientUnits="userSpaceOnUse" cx="262.34" cy="506.68" dx="262.34" dy="611.02" r="104.33"><stop style="stop-color: #dee9f3;stop-opacity: 1" offset="0%"></stop><stop style="stop-color: #ced4da;stop-opacity: 1" offset="100%"></stop></radialGradient><path d="M238.12 515.52L284.62 515.52L284.62 599.02L238.12 599.02L238.12 515.52Z" id="aF7umb8dZ"></path><radialGradient id="gradientb4H1whJdgR" gradientUnits="userSpaceOnUse" cx="250.85" cy="483.92" dx="305.45" dy="599.02" r="127.39"><stop style="stop-color: #147de6;stop-opacity: 1" offset="0%"></stop><stop style="stop-color: #0a233e;stop-opacity: 1" offset="100%"></stop></radialGradient><path d="M266.97 510.89L257.72 510.89" id="a6j3zwxJDn"></path><path d="M168.55 567.97L188.76 532L194.21 567.97L212.82 567.97L189.72 503.81L147.7 567.97L168.55 567.97Z" id="or0PeNtKh"></path><radialGradient id="gradienth5e69x1ny1" gradientUnits="userSpaceOnUse" cx="167.08" cy="503.81" dx="211.18" dy="571.22" r="80.55"><stop style="stop-color: #38bfff;stop-opacity: 1" offset="0%"></stop><stop style="stop-color: #054ec4;stop-opacity: 1" offset="100%"></stop></radialGradient></defs><g><g><use xlink:href="#b24yDTK2LA" opacity="1" fill="url(#gradientdid6uqAFp)"></use><g><use xlink:href="#b24yDTK2LA" opacity="1" fill-opacity="0" stroke="#6c757d" stroke-width="0.25" stroke-opacity="1"></use></g></g><g><use xlink:href="#anvmyUAEx" opacity="1" fill="url(#gradientb2kgx43YX7)"></use><g><use xlink:href="#anvmyUAEx" opacity="1" fill-opacity="0" stroke="#ced4da" stroke-width="0.25" stroke-opacity="1"></use></g></g><g><use xlink:href="#b2Mo8oXOFc" opacity="1" fill="#e9ecef" fill-opacity="1"></use><g><use xlink:href="#b2Mo8oXOFc" opacity="1" fill-opacity="0" stroke="#adb5bd" stroke-width="0.25" stroke-opacity="1"></use></g></g><g><g><filter id="shadow9565965" x="58.37" y="593.02" width="248.79" height="21.69" filterUnits="userSpaceOnUse" primitiveUnits="userSpaceOnUse"><feFlood></feFlood><feComposite in2="SourceAlpha" operator="in"></feComposite><feGaussianBlur stdDeviation="1"></feGaussianBlur><feOffset dx="1" dy="1" result="afterOffset"></feOffset><feFlood flood-color="#787878" flood-opacity="0.5"></feFlood><feComposite in2="afterOffset" operator="in"></feComposite><feMorphology operator="dilate" radius="1"></feMorphology><feComposite in2="SourceAlpha" operator="out"></feComposite></filter><path d="M297.15 602.02L284.87 604.7L80.87 604.7L67.37 602.02L297.15 602.02Z" id="a5FOLwRam" fill="white" fill-opacity="1" filter="url(#shadow9565965)"></path></g><use xlink:href="#ae97WrgeH" opacity="1" fill="#ced4da" fill-opacity="1"></use><g><use xlink:href="#ae97WrgeH" opacity="1" fill-opacity="0" stroke="#adb5bd" stroke-width="0.25" stroke-opacity="1"></use></g></g><g><use xlink:href="#cgLBat1T9" opacity="1" fill="url(#gradientioWoqYHYX)"></use><g><use xlink:href="#cgLBat1T9" opacity="1" fill-opacity="0" stroke="#6c757d" stroke-width="0.25" stroke-opacity="1"></use></g></g><g><use xlink:href="#aF7umb8dZ" opacity="1" fill="url(#gradientb4H1whJdgR)"></use><g><use xlink:href="#aF7umb8dZ" opacity="1" fill-opacity="0" stroke="#ced4da" stroke-width="0.25" stroke-opacity="1"></use></g></g><g><g><use xlink:href="#a6j3zwxJDn" opacity="1" fill-opacity="0" stroke="#6c757d" stroke-width="0.25" stroke-opacity="1"></use></g></g><g><use xlink:href="#or0PeNtKh" opacity="1" fill="url(#gradienth5e69x1ny1)"></use></g></g></svg>