<?xml version="1.0" encoding="UTF-8" standalone="no"?>
<!DOCTYPE svg PUBLIC "-//W3C//DTD SVG 1.1//EN" "http://www.w3.org/Graphics/SVG/1.1/DTD/svg11.dtd">
<svg version="1.1" xmlns="http://www.w3.org/2000/svg" xmlns:xlink="http://www.w3.org/1999/xlink" preserveAspectRatio="xMidYMid meet" viewBox="32.048359269854245 412.2410593746955 248.2196969696995 183.50000000000034" width="547" height="327.58"><defs><path d="M242.97 433.24C245.89 433.24 248.27 435.62 248.27 438.54C248.27 463.78 248.27 534.2 248.27 559.44C248.27 562.37 245.89 564.74 242.97 564.74C205.24 564.74 97.36 564.74 59.63 564.74C56.7 564.74 54.33 562.37 54.33 559.44C54.33 534.2 54.33 463.78 54.33 438.54C54.33 435.62 56.7 433.24 59.63 433.24C97.36 433.24 205.24 433.24 242.97 433.24Z" id="a3HUt7VV6"></path><radialGradient id="gradientaPnSvip7r" gradientUnits="userSpaceOnUse" cx="144.3" cy="468.7" dx="336.8" dy="605.62" r="236.23"><stop style="stop-color: #f1f3f5;stop-opacity: 1" offset="0%"></stop><stop style="stop-color: #b9c0c8;stop-opacity: 1" offset="100%"></stop></radialGradient><path d="" id="afoo0qmj"></path><path d="M61.05 440.3L241.55 440.3L241.55 551.55L61.05 551.55L61.05 440.3Z" id="bCClX8d0z"></path><linearGradient id="gradientd22MqRCcRg" gradientUnits="userSpaceOnUse" x1="89.8" y1="498.99" x2="89.8" y2="603.55"><stop style="stop-color: #2e9fe4;stop-opacity: 1" offset="0%"></stop><stop style="stop-color: #023b74;stop-opacity: 1" offset="100%"></stop></linearGradient><path d="M33.05 559.05L262.83 559.05L262.83 562.55L33.05 562.55L33.05 559.05Z" id="gGM6SmjnX"></path><path d="M262.83 562.05L250.55 564.74L46.55 564.74L33.05 562.05L262.83 562.05Z" id="a2M7id2m2O"></path><path d="M251.15 466.72C253.86 466.72 256.05 468.91 256.05 471.62C256.05 491.51 256.05 546.27 256.05 566.16C256.05 568.86 253.86 571.05 251.15 571.05C241.72 571.05 218.33 571.05 208.9 571.05C206.2 571.05 204 568.86 204 566.16C204 546.27 204 491.51 204 471.62C204 468.91 206.2 466.72 208.9 466.72C218.33 466.72 241.72 466.72 251.15 466.72Z" id="d6BgX8MEK"></path><radialGradient id="gradientd4Qne12Kg4" gradientUnits="userSpaceOnUse" cx="230.03" cy="466.72" dx="230.03" dy="571.05" r="104.33"><stop style="stop-color: #dee9f3;stop-opacity: 1" offset="0%"></stop><stop style="stop-color: #ced4da;stop-opacity: 1" offset="100%"></stop></radialGradient><path d="M206.78 475.55L253.28 475.55L253.28 559.05L206.78 559.05L206.78 475.55Z" id="a3IDPg7LcV"></path><linearGradient id="gradienta6ceChO5JD" gradientUnits="userSpaceOnUse" x1="230.03" y1="475.55" x2="230.03" y2="559.05"><stop style="stop-color: #67c0e7;stop-opacity: 1" offset="0%"></stop><stop style="stop-color: #106ecc;stop-opacity: 1" offset="100%"></stop></linearGradient><path d="M234.65 470.93L225.4 470.93" id="fszjhN7DQ"></path><path d="M136.23 528.01L156.44 492.04L161.9 528.01L180.5 528.01L157.41 463.85L115.38 528.01L136.23 528.01Z" id="cgvot04yc"></path></defs><g><g><use xlink:href="#a3HUt7VV6" opacity="1" fill="url(#gradientaPnSvip7r)"></use><g><use xlink:href="#a3HUt7VV6" opacity="1" fill-opacity="0" stroke="#6c757d" stroke-width="0.25" stroke-opacity="1"></use></g></g><g><g><use xlink:href="#afoo0qmj" opacity="1" fill-opacity="0" stroke="#595252" stroke-width="0.25" stroke-opacity="1"></use></g></g><g><use xlink:href="#bCClX8d0z" opacity="1" fill="url(#gradientd22MqRCcRg)"></use><g><use xlink:href="#bCClX8d0z" opacity="1" fill-opacity="0" stroke="#ced4da" stroke-width="0.25" stroke-opacity="1"></use></g></g><g><use xlink:href="#gGM6SmjnX" opacity="1" fill="#e9ecef" fill-opacity="1"></use><g><use xlink:href="#gGM6SmjnX" opacity="1" fill-opacity="0" stroke="#adb5bd" stroke-width="0.25" stroke-opacity="1"></use></g></g><g><g><filter id="shadow5574625" x="24.05" y="553.05" width="248.79" height="21.69" filterUnits="userSpaceOnUse" primitiveUnits="userSpaceOnUse"><feFlood></feFlood><feComposite in2="SourceAlpha" operator="in"></feComposite><feGaussianBlur stdDeviation="1"></feGaussianBlur><feOffset dx="1" dy="1" result="afterOffset"></feOffset><feFlood flood-color="#787878" flood-opacity="0.5"></feFlood><feComposite in2="afterOffset" operator="in"></feComposite><feMorphology operator="dilate" radius="1"></feMorphology><feComposite in2="SourceAlpha" operator="out"></feComposite></filter><path d="M262.83 562.05L250.55 564.74L46.55 564.74L33.05 562.05L262.83 562.05Z" id="bPju4e3Vq" fill="white" fill-opacity="1" filter="url(#shadow5574625)"></path></g><use xlink:href="#a2M7id2m2O" opacity="1" fill="#ced4da" fill-opacity="1"></use><g><use xlink:href="#a2M7id2m2O" opacity="1" fill-opacity="0" stroke="#adb5bd" stroke-width="0.25" stroke-opacity="1"></use></g></g><g><use xlink:href="#d6BgX8MEK" opacity="1" fill="url(#gradientd4Qne12Kg4)"></use><g><use xlink:href="#d6BgX8MEK" opacity="1" fill-opacity="0" stroke="#6c757d" stroke-width="0.25" stroke-opacity="1"></use></g></g><g><use xlink:href="#a3IDPg7LcV" opacity="1" fill="url(#gradienta6ceChO5JD)"></use><g><use xlink:href="#a3IDPg7LcV" opacity="1" fill-opacity="0" stroke="#ced4da" stroke-width="0.25" stroke-opacity="1"></use></g></g><g><g><use xlink:href="#fszjhN7DQ" opacity="1" fill-opacity="0" stroke="#6c757d" stroke-width="0.25" stroke-opacity="1"></use></g></g><g><use xlink:href="#cgvot04yc" opacity="1" fill="#dee9f3" fill-opacity="1"></use></g></g></svg>