<?xml version="1.0" encoding="UTF-8" standalone="no"?>
<!DOCTYPE svg PUBLIC "-//W3C//DTD SVG 1.1//EN" "http://www.w3.org/Graphics/SVG/1.1/DTD/svg11.dtd">
<svg version="1.1" xmlns="http://www.w3.org/2000/svg" xmlns:xlink="http://www.w3.org/1999/xlink" preserveAspectRatio="xMidYMid meet" viewBox="39.71878298373895 336.1216566135014 129.22266048834973 104.80987411745218" width="124.72" height="100.81"><defs><path d="M103.58 337.12L148.18 362.32L148.18 412.73L103.58 437.93L58.98 412.73L58.98 362.32L103.58 337.12Z" id="kNWY4s9Am"></path><radialGradient id="gradientejszXlbAh" gradientUnits="userSpaceOnUse" cx="80.47" cy="334.62" dx="130.52" dy="446.75" r="122.8"><stop style="stop-color: #dee2e6;stop-opacity: 1" offset="0%"></stop><stop style="stop-color: #343a40;stop-opacity: 1" offset="100%"></stop></radialGradient><path d="M165.94 374.12L165.94 400.84L165.94 387.7L148.18 387.7" id="a1NStajVjZ"></path><path d="M41.22 400.89L41.22 374.16L41.22 387.31L58.98 387.31" id="a3l5gTxH"></path><path d="M102.66 359.6L127.38 373.56L127.38 401.49L102.66 415.46L77.95 401.49L77.95 373.56L102.66 359.6Z" id="iQlkN7H1s"></path><radialGradient id="gradientc1dHK60Yff" gradientUnits="userSpaceOnUse" cx="91.66" cy="366.77" dx="112.6" dy="410.08" r="48.09"><stop style="stop-color: #38bfff;stop-opacity: 1" offset="0%"></stop><stop style="stop-color: #054ec4;stop-opacity: 1" offset="100%"></stop></radialGradient></defs><g><g><g><filter id="shadow12720179" x="49.98" y="328.12" width="108.2" height="119.81" filterUnits="userSpaceOnUse" primitiveUnits="userSpaceOnUse"><feFlood></feFlood><feComposite in2="SourceAlpha" operator="in"></feComposite><feGaussianBlur stdDeviation="1"></feGaussianBlur><feOffset dx="1" dy="1" result="afterOffset"></feOffset><feFlood flood-color="#000000" flood-opacity="0.5"></feFlood><feComposite in2="afterOffset" operator="in"></feComposite><feMorphology operator="dilate" radius="1"></feMorphology><feComposite in2="SourceAlpha" operator="out"></feComposite></filter><path d="M103.58 337.12L148.18 362.32L148.18 412.73L103.58 437.93L58.98 412.73L58.98 362.32L103.58 337.12Z" id="acLAL42Ko" fill="white" fill-opacity="1" filter="url(#shadow12720179)"></path></g><use xlink:href="#kNWY4s9Am" opacity="1" fill="url(#gradientejszXlbAh)"></use></g><g><g><use xlink:href="#a1NStajVjZ" opacity="1" fill-opacity="0" stroke="#6c757d" stroke-width="3" stroke-opacity="1"></use></g></g><g><g><use xlink:href="#a3l5gTxH" opacity="1" fill-opacity="0" stroke="#6c757d" stroke-width="3" stroke-opacity="1"></use></g></g><g><g><filter id="shadow6256233" x="68.95" y="350.6" width="68.43" height="74.86" filterUnits="userSpaceOnUse" primitiveUnits="userSpaceOnUse"><feFlood></feFlood><feComposite in2="SourceAlpha" operator="in"></feComposite><feGaussianBlur stdDeviation="1"></feGaussianBlur><feOffset dx="1" dy="1" result="afterOffset"></feOffset><feFlood flood-color="#000000" flood-opacity="0.5"></feFlood><feComposite in2="afterOffset" operator="in"></feComposite><feMorphology operator="dilate" radius="1"></feMorphology><feComposite in2="SourceAlpha" operator="out"></feComposite></filter><path d="M102.66 359.6L127.38 373.56L127.38 401.49L102.66 415.46L77.95 401.49L77.95 373.56L102.66 359.6Z" id="d8yG1FWxk" fill="white" fill-opacity="1" filter="url(#shadow6256233)"></path></g><use xlink:href="#iQlkN7H1s" opacity="1" fill="url(#gradientc1dHK60Yff)"></use><g><use xlink:href="#iQlkN7H1s" opacity="1" fill-opacity="0" stroke="#646c72" stroke-width="1" stroke-opacity="1"></use></g></g></g></svg>