<?xml version="1.0" encoding="UTF-8" standalone="no"?>
<!DOCTYPE svg PUBLIC "-//W3C//DTD SVG 1.1//EN" "http://www.w3.org/Graphics/SVG/1.1/DTD/svg11.dtd">
<svg version="1.1" xmlns="http://www.w3.org/2000/svg" xmlns:xlink="http://www.w3.org/1999/xlink" preserveAspectRatio="xMidYMid meet" viewBox="239.6921431415294 323.70735633906554 134.6168572061938 135.08203439212105" width="130.62" height="131.08"><defs><path d="M371.31 324.71L240.69 324.71L240.69 455.79L371.31 455.79L371.31 324.71Z" id="a5k1tsWrU4"></path><path d="M362.94 415.18L367.91 384.98L350.03 383.51L344.89 367.67L357.05 354.78L334.21 334.89L322.06 348.89L304.75 345.58L302.17 328.65L273.45 337.1L277.5 355.52L267.18 367.67L249.51 365.09L243.76 392.35L260.55 396.77L266.08 413.71L255.11 426.97L277.5 446.12L288.91 433.23L305.84 435.25L312.85 452.01L339.37 443.17L334.21 426.97L344.89 413.71L362.94 415.18Z" id="c1oBKtzhgu"></path><radialGradient id="gradienta22DeXb0t" gradientUnits="userSpaceOnUse" cx="274.05" cy="336.57" dx="339.19" dy="455.79" r="135.85"><stop style="stop-color: #dee2e6;stop-opacity: 1" offset="0%"></stop><stop style="stop-color: #343a40;stop-opacity: 1" offset="100%"></stop></radialGradient><path d="M278.22 392.11C278.22 407.46 290.68 419.92 306.02 419.92C321.37 419.92 333.83 407.46 333.83 392.11C333.83 376.77 321.37 364.31 306.02 364.31C290.68 364.31 278.22 376.77 278.22 392.11Z" id="c2Hm4uxhBo"></path><radialGradient id="gradientdxCUNZqbC" gradientUnits="userSpaceOnUse" cx="292.02" cy="367.81" dx="320" dy="419.92" r="59.15"><stop style="stop-color: #38bfff;stop-opacity: 1" offset="0%"></stop><stop style="stop-color: #054ec4;stop-opacity: 1" offset="100%"></stop></radialGradient><path d="M313.07 399.48L323.38 392.85L313.07 384.75" id="b1ytZkuBDh"></path><path d="M311.89 407.57L300.11 377" id="b1gGLDvvGb"></path><path d="M297.66 399.48L286.98 392.3L295.82 386.22" id="fsxdA84nL"></path></defs><g><g><use xlink:href="#a5k1tsWrU4" opacity="0.43" fill="#ffffff" fill-opacity="1"></use></g><g><g><filter id="shadow12097240" x="234.76" y="319.65" width="143.15" height="142.36" filterUnits="userSpaceOnUse" primitiveUnits="userSpaceOnUse"><feFlood></feFlood><feComposite in2="SourceAlpha" operator="in"></feComposite><feGaussianBlur stdDeviation="1"></feGaussianBlur><feOffset dx="1" dy="1" result="afterOffset"></feOffset><feFlood flood-color="#000000" flood-opacity="0.5"></feFlood><feComposite in2="afterOffset" operator="in"></feComposite><feMorphology operator="dilate" radius="1"></feMorphology><feComposite in2="SourceAlpha" operator="out"></feComposite></filter><path d="M362.94 415.18L367.91 384.98L350.03 383.51L344.89 367.67L357.05 354.78L334.21 334.89L322.06 348.89L304.75 345.58L302.17 328.65L273.45 337.1L277.5 355.52L267.18 367.67L249.51 365.09L243.76 392.35L260.55 396.77L266.08 413.71L255.11 426.97L277.5 446.12L288.91 433.23L305.84 435.25L312.85 452.01L339.37 443.17L334.21 426.97L344.89 413.71L362.94 415.18Z" id="czswIRg5" fill="white" fill-opacity="1" filter="url(#shadow12097240)"></path></g><use xlink:href="#c1oBKtzhgu" opacity="1" fill="url(#gradienta22DeXb0t)"></use></g><g><g><filter id="shadow16022651" x="269.22" y="355.31" width="74.61" height="74.61" filterUnits="userSpaceOnUse" primitiveUnits="userSpaceOnUse"><feFlood></feFlood><feComposite in2="SourceAlpha" operator="in"></feComposite><feGaussianBlur stdDeviation="1"></feGaussianBlur><feOffset dx="1" dy="1" result="afterOffset"></feOffset><feFlood flood-color="#000000" flood-opacity="0.5"></feFlood><feComposite in2="afterOffset" operator="in"></feComposite><feMorphology operator="dilate" radius="1"></feMorphology><feComposite in2="SourceAlpha" operator="out"></feComposite></filter><path d="M278.22 392.11C278.22 407.46 290.68 419.92 306.02 419.92C321.37 419.92 333.83 407.46 333.83 392.11C333.83 376.77 321.37 364.31 306.02 364.31C290.68 364.31 278.22 376.77 278.22 392.11Z" id="csnzpWf41" fill="white" fill-opacity="1" filter="url(#shadow16022651)"></path></g><use xlink:href="#c2Hm4uxhBo" opacity="1" fill="url(#gradientdxCUNZqbC)"></use><g><use xlink:href="#c2Hm4uxhBo" opacity="1" fill-opacity="0" stroke="#646c72" stroke-width="1" stroke-opacity="1"></use></g></g><g><g><use xlink:href="#b1ytZkuBDh" opacity="1" fill-opacity="0" stroke="#6c757d" stroke-width="3" stroke-opacity="1"></use></g></g><g><g><use xlink:href="#b1gGLDvvGb" opacity="1" fill-opacity="0" stroke="#6c757d" stroke-width="3" stroke-opacity="1"></use></g></g><g><g><use xlink:href="#fsxdA84nL" opacity="1" fill-opacity="0" stroke="#6c757d" stroke-width="3" stroke-opacity="1"></use></g></g></g></svg>