<?xml version="1.0" encoding="UTF-8" standalone="no"?>
<!DOCTYPE svg PUBLIC "-//W3C//DTD SVG 1.1//EN" "http://www.w3.org/Graphics/SVG/1.1/DTD/svg11.dtd">
<svg version="1.1" xmlns="http://www.w3.org/2000/svg" xmlns:xlink="http://www.w3.org/1999/xlink" preserveAspectRatio="xMidYMid meet" viewBox="244.26106749294945 152.9213386255622 128.15244750379998 127.36006309356617" width="124.15" height="123.36"><defs><path d="M364.44 240.45L369.41 210.25L351.53 208.78L346.4 192.94L358.55 180.05L335.71 160.16L323.56 174.16L306.25 170.85L303.67 153.92L274.95 162.37L279 180.79L268.69 192.94L251.01 190.36L245.26 217.62L262.06 222.04L267.58 238.98L256.62 252.24L279 271.39L290.42 258.5L307.34 260.52L314.35 277.28L340.87 268.44L335.71 252.24L346.4 238.98L364.44 240.45Z" id="f25Us5rIVF"></path><radialGradient id="gradientbu8HIlvEL" gradientUnits="userSpaceOnUse" cx="275.56" cy="161.84" dx="340.7" dy="281.06" r="135.85"><stop style="stop-color: #dee2e6;stop-opacity: 1" offset="0%"></stop><stop style="stop-color: #343a40;stop-opacity: 1" offset="100%"></stop></radialGradient><path d="M279.72 217.38C279.72 232.73 292.18 245.19 307.53 245.19C322.87 245.19 335.33 232.73 335.33 217.38C335.33 202.04 322.87 189.58 307.53 189.58C292.18 189.58 279.72 202.04 279.72 217.38Z" id="ax9ObHC5K"></path><radialGradient id="gradientb8SMvx5Y3" gradientUnits="userSpaceOnUse" cx="293.83" cy="195.08" dx="323.46" dy="243.19" r="56.51"><stop style="stop-color: #38bfff;stop-opacity: 1" offset="0%"></stop><stop style="stop-color: #054ec4;stop-opacity: 1" offset="100%"></stop></radialGradient></defs><g><g><g><filter id="shadow1774888" x="236.26" y="144.92" width="143.15" height="142.36" filterUnits="userSpaceOnUse" primitiveUnits="userSpaceOnUse"><feFlood></feFlood><feComposite in2="SourceAlpha" operator="in"></feComposite><feGaussianBlur stdDeviation="1"></feGaussianBlur><feOffset dx="1" dy="1" result="afterOffset"></feOffset><feFlood flood-color="#000000" flood-opacity="0.5"></feFlood><feComposite in2="afterOffset" operator="in"></feComposite><feMorphology operator="dilate" radius="1"></feMorphology><feComposite in2="SourceAlpha" operator="out"></feComposite></filter><path d="M364.44 240.45L369.41 210.25L351.53 208.78L346.4 192.94L358.55 180.05L335.71 160.16L323.56 174.16L306.25 170.85L303.67 153.92L274.95 162.37L279 180.79L268.69 192.94L251.01 190.36L245.26 217.62L262.06 222.04L267.58 238.98L256.62 252.24L279 271.39L290.42 258.5L307.34 260.52L314.35 277.28L340.87 268.44L335.71 252.24L346.4 238.98L364.44 240.45Z" id="a1qc7LqPqr" fill="white" fill-opacity="1" filter="url(#shadow1774888)"></path></g><use xlink:href="#f25Us5rIVF" opacity="1" fill="url(#gradientbu8HIlvEL)"></use></g><g><g><filter id="shadow13528592" x="270.72" y="180.58" width="74.61" height="74.61" filterUnits="userSpaceOnUse" primitiveUnits="userSpaceOnUse"><feFlood></feFlood><feComposite in2="SourceAlpha" operator="in"></feComposite><feGaussianBlur stdDeviation="1"></feGaussianBlur><feOffset dx="1" dy="1" result="afterOffset"></feOffset><feFlood flood-color="#000000" flood-opacity="0.5"></feFlood><feComposite in2="afterOffset" operator="in"></feComposite><feMorphology operator="dilate" radius="1"></feMorphology><feComposite in2="SourceAlpha" operator="out"></feComposite></filter><path d="M279.72 217.38C279.72 232.73 292.18 245.19 307.53 245.19C322.87 245.19 335.33 232.73 335.33 217.38C335.33 202.04 322.87 189.58 307.53 189.58C292.18 189.58 279.72 202.04 279.72 217.38Z" id="f2qxammXKD" fill="white" fill-opacity="1" filter="url(#shadow13528592)"></path></g><use xlink:href="#ax9ObHC5K" opacity="1" fill="url(#gradientb8SMvx5Y3)"></use><g><use xlink:href="#ax9ObHC5K" opacity="1" fill-opacity="0" stroke="#646c72" stroke-width="1" stroke-opacity="1"></use></g></g></g></svg>