<?xml version="1.0" encoding="UTF-8" standalone="no"?>
<!DOCTYPE svg PUBLIC "-//W3C//DTD SVG 1.1//EN" "http://www.w3.org/Graphics/SVG/1.1/DTD/svg11.dtd">
<svg version="1.1" xmlns="http://www.w3.org/2000/svg" xmlns:xlink="http://www.w3.org/1999/xlink" preserveAspectRatio="xMidYMid meet" viewBox="450.5340701055893 314.7042230755402 133.03580137441793 130.06940147402406" width="128.54" height="125.57"><defs><path d="M519.2 349.98L520.51 350.11L521.8 350.3L523.08 350.53L524.34 350.82L525.58 351.15L526.8 351.53L528 351.96L529.17 352.43L530.33 352.94L531.46 353.5L532.56 354.1L533.64 354.74L534.69 355.42L535.72 356.14L536.71 356.9L537.67 357.7L538.6 358.53L539.5 359.39L540.37 360.29L541.2 361.22L541.99 362.18L542.75 363.18L543.47 364.2L544.15 365.25L544.79 366.33L545.39 367.43L545.95 368.56L546.47 369.72L546.94 370.9L547.36 372.09L547.74 373.32L548.08 374.56L548.36 375.81L548.6 377.09L548.78 378.39L548.91 379.7L548.99 381.02L549.02 382.36L548.99 383.7L548.91 385.02L548.78 386.33L548.6 387.63L548.36 388.9L548.08 390.16L547.74 391.4L547.36 392.62L546.94 393.82L546.47 395L545.95 396.15L545.39 397.28L544.79 398.39L544.15 399.47L543.47 400.52L542.75 401.54L541.99 402.53L541.2 403.5L540.37 404.43L539.5 405.33L538.6 406.19L537.67 407.02L536.95 407.61L536.95 425.86L496.11 425.52L496.11 407.61L495.4 407.02L494.47 406.19L493.57 405.33L492.7 404.43L491.87 403.5L491.08 402.53L490.32 401.54L489.6 400.52L488.92 399.47L488.28 398.39L487.68 397.28L487.12 396.15L486.6 395L486.13 393.82L485.7 392.62L485.32 391.4L484.99 390.16L484.71 388.9L484.47 387.63L484.29 386.33L484.16 385.02L484.07 383.7L484.05 382.36L484.07 381.02L484.16 379.7L484.29 378.39L484.47 377.09L484.71 375.81L484.99 374.56L485.32 373.32L485.7 372.09L486.13 370.9L486.6 369.72L487.12 368.56L487.68 367.43L488.28 366.33L488.92 365.25L489.6 364.2L490.32 363.18L491.08 362.18L491.87 361.22L492.7 360.29L493.57 359.39L494.47 358.53L495.4 357.7L496.36 356.9L497.35 356.14L498.38 355.42L499.43 354.74L500.51 354.1L501.61 353.5L502.74 352.94L503.89 352.43L505.07 351.96L506.27 351.53L507.49 351.15L508.73 350.82L509.99 350.53L511.27 350.3L512.56 350.11L513.87 349.98L515.2 349.9L516.53 349.87L517.87 349.9L519.2 349.98Z" id="b1MJBBapKK"></path><radialGradient id="gradienta4GFYFK7p5" gradientUnits="userSpaceOnUse" cx="495.03" cy="355.87" dx="532.87" dy="440.75" r="92.93"><stop style="stop-color: #dee2e6;stop-opacity: 1" offset="0%"></stop><stop style="stop-color: #343a40;stop-opacity: 1" offset="100%"></stop></radialGradient><path d="M469.86 388.1L452.03 388.1" id="aE6CCdt7r"></path><path d="M499.83 382.36L499.83 390.25L516.53 390.25L532.87 390.25L532.87 382.36" id="cbdXqyaKb"></path><path d="M515.75 337.24L515.75 316.2" id="a1SWiPfIQA"></path><path d="" id="g5U2cihiGo"></path><path d="" id="gppfoEggc"></path><path d="M480.8 350.26L467.8 336.89" id="aPd9GujBt"></path><path d="M560.3 388.16L580.57 388.16" id="b10lNkFVX6"></path><path d="M548 350.26L562.85 336.89" id="b2NA3BP34r"></path><path d="" id="asM9oVd7c"></path><path d="M516.53 413.32L516.53 391.64" id="c1FwXYC09"></path><path d="M536.95 425.52L496.11 425.52L496.11 441.77L536.95 441.77L536.95 425.52Z" id="ba1ZF9YTM"></path><radialGradient id="gradienta7k2l13KF" gradientUnits="userSpaceOnUse" cx="509.33" cy="425.86" dx="528.47" dy="447.61" r="28.97"><stop style="stop-color: #38bfff;stop-opacity: 1" offset="0%"></stop><stop style="stop-color: #054ec4;stop-opacity: 1" offset="100%"></stop></radialGradient></defs><g><g><g><filter id="shadow12901399" x="475.05" y="340.87" width="83.97" height="94.99" filterUnits="userSpaceOnUse" primitiveUnits="userSpaceOnUse"><feFlood></feFlood><feComposite in2="SourceAlpha" operator="in"></feComposite><feGaussianBlur stdDeviation="1"></feGaussianBlur><feOffset dx="1" dy="1" result="afterOffset"></feOffset><feFlood flood-color="#000000" flood-opacity="0.5"></feFlood><feComposite in2="afterOffset" operator="in"></feComposite><feMorphology operator="dilate" radius="1"></feMorphology><feComposite in2="SourceAlpha" operator="out"></feComposite></filter><path d="M519.2 349.98L520.51 350.11L521.8 350.3L523.08 350.53L524.34 350.82L525.58 351.15L526.8 351.53L528 351.96L529.17 352.43L530.33 352.94L531.46 353.5L532.56 354.1L533.64 354.74L534.69 355.42L535.72 356.14L536.71 356.9L537.67 357.7L538.6 358.53L539.5 359.39L540.37 360.29L541.2 361.22L541.99 362.18L542.75 363.18L543.47 364.2L544.15 365.25L544.79 366.33L545.39 367.43L545.95 368.56L546.47 369.72L546.94 370.9L547.36 372.09L547.74 373.32L548.08 374.56L548.36 375.81L548.6 377.09L548.78 378.39L548.91 379.7L548.99 381.02L549.02 382.36L548.99 383.7L548.91 385.02L548.78 386.33L548.6 387.63L548.36 388.9L548.08 390.16L547.74 391.4L547.36 392.62L546.94 393.82L546.47 395L545.95 396.15L545.39 397.28L544.79 398.39L544.15 399.47L543.47 400.52L542.75 401.54L541.99 402.53L541.2 403.5L540.37 404.43L539.5 405.33L538.6 406.19L537.67 407.02L536.95 407.61L536.95 425.86L496.11 425.52L496.11 407.61L495.4 407.02L494.47 406.19L493.57 405.33L492.7 404.43L491.87 403.5L491.08 402.53L490.32 401.54L489.6 400.52L488.92 399.47L488.28 398.39L487.68 397.28L487.12 396.15L486.6 395L486.13 393.82L485.7 392.62L485.32 391.4L484.99 390.16L484.71 388.9L484.47 387.63L484.29 386.33L484.16 385.02L484.07 383.7L484.05 382.36L484.07 381.02L484.16 379.7L484.29 378.39L484.47 377.09L484.71 375.81L484.99 374.56L485.32 373.32L485.7 372.09L486.13 370.9L486.6 369.72L487.12 368.56L487.68 367.43L488.28 366.33L488.92 365.25L489.6 364.2L490.32 363.18L491.08 362.18L491.87 361.22L492.7 360.29L493.57 359.39L494.47 358.53L495.4 357.7L496.36 356.9L497.35 356.14L498.38 355.42L499.43 354.74L500.51 354.1L501.61 353.5L502.74 352.94L503.89 352.43L505.07 351.96L506.27 351.53L507.49 351.15L508.73 350.82L509.99 350.53L511.27 350.3L512.56 350.11L513.87 349.98L515.2 349.9L516.53 349.87L517.87 349.9L519.2 349.98Z" id="d1XfaH2FxA" fill="white" fill-opacity="1" filter="url(#shadow12901399)"></path></g><use xlink:href="#b1MJBBapKK" opacity="1" fill="url(#gradienta4GFYFK7p5)"></use></g><g><g><use xlink:href="#aE6CCdt7r" opacity="1" fill-opacity="0" stroke="#adb5bd" stroke-width="3" stroke-opacity="1"></use></g></g><g><g><use xlink:href="#cbdXqyaKb" opacity="1" fill-opacity="0" stroke="#646c72" stroke-width="3" stroke-opacity="1"></use></g></g><g><g><use xlink:href="#a1SWiPfIQA" opacity="1" fill-opacity="0" stroke="#adb5bd" stroke-width="3" stroke-opacity="1"></use></g></g><g><g><use xlink:href="#g5U2cihiGo" opacity="1" fill-opacity="0" stroke="#1077d4" stroke-width="1" stroke-opacity="1"></use></g></g><g><g><use xlink:href="#gppfoEggc" opacity="1" fill-opacity="0" stroke="#1077d4" stroke-width="1" stroke-opacity="1"></use></g></g><g><g><use xlink:href="#aPd9GujBt" opacity="1" fill-opacity="0" stroke="#adb5bd" stroke-width="3" stroke-opacity="1"></use></g></g><g><g><use xlink:href="#b10lNkFVX6" opacity="1" fill-opacity="0" stroke="#adb5bd" stroke-width="3" stroke-opacity="1"></use></g></g><g><g><use xlink:href="#b2NA3BP34r" opacity="1" fill-opacity="0" stroke="#adb5bd" stroke-width="3" stroke-opacity="1"></use></g></g><g><g><use xlink:href="#asM9oVd7c" opacity="1" fill-opacity="0" stroke="#9f0f89" stroke-width="1" stroke-opacity="1"></use></g></g><g><g><use xlink:href="#c1FwXYC09" opacity="1" fill-opacity="0" stroke="#646c72" stroke-width="3" stroke-opacity="1"></use></g></g><g><g><filter id="shadow12713298" x="487.11" y="416.52" width="59.84" height="35.25" filterUnits="userSpaceOnUse" primitiveUnits="userSpaceOnUse"><feFlood></feFlood><feComposite in2="SourceAlpha" operator="in"></feComposite><feGaussianBlur stdDeviation="1"></feGaussianBlur><feOffset dx="1" dy="1" result="afterOffset"></feOffset><feFlood flood-color="#000000" flood-opacity="0.5"></feFlood><feComposite in2="afterOffset" operator="in"></feComposite><feMorphology operator="dilate" radius="1"></feMorphology><feComposite in2="SourceAlpha" operator="out"></feComposite></filter><path d="M536.95 425.52L496.11 425.52L496.11 441.77L536.95 441.77L536.95 425.52Z" id="g4mlcaeTH" fill="white" fill-opacity="1" filter="url(#shadow12713298)"></path></g><use xlink:href="#ba1ZF9YTM" opacity="1" fill="url(#gradienta7k2l13KF)"></use><g><use xlink:href="#ba1ZF9YTM" opacity="1" fill-opacity="0" stroke="#646c72" stroke-width="1" stroke-opacity="1"></use></g></g></g></svg>