<?xml version="1.0" encoding="UTF-8" standalone="no"?>
<!DOCTYPE svg PUBLIC "-//W3C//DTD SVG 1.1//EN" "http://www.w3.org/Graphics/SVG/1.1/DTD/svg11.dtd">
<svg version="1.1" xmlns="http://www.w3.org/2000/svg" xmlns:xlink="http://www.w3.org/1999/xlink" preserveAspectRatio="xMidYMid meet" viewBox="38.1938762965998 148.9772797019109 134.6168572061938 135.08203439212105" width="130.62" height="131.08"><defs><path d="M169.81 149.98L39.19 149.98L39.19 281.06L169.81 281.06L169.81 149.98Z" id="b27wiKiUXW"></path><path d="M105.08 162.39L149.68 187.59L149.68 238L105.08 263.2L60.48 238L60.48 187.59L105.08 162.39Z" id="bmfl30ImE"></path><radialGradient id="gradientf2aOTFnKj1" gradientUnits="userSpaceOnUse" cx="81.97" cy="159.89" dx="132.02" dy="272.02" r="122.8"><stop style="stop-color: #dee2e6;stop-opacity: 1" offset="0%"></stop><stop style="stop-color: #343a40;stop-opacity: 1" offset="100%"></stop></radialGradient><path d="M167.44 199.39L167.44 226.11L167.44 212.97L149.68 212.97" id="h12rwM4YOR"></path><path d="M42.72 226.16L42.72 199.43L42.72 212.58L60.48 212.58" id="h4tO3SpGEA"></path><path d="M104.17 184.87L128.88 198.83L128.88 226.76L104.17 240.73L79.45 226.76L79.45 198.83L104.17 184.87Z" id="b2w5nCmru7"></path><radialGradient id="gradientj13XSzk80j" gradientUnits="userSpaceOnUse" cx="93.17" cy="192.04" dx="114.1" dy="235.34" r="48.09"><stop style="stop-color: #38bfff;stop-opacity: 1" offset="0%"></stop><stop style="stop-color: #054ec4;stop-opacity: 1" offset="100%"></stop></radialGradient></defs><g><g><use xlink:href="#b27wiKiUXW" opacity="0.43" fill="#ffffff" fill-opacity="1"></use></g><g><g><filter id="shadow9683511" x="51.48" y="153.39" width="108.2" height="119.81" filterUnits="userSpaceOnUse" primitiveUnits="userSpaceOnUse"><feFlood></feFlood><feComposite in2="SourceAlpha" operator="in"></feComposite><feGaussianBlur stdDeviation="1"></feGaussianBlur><feOffset dx="1" dy="1" result="afterOffset"></feOffset><feFlood flood-color="#000000" flood-opacity="0.5"></feFlood><feComposite in2="afterOffset" operator="in"></feComposite><feMorphology operator="dilate" radius="1"></feMorphology><feComposite in2="SourceAlpha" operator="out"></feComposite></filter><path d="M105.08 162.39L149.68 187.59L149.68 238L105.08 263.2L60.48 238L60.48 187.59L105.08 162.39Z" id="b1hLFp3p3O" fill="white" fill-opacity="1" filter="url(#shadow9683511)"></path></g><use xlink:href="#bmfl30ImE" opacity="1" fill="url(#gradientf2aOTFnKj1)"></use></g><g><g><use xlink:href="#h12rwM4YOR" opacity="1" fill-opacity="0" stroke="#6c757d" stroke-width="3" stroke-opacity="1"></use></g></g><g><g><use xlink:href="#h4tO3SpGEA" opacity="1" fill-opacity="0" stroke="#6c757d" stroke-width="3" stroke-opacity="1"></use></g></g><g><g><filter id="shadow12103534" x="70.45" y="175.87" width="68.43" height="74.86" filterUnits="userSpaceOnUse" primitiveUnits="userSpaceOnUse"><feFlood></feFlood><feComposite in2="SourceAlpha" operator="in"></feComposite><feGaussianBlur stdDeviation="1"></feGaussianBlur><feOffset dx="1" dy="1" result="afterOffset"></feOffset><feFlood flood-color="#000000" flood-opacity="0.5"></feFlood><feComposite in2="afterOffset" operator="in"></feComposite><feMorphology operator="dilate" radius="1"></feMorphology><feComposite in2="SourceAlpha" operator="out"></feComposite></filter><path d="M104.17 184.87L128.88 198.83L128.88 226.76L104.17 240.73L79.45 226.76L79.45 198.83L104.17 184.87Z" id="e1DmQrsIos" fill="white" fill-opacity="1" filter="url(#shadow12103534)"></path></g><use xlink:href="#b2w5nCmru7" opacity="1" fill="url(#gradientj13XSzk80j)"></use><g><use xlink:href="#b2w5nCmru7" opacity="1" fill-opacity="0" stroke="#646c72" stroke-width="1" stroke-opacity="1"></use></g></g></g></svg>