<?xml version="1.0" encoding="UTF-8" standalone="no"?>
<!DOCTYPE svg PUBLIC "-//W3C//DTD SVG 1.1//EN" "http://www.w3.org/Graphics/SVG/1.1/DTD/svg11.dtd">
<svg version="1.1" xmlns="http://www.w3.org/2000/svg" xmlns:xlink="http://www.w3.org/1999/xlink" preserveAspectRatio="xMidYMid meet" viewBox="452.53580326065946 155.89157997634675 134.6168572061938 135.08203439212105" width="130.62" height="131.08"><defs><path d="M584.15 156.89L453.54 156.89L453.54 287.97L584.15 287.97L584.15 156.89Z" id="jQPF2U66N"></path><path d="M545.13 262.89L488.58 262.89L488.58 285.39L545.13 285.39L545.13 262.89Z" id="g88gfQp9G"></path><radialGradient id="gradiente1X0Lcm6sh" gradientUnits="userSpaceOnUse" cx="501.34" cy="262.89" dx="527.29" dy="294.9" r="41.21"><stop style="stop-color: #38bfff;stop-opacity: 1" offset="0%"></stop><stop style="stop-color: #054ec4;stop-opacity: 1" offset="100%"></stop></radialGradient><path d="M520.51 158.13L522.32 158.31L524.11 158.57L525.88 158.89L527.62 159.29L529.34 159.75L531.03 160.27L532.69 160.86L534.32 161.52L535.92 162.23L537.49 163L539.02 163.83L540.51 164.72L541.96 165.66L543.38 166.66L544.76 167.71L546.09 168.81L547.38 169.96L548.62 171.16L549.82 172.4L550.97 173.69L552.07 175.03L553.12 176.4L554.12 177.82L555.06 179.27L555.95 180.77L556.78 182.3L557.55 183.86L558.27 185.46L558.92 187.09L559.51 188.75L560.04 190.44L560.5 192.16L560.89 193.9L561.21 195.67L561.47 197.46L561.65 199.27L561.77 201.11L561.8 202.96L561.77 204.81L561.65 206.65L561.47 208.46L561.21 210.25L560.89 212.02L560.5 213.77L560.04 215.48L559.51 217.17L558.92 218.83L558.27 220.46L557.55 222.06L556.78 223.63L555.95 225.16L555.06 226.65L554.12 228.11L553.12 229.52L552.07 230.9L550.97 232.23L549.82 233.52L548.62 234.76L547.38 235.96L546.09 237.11L545.1 237.93L545.1 263.2L488.54 262.73L488.54 237.93L487.55 237.11L486.26 235.96L485.02 234.76L483.82 233.52L482.67 232.23L481.57 230.9L480.52 229.52L479.52 228.11L478.58 226.65L477.69 225.16L476.86 223.63L476.09 222.06L475.37 220.46L474.72 218.83L474.13 217.17L473.6 215.48L473.14 213.77L472.75 212.02L472.43 210.25L472.17 208.46L471.99 206.65L471.87 204.81L471.84 202.96L471.87 201.11L471.99 199.27L472.17 197.46L472.43 195.67L472.75 193.9L473.14 192.16L473.6 190.44L474.13 188.75L474.72 187.09L475.37 185.46L476.09 183.86L476.86 182.3L477.69 180.77L478.58 179.27L479.52 177.82L480.52 176.4L481.57 175.03L482.67 173.69L483.82 172.4L485.02 171.16L486.26 169.96L487.55 168.81L488.88 167.71L490.26 166.66L491.68 165.66L493.13 164.72L494.62 163.83L496.15 163L497.72 162.23L499.32 161.52L500.95 160.86L502.61 160.27L504.3 159.75L506.02 159.29L507.76 158.89L509.53 158.57L511.32 158.31L513.13 158.13L514.97 158.02L516.82 157.98L518.67 158.02L520.51 158.13Z" id="a85pkv8NE"></path><radialGradient id="gradientemDItt0Jw" gradientUnits="userSpaceOnUse" cx="487.05" cy="166.29" dx="538.32" dy="267.21" r="113.2"><stop style="stop-color: #dee2e6;stop-opacity: 1" offset="0%"></stop><stop style="stop-color: #343a40;stop-opacity: 1" offset="100%"></stop></radialGradient><path d="" id="a3eubV84ah"></path><path d="M493.72 206.08L493.72 217L516.85 217L539.47 217L539.47 206.08" id="c4eW7MPfiK"></path><path d="M516.85 248.95L516.85 217.95" id="b3whL8pDS"></path><path d="" id="cnJkdQKWC"></path><path d="" id="caw8ZCStL"></path></defs><g><g><use xlink:href="#jQPF2U66N" opacity="0.69" fill="#ffffff" fill-opacity="1"></use></g><g><g><filter id="shadow10986155" x="479.58" y="253.89" width="75.55" height="41.51" filterUnits="userSpaceOnUse" primitiveUnits="userSpaceOnUse"><feFlood></feFlood><feComposite in2="SourceAlpha" operator="in"></feComposite><feGaussianBlur stdDeviation="1"></feGaussianBlur><feOffset dx="1" dy="1" result="afterOffset"></feOffset><feFlood flood-color="#000000" flood-opacity="0.5"></feFlood><feComposite in2="afterOffset" operator="in"></feComposite><feMorphology operator="dilate" radius="1"></feMorphology><feComposite in2="SourceAlpha" operator="out"></feComposite></filter><path d="M545.13 262.89L488.58 262.89L488.58 285.39L545.13 285.39L545.13 262.89Z" id="a2X1kCii9c" fill="white" fill-opacity="1" filter="url(#shadow10986155)"></path></g><use xlink:href="#g88gfQp9G" opacity="1" fill="url(#gradiente1X0Lcm6sh)"></use><g><use xlink:href="#g88gfQp9G" opacity="1" fill-opacity="0" stroke="#646c72" stroke-width="1" stroke-opacity="1"></use></g></g><g><g><filter id="shadow10351459" x="462.84" y="148.98" width="108.97" height="124.22" filterUnits="userSpaceOnUse" primitiveUnits="userSpaceOnUse"><feFlood></feFlood><feComposite in2="SourceAlpha" operator="in"></feComposite><feGaussianBlur stdDeviation="1"></feGaussianBlur><feOffset dx="1" dy="1" result="afterOffset"></feOffset><feFlood flood-color="#000000" flood-opacity="0.5"></feFlood><feComposite in2="afterOffset" operator="in"></feComposite><feMorphology operator="dilate" radius="1"></feMorphology><feComposite in2="SourceAlpha" operator="out"></feComposite></filter><path d="M520.51 158.13L522.32 158.31L524.11 158.57L525.88 158.89L527.62 159.29L529.34 159.75L531.03 160.27L532.69 160.86L534.32 161.52L535.92 162.23L537.49 163L539.02 163.83L540.51 164.72L541.96 165.66L543.38 166.66L544.76 167.71L546.09 168.81L547.38 169.96L548.62 171.16L549.82 172.4L550.97 173.69L552.07 175.03L553.12 176.4L554.12 177.82L555.06 179.27L555.95 180.77L556.78 182.3L557.55 183.86L558.27 185.46L558.92 187.09L559.51 188.75L560.04 190.44L560.5 192.16L560.89 193.9L561.21 195.67L561.47 197.46L561.65 199.27L561.77 201.11L561.8 202.96L561.77 204.81L561.65 206.65L561.47 208.46L561.21 210.25L560.89 212.02L560.5 213.77L560.04 215.48L559.51 217.17L558.92 218.83L558.27 220.46L557.55 222.06L556.78 223.63L555.95 225.16L555.06 226.65L554.12 228.11L553.12 229.52L552.07 230.9L550.97 232.23L549.82 233.52L548.62 234.76L547.38 235.96L546.09 237.11L545.1 237.93L545.1 263.2L488.54 262.73L488.54 237.93L487.55 237.11L486.26 235.96L485.02 234.76L483.82 233.52L482.67 232.23L481.57 230.9L480.52 229.52L479.52 228.11L478.58 226.65L477.69 225.16L476.86 223.63L476.09 222.06L475.37 220.46L474.72 218.83L474.13 217.17L473.6 215.48L473.14 213.77L472.75 212.02L472.43 210.25L472.17 208.46L471.99 206.65L471.87 204.81L471.84 202.96L471.87 201.11L471.99 199.27L472.17 197.46L472.43 195.67L472.75 193.9L473.14 192.16L473.6 190.44L474.13 188.75L474.72 187.09L475.37 185.46L476.09 183.86L476.86 182.3L477.69 180.77L478.58 179.27L479.52 177.82L480.52 176.4L481.57 175.03L482.67 173.69L483.82 172.4L485.02 171.16L486.26 169.96L487.55 168.81L488.88 167.71L490.26 166.66L491.68 165.66L493.13 164.72L494.62 163.83L496.15 163L497.72 162.23L499.32 161.52L500.95 160.86L502.61 160.27L504.3 159.75L506.02 159.29L507.76 158.89L509.53 158.57L511.32 158.31L513.13 158.13L514.97 158.02L516.82 157.98L518.67 158.02L520.51 158.13Z" id="b3GQx6dGX9" fill="white" fill-opacity="1" filter="url(#shadow10351459)"></path></g><use xlink:href="#a85pkv8NE" opacity="1" fill="url(#gradientemDItt0Jw)"></use></g><g><g><use xlink:href="#a3eubV84ah" opacity="1" fill-opacity="0" stroke="#9f0f89" stroke-width="1" stroke-opacity="1"></use></g></g><g><g><use xlink:href="#c4eW7MPfiK" opacity="1" fill-opacity="0" stroke="#4c535a" stroke-width="3" stroke-opacity="1"></use></g></g><g><g><use xlink:href="#b3whL8pDS" opacity="1" fill-opacity="0" stroke="#4c535a" stroke-width="3" stroke-opacity="1"></use></g></g><g><g><use xlink:href="#cnJkdQKWC" opacity="1" fill-opacity="0" stroke="#1077d4" stroke-width="1" stroke-opacity="1"></use></g></g><g><g><use xlink:href="#caw8ZCStL" opacity="1" fill-opacity="0" stroke="#1077d4" stroke-width="1" stroke-opacity="1"></use></g></g></g></svg>