<?xml version="1.0" encoding="UTF-8" standalone="no"?>
<!DOCTYPE svg PUBLIC "-//W3C//DTD SVG 1.1//EN" "http://www.w3.org/Graphics/SVG/1.1/DTD/svg11.dtd">
<svg version="1.1" xmlns="http://www.w3.org/2000/svg" xmlns:xlink="http://www.w3.org/1999/xlink" preserveAspectRatio="xMidYMid meet" viewBox="272.7857142857147 372.5142857142856 80.21428571428532 80.48571428571438" width="76.21" height="76.49"><defs><path d="M296.3 412.97C296.3 421.93 303.57 429.2 312.52 429.2C321.48 429.2 328.75 421.93 328.75 412.97C328.75 404.02 321.48 396.75 312.52 396.75C303.57 396.75 296.3 404.02 296.3 412.97Z" id="e1nLGIlg8u"></path><path d="M345.94 427.05L348.84 409.42L338.41 408.57L335.41 399.32L342.5 391.8L329.18 380.2L322.09 388.36L311.99 386.43L310.48 376.56L293.72 381.49L296.09 392.23L290.07 399.32L279.75 397.82L276.4 413.72L286.2 416.3L289.42 426.19L283.03 433.92L296.09 445.1L302.75 437.58L312.62 438.76L316.72 448.54L332.19 443.38L329.18 433.92L335.41 426.19L345.94 427.05Z" id="coXPvccqX"></path><path d="M316.93 417.59L322.95 413.72L316.93 408.99" id="h7fvkXOXGE"></path><path d="M315.86 422.32L308.98 404.48" id="gjkW24eYs"></path><path d="M308.12 417.59L301.89 413.4L307.05 409.85" id="cIIj0HhTv"></path><path d="M350 373.51L273.79 373.51L273.79 450L350 450L350 373.51Z" id="b1gSx9gWkx"></path></defs><g><g><g><use xlink:href="#e1nLGIlg8u" opacity="1" fill-opacity="0" stroke="#1077d4" stroke-width="2" stroke-opacity="1"></use></g></g><g><g><use xlink:href="#coXPvccqX" opacity="1" fill-opacity="0" stroke="#1077d4" stroke-width="2" stroke-opacity="1"></use></g></g><g><g><use xlink:href="#h7fvkXOXGE" opacity="1" fill-opacity="0" stroke="#1077d4" stroke-width="2" stroke-opacity="1"></use></g></g><g><g><use xlink:href="#gjkW24eYs" opacity="1" fill-opacity="0" stroke="#1077d4" stroke-width="2" stroke-opacity="1"></use></g></g><g><g><use xlink:href="#cIIj0HhTv" opacity="1" fill-opacity="0" stroke="#1077d4" stroke-width="2" stroke-opacity="1"></use></g></g><g></g></g></svg>