<?xml version="1.0" encoding="UTF-8" standalone="no"?>
<!DOCTYPE svg PUBLIC "-//W3C//DTD SVG 1.1//EN" "http://www.w3.org/Graphics/SVG/1.1/DTD/svg11.dtd">
<svg version="1.1" xmlns="http://www.w3.org/2000/svg" xmlns:xlink="http://www.w3.org/1999/xlink" preserveAspectRatio="xMidYMid meet" viewBox="272.7857142857147 473.5844155844156 80.21428571428532 80.48571428571432" width="76.21" height="76.49"><defs><path d="M293.68 514.6C293.68 525.06 302.17 533.56 312.64 533.56C323.1 533.56 331.59 525.06 331.59 514.6C331.59 504.14 323.1 495.64 312.64 495.64C302.17 495.64 293.68 504.14 293.68 514.6Z" id="b6Bis5Uar"></path><path d="M300.72 529.38L300.72 539.86L324.55 540.44L324.55 528.7" id="b1W2rN1AF"></path><path d="" id="gt4L2xvRf"></path><path d="M302.89 514.6L302.89 519.2L312.64 519.2L322.17 519.2L322.17 514.6" id="bCKfKFnRH"></path><path d="M300.72 528.7L300.72 529.31L300.72 534.46" id="a1gpS2jKyY"></path><path d="" id="b2Q2bBECby"></path><path d="M324.55 539.99L300.72 539.99L300.72 549.47L324.55 549.47L324.55 539.99Z" id="aym5HMjn8"></path><path d="M312.18 488.28L312.18 476" id="bg6P875DK"></path><path d="M291.78 495.87L284.2 488.07" id="b2H18XK5Ni"></path><path d="M285.4 517.95L275 517.95" id="b1paGTfVjO"></path><path d="M338.17 517.99L350 517.99" id="b1b44zdjs2"></path><path d="M331 495.87L339.66 488.07" id="d1NLqALOjq"></path><path d="M323.25 523.19L302.02 523.19L302.02 538.84L323.25 538.84L323.25 523.19Z" id="d4iHF9yTN5"></path><path d="" id="b1HfBXLhwf"></path><path d="M312.64 532.67L312.64 520.02" id="a2ijletaVf"></path><path d="M350 474.58L273.79 474.58L273.79 551.07L350 551.07L350 474.58Z" id="etwZVtjj"></path></defs><g><g><g><use xlink:href="#b6Bis5Uar" opacity="1" fill-opacity="0" stroke="#1077d4" stroke-width="2" stroke-opacity="1"></use></g></g><g><g><use xlink:href="#b1W2rN1AF" opacity="1" fill-opacity="0" stroke="#1077d4" stroke-width="2" stroke-opacity="1"></use></g></g><g><g><use xlink:href="#gt4L2xvRf" opacity="1" fill-opacity="0" stroke="#1077d4" stroke-width="3" stroke-opacity="1"></use></g></g><g><g><use xlink:href="#bCKfKFnRH" opacity="1" fill-opacity="0" stroke="#1077d4" stroke-width="2" stroke-opacity="1"></use></g></g><g><g><use xlink:href="#a1gpS2jKyY" opacity="1" fill-opacity="0" stroke="#1077d4" stroke-width="2" stroke-opacity="1"></use></g></g><g><g><use xlink:href="#b2Q2bBECby" opacity="1" fill-opacity="0" stroke="#1077d4" stroke-width="3" stroke-opacity="1"></use></g></g><g><g><use xlink:href="#aym5HMjn8" opacity="1" fill-opacity="0" stroke="#1077d4" stroke-width="2" stroke-opacity="1"></use></g></g><g><g><use xlink:href="#bg6P875DK" opacity="1" fill-opacity="0" stroke="#1077d4" stroke-width="2" stroke-opacity="1"></use></g></g><g><g><use xlink:href="#b2H18XK5Ni" opacity="1" fill-opacity="0" stroke="#1077d4" stroke-width="2" stroke-opacity="1"></use></g></g><g><g><use xlink:href="#b1paGTfVjO" opacity="1" fill-opacity="0" stroke="#1077d4" stroke-width="2" stroke-opacity="1"></use></g></g><g><g><use xlink:href="#b1b44zdjs2" opacity="1" fill-opacity="0" stroke="#1077d4" stroke-width="2" stroke-opacity="1"></use></g></g><g><g><use xlink:href="#d1NLqALOjq" opacity="1" fill-opacity="0" stroke="#1077d4" stroke-width="2" stroke-opacity="1"></use></g></g><g><use xlink:href="#d4iHF9yTN5" opacity="1" fill="#ffffff" fill-opacity="1"></use><g><use xlink:href="#d4iHF9yTN5" opacity="1" fill-opacity="0" stroke="#ffffff" stroke-width="1" stroke-opacity="1"></use></g></g><g><g><use xlink:href="#b1HfBXLhwf" opacity="1" fill-opacity="0" stroke="#9f0f89" stroke-width="5" stroke-opacity="1"></use></g></g><g><g><use xlink:href="#a2ijletaVf" opacity="1" fill-opacity="0" stroke="#1077d4" stroke-width="2" stroke-opacity="1"></use></g></g><g></g></g></svg>