<?xml version="1.0" encoding="UTF-8" standalone="no"?>
<!DOCTYPE svg PUBLIC "-//W3C//DTD SVG 1.1//EN" "http://www.w3.org/Graphics/SVG/1.1/DTD/svg11.dtd">
<svg version="1.1" xmlns="http://www.w3.org/2000/svg" xmlns:xlink="http://www.w3.org/1999/xlink" preserveAspectRatio="xMidYMid meet" viewBox="2.275 485.87627350267167 187.165 136.2380025304535" width="183.17" height="132.24"><defs><path d="M105.31 487.3L110.46 487.82L115.54 488.55L120.56 489.47L125.51 490.59L130.39 491.9L135.19 493.39L139.9 495.07L144.53 496.92L149.06 498.94L153.5 501.14L157.85 503.5L162.09 506.02L166.22 508.7L170.24 511.53L174.14 514.51L177.92 517.63L181.59 520.89L185.12 524.29L186.44 525.67L168.97 544.2L168.33 543.97L166.92 542.51L164.1 539.79L161.18 537.19L158.15 534.7L155.04 532.32L151.83 530.06L148.53 527.92L145.15 525.91L141.68 524.02L138.14 522.27L134.52 520.66L130.82 519.18L127.06 517.84L123.23 516.65L119.34 515.61L115.39 514.71L111.38 513.98L107.32 513.4L103.21 512.98L99.06 512.73L94.86 512.64L90.66 512.73L86.5 512.98L82.39 513.4L78.33 513.98L74.33 514.71L70.37 515.61L66.48 516.65L62.65 517.84L58.89 519.18L55.2 520.66L51.58 522.27L48.03 524.02L44.57 525.91L41.18 527.92L37.88 530.06L34.68 532.32L31.56 534.7L28.54 537.19L25.62 539.79L22.8 542.51L21.65 543.7L21.68 543.74L21.61 543.74L21.65 543.7L3.28 525.64L4.57 524.29L8.1 520.89L11.76 517.63L15.55 514.51L19.45 511.53L23.47 508.7L27.6 506.02L31.84 503.5L36.18 501.14L40.62 498.94L45.16 496.92L49.79 495.07L54.5 493.39L59.3 491.9L64.17 490.59L69.12 489.47L74.14 488.55L79.23 487.82L84.38 487.3L89.58 486.98L94.84 486.88L100.1 486.98L105.31 487.3Z" id="m13GSxUdqA"></path><radialGradient id="gradientd28xT4x7I" gradientUnits="userSpaceOnUse" cx="46.05" cy="452.66" dx="136.53" dy="532.55" r="120.7"><stop style="stop-color: #147de6;stop-opacity: 1" offset="0%"></stop><stop style="stop-color: #0a233e;stop-opacity: 1" offset="100%"></stop></radialGradient><path d="M101.82 532.83L105.16 533.17L108.47 533.64L111.73 534.24L114.95 534.97L118.12 535.82L121.24 536.79L124.3 537.87L127.31 539.08L130.26 540.4L133.15 541.82L135.97 543.36L138.73 545L141.41 546.74L144.03 548.58L146.56 550.51L149.02 552.54L151.4 554.67L153.7 556.88L155.91 559.17L156.5 559.84L137.49 579.6L137.27 579.35L135.85 577.75L134.37 576.21L132.83 574.73L131.23 573.3L129.58 571.94L127.88 570.64L126.13 569.41L124.33 568.24L122.48 567.14L120.59 566.12L118.65 565.16L116.67 564.28L114.66 563.47L112.6 562.74L110.51 562.09L108.38 561.52L106.23 561.03L104.04 560.63L101.82 560.31L99.58 560.08L97.31 559.94L95.01 559.9L92.72 559.94L90.45 560.08L88.21 560.31L85.99 560.63L83.8 561.03L81.64 561.52L79.52 562.09L77.43 562.74L75.37 563.47L73.36 564.28L71.38 565.16L69.44 566.12L67.55 567.14L65.7 568.24L63.9 569.41L62.15 570.64L60.45 571.94L58.8 573.3L57.2 574.73L55.66 576.21L54.36 577.56L34.67 558.6L36.33 556.88L38.62 554.67L41 552.54L43.46 550.51L46 548.58L48.61 546.74L51.3 545L54.06 543.36L56.88 541.82L59.77 540.4L62.71 539.08L65.72 537.87L68.79 536.79L71.91 535.82L75.07 534.97L78.29 534.24L81.56 533.64L84.86 533.17L88.21 532.83L91.59 532.62L95.01 532.55L98.43 532.62L101.82 532.83Z" id="c2jUxcdMuP"></path><radialGradient id="gradienta6HSsuhRT" gradientUnits="userSpaceOnUse" cx="63.12" cy="504.47" dx="123.31" dy="570.04" r="89.01"><stop style="stop-color: #147de6;stop-opacity: 1" offset="0%"></stop><stop style="stop-color: #0a233e;stop-opacity: 1" offset="100%"></stop></radialGradient><path d="M117.62 595.31C117.62 605.94 108.99 614.57 98.36 614.57C87.74 614.57 79.11 605.94 79.11 595.31C79.11 584.68 87.74 576.06 98.36 576.06C108.99 576.06 117.62 584.68 117.62 595.31Z" id="gIR48TbVo"></path><radialGradient id="gradientb1sNiv5MMD" gradientUnits="userSpaceOnUse" cx="87.35" cy="579.6" dx="107.39" dy="609.6" r="36.07"><stop style="stop-color: #dee2e6;stop-opacity: 1" offset="0%"></stop><stop style="stop-color: #343a40;stop-opacity: 1" offset="100%"></stop></radialGradient><path d="" id="a5jFQFfGHf"></path></defs><g><g><use xlink:href="#m13GSxUdqA" opacity="1" fill="url(#gradientd28xT4x7I)"></use></g><g><use xlink:href="#c2jUxcdMuP" opacity="1" fill="url(#gradienta6HSsuhRT)"></use></g><g><use xlink:href="#gIR48TbVo" opacity="1" fill="url(#gradientb1sNiv5MMD)"></use></g><g><g><use xlink:href="#a5jFQFfGHf" opacity="1" fill-opacity="0" stroke="#000000" stroke-width="1" stroke-opacity="1"></use></g></g></g></svg>