<?xml version="1.0" encoding="UTF-8" standalone="no"?>
<!DOCTYPE svg PUBLIC "-//W3C//DTD SVG 1.1//EN" "http://www.w3.org/Graphics/SVG/1.1/DTD/svg11.dtd">
<svg version="1.1" xmlns="http://www.w3.org/2000/svg" xmlns:xlink="http://www.w3.org/1999/xlink" preserveAspectRatio="xMidYMid meet" viewBox="48.66055592013663 178.7718549266643 109.87782703398625 109.87782703398645" width="105.88" height="105.88"><defs><path d="M155.54 232.71C155.54 261.93 131.82 285.65 102.6 285.65C73.38 285.65 49.66 261.93 49.66 232.71C49.66 203.49 73.38 179.77 102.6 179.77C131.82 179.77 155.54 203.49 155.54 232.71Z" id="aqvbTYvdq"></path><radialGradient id="gradientb78uSJfcl" gradientUnits="userSpaceOnUse" cx="74.34" cy="150.85" dx="137.79" dy="274.35" r="138.85"><stop style="stop-color: #147de6;stop-opacity: 1" offset="0%"></stop><stop style="stop-color: #0a233e;stop-opacity: 1" offset="100%"></stop></radialGradient><path d="M88.87 256.77L102.9 256.77L117.11 256.77" id="d1RoGpBa1B"></path><path d="M71.45 247.94L133.75 247.94L133.75 213.82L71.45 213.82L71.45 247.94Z" id="a1OBL82bs"></path><path d="M102.99 256.77L102.99 247.94" id="a1BbDgOpl6"></path></defs><g><g><g><filter id="shadow10696391" x="40.66" y="170.77" width="124.88" height="124.88" filterUnits="userSpaceOnUse" primitiveUnits="userSpaceOnUse"><feFlood></feFlood><feComposite in2="SourceAlpha" operator="in"></feComposite><feGaussianBlur stdDeviation="1"></feGaussianBlur><feOffset dx="1" dy="1" result="afterOffset"></feOffset><feFlood flood-color="#000000" flood-opacity="0.5"></feFlood><feComposite in2="afterOffset" operator="in"></feComposite><feMorphology operator="dilate" radius="1"></feMorphology><feComposite in2="SourceAlpha" operator="out"></feComposite></filter><path d="M155.54 232.71C155.54 261.93 131.82 285.65 102.6 285.65C73.38 285.65 49.66 261.93 49.66 232.71C49.66 203.49 73.38 179.77 102.6 179.77C131.82 179.77 155.54 203.49 155.54 232.71Z" id="dREFeZ1x" fill="white" fill-opacity="1" filter="url(#shadow10696391)"></path></g><use xlink:href="#aqvbTYvdq" opacity="1" fill="url(#gradientb78uSJfcl)"></use></g><g><g><use xlink:href="#d1RoGpBa1B" opacity="1" fill-opacity="0" stroke="#39b0ed" stroke-width="2" stroke-opacity="1"></use></g></g><g><g><use xlink:href="#a1OBL82bs" opacity="1" fill-opacity="0" stroke="#39b0ed" stroke-width="2" stroke-opacity="1"></use></g></g><g><g><use xlink:href="#a1BbDgOpl6" opacity="1" fill-opacity="0" stroke="#39b0ed" stroke-width="2" stroke-opacity="1"></use></g></g></g></svg>