<?xml version="1.0" encoding="UTF-8" standalone="no"?>
<!DOCTYPE svg PUBLIC "-//W3C//DTD SVG 1.1//EN" "http://www.w3.org/Graphics/SVG/1.1/DTD/svg11.dtd">
<svg version="1.1" xmlns="http://www.w3.org/2000/svg" xmlns:xlink="http://www.w3.org/1999/xlink" preserveAspectRatio="xMidYMid meet" viewBox="188.57100759889158 178.77185492666445 109.87782703398648 109.87782703398625" width="105.88" height="105.88"><defs><path d="M295.45 232.71C295.45 261.93 271.73 285.65 242.51 285.65C213.29 285.65 189.57 261.93 189.57 232.71C189.57 203.49 213.29 179.77 242.51 179.77C271.73 179.77 295.45 203.49 295.45 232.71Z" id="b1loIsq7kf"></path><radialGradient id="gradientbFq638N0L" gradientUnits="userSpaceOnUse" cx="214.25" cy="150.85" dx="277.7" dy="274.35" r="138.85"><stop style="stop-color: #147de6;stop-opacity: 1" offset="0%"></stop><stop style="stop-color: #0a233e;stop-opacity: 1" offset="100%"></stop></radialGradient><path d="M235.36 229.73C235.36 234.48 231.5 238.33 226.76 238.33C222.01 238.33 218.16 234.48 218.16 229.73C218.16 224.98 222.01 221.13 226.76 221.13C231.5 221.13 235.36 224.98 235.36 229.73Z" id="bS62lf5g"></path><path d="M263.42 249.32C263.42 254.06 259.56 257.92 254.82 257.92C250.07 257.92 246.22 254.06 246.22 249.32C246.22 244.57 250.07 240.72 254.82 240.72C259.56 240.72 263.42 244.57 263.42 249.32Z" id="a3zqpfKvtF"></path><path d="M280.62 211.2C280.62 215.95 276.76 219.8 272.02 219.8C267.27 219.8 263.42 215.95 263.42 211.2C263.42 206.46 267.27 202.6 272.02 202.6C276.76 202.6 280.62 206.46 280.62 211.2Z" id="d9iPuwvAW"></path><path d="M258.39 240.72L270.31 219.8" id="aVDCvYt2m"></path><path d="M247.55 244.46L234.36 235.1" id="f9qKoBbOb"></path><path d="M205.98 257.92L222.14 237" id="b1ouF4LjO8"></path></defs><g><g><g><filter id="shadow10084319" x="180.57" y="170.77" width="124.88" height="124.88" filterUnits="userSpaceOnUse" primitiveUnits="userSpaceOnUse"><feFlood></feFlood><feComposite in2="SourceAlpha" operator="in"></feComposite><feGaussianBlur stdDeviation="1"></feGaussianBlur><feOffset dx="1" dy="1" result="afterOffset"></feOffset><feFlood flood-color="#000000" flood-opacity="0.5"></feFlood><feComposite in2="afterOffset" operator="in"></feComposite><feMorphology operator="dilate" radius="1"></feMorphology><feComposite in2="SourceAlpha" operator="out"></feComposite></filter><path d="M295.45 232.71C295.45 261.93 271.73 285.65 242.51 285.65C213.29 285.65 189.57 261.93 189.57 232.71C189.57 203.49 213.29 179.77 242.51 179.77C271.73 179.77 295.45 203.49 295.45 232.71Z" id="agVijGz6Z" fill="white" fill-opacity="1" filter="url(#shadow10084319)"></path></g><use xlink:href="#b1loIsq7kf" opacity="1" fill="url(#gradientbFq638N0L)"></use></g><g><g><use xlink:href="#bS62lf5g" opacity="1" fill-opacity="0" stroke="#39b0ed" stroke-width="2" stroke-opacity="1"></use></g></g><g><g><use xlink:href="#a3zqpfKvtF" opacity="1" fill-opacity="0" stroke="#39b0ed" stroke-width="2" stroke-opacity="1"></use></g></g><g><g><use xlink:href="#d9iPuwvAW" opacity="1" fill-opacity="0" stroke="#39b0ed" stroke-width="2" stroke-opacity="1"></use></g></g><g><g><use xlink:href="#aVDCvYt2m" opacity="1" fill-opacity="0" stroke="#39b0ed" stroke-width="2" stroke-opacity="1"></use></g></g><g><g><use xlink:href="#f9qKoBbOb" opacity="1" fill-opacity="0" stroke="#39b0ed" stroke-width="2" stroke-opacity="1"></use></g></g><g><g><use xlink:href="#b1ouF4LjO8" opacity="1" fill-opacity="0" stroke="#39b0ed" stroke-width="2" stroke-opacity="1"></use></g></g></g></svg>