<?xml version="1.0" encoding="UTF-8" standalone="no"?>
<!DOCTYPE svg PUBLIC "-//W3C//DTD SVG 1.1//EN" "http://www.w3.org/Graphics/SVG/1.1/DTD/svg11.dtd">
<svg version="1.1" xmlns="http://www.w3.org/2000/svg" xmlns:xlink="http://www.w3.org/1999/xlink" preserveAspectRatio="xMidYMid meet" viewBox="51.27920810423166 184.20960344467258 109.87782703398625 109.87782703398639" width="105.88" height="105.88"><defs><path d="M158.16 238.15C158.16 267.37 134.44 291.09 105.22 291.09C76 291.09 52.28 267.37 52.28 238.15C52.28 208.93 76 185.21 105.22 185.21C134.44 185.21 158.16 208.93 158.16 238.15Z" id="bjbkMGnL"></path><radialGradient id="gradientb1diT6kt4l" gradientUnits="userSpaceOnUse" cx="76.96" cy="156.28" dx="140.41" dy="279.79" r="138.85"><stop style="stop-color: #147de6;stop-opacity: 1" offset="0%"></stop><stop style="stop-color: #0a233e;stop-opacity: 1" offset="100%"></stop></radialGradient><path d="M116.96 239.78C116.96 260.33 111.7 277.01 105.22 277.01C98.74 277.01 93.47 260.33 93.47 239.78C93.47 219.23 98.74 202.55 105.22 202.55C111.7 202.55 116.96 219.23 116.96 239.78Z" id="c1IRYn7UyI"></path><path d="M113.67 249.7C96.32 260.7 79.41 265.18 75.94 259.71C72.47 254.23 83.74 240.86 101.1 229.86C118.46 218.86 135.36 214.38 138.83 219.85C142.3 225.33 131.03 238.71 113.67 249.7Z" id="aMgrimvS8"></path><path d="M98.52 249.43C81.64 237.71 70.94 223.87 74.64 218.55C78.33 213.22 95.04 218.41 111.92 230.13C128.8 241.85 139.5 255.69 135.8 261.01C132.1 266.34 115.4 261.15 98.52 249.43Z" id="afzm2ADhp"></path><path d="M109.89 239.78C109.89 242.36 107.8 244.46 105.22 244.46C102.64 244.46 100.54 242.36 100.54 239.78C100.54 237.2 102.64 235.1 105.22 235.1C107.8 235.1 109.89 237.2 109.89 239.78Z" id="d1XZr8iiZ"></path></defs><g><g><g><filter id="shadow10578272" x="43.28" y="176.21" width="124.88" height="124.88" filterUnits="userSpaceOnUse" primitiveUnits="userSpaceOnUse"><feFlood></feFlood><feComposite in2="SourceAlpha" operator="in"></feComposite><feGaussianBlur stdDeviation="1"></feGaussianBlur><feOffset dx="1" dy="1" result="afterOffset"></feOffset><feFlood flood-color="#000000" flood-opacity="0.5"></feFlood><feComposite in2="afterOffset" operator="in"></feComposite><feMorphology operator="dilate" radius="1"></feMorphology><feComposite in2="SourceAlpha" operator="out"></feComposite></filter><path d="M158.16 238.15C158.16 267.37 134.44 291.09 105.22 291.09C76 291.09 52.28 267.37 52.28 238.15C52.28 208.93 76 185.21 105.22 185.21C134.44 185.21 158.16 208.93 158.16 238.15Z" id="fxwhxHrIS" fill="white" fill-opacity="1" filter="url(#shadow10578272)"></path></g><use xlink:href="#bjbkMGnL" opacity="1" fill="url(#gradientb1diT6kt4l)"></use></g><g><g><use xlink:href="#c1IRYn7UyI" opacity="1" fill-opacity="0" stroke="#39b0ed" stroke-width="2" stroke-opacity="1"></use></g></g><g><g><use xlink:href="#aMgrimvS8" opacity="1" fill-opacity="0" stroke="#39b0ed" stroke-width="2" stroke-opacity="1"></use></g></g><g><g><use xlink:href="#afzm2ADhp" opacity="1" fill-opacity="0" stroke="#39b0ed" stroke-width="2" stroke-opacity="1"></use></g></g><g><use xlink:href="#d1XZr8iiZ" opacity="1" fill="#36a9e5" fill-opacity="1"></use></g></g></svg>