<?xml version="1.0" encoding="UTF-8" standalone="no"?>
<!DOCTYPE svg PUBLIC "-//W3C//DTD SVG 1.1//EN" "http://www.w3.org/Graphics/SVG/1.1/DTD/svg11.dtd">
<svg version="1.1" xmlns="http://www.w3.org/2000/svg" xmlns:xlink="http://www.w3.org/1999/xlink" preserveAspectRatio="xMidYMid meet" viewBox="54.815916365897465 313.57445165672925 109.8778270339867 109.87782703398648" width="105.88" height="105.88"><defs><path d="M161.69 367.51C161.69 396.73 137.97 420.45 108.75 420.45C79.54 420.45 55.82 396.73 55.82 367.51C55.82 338.3 79.54 314.57 108.75 314.57C137.97 314.57 161.69 338.3 161.69 367.51Z" id="c1XxKAMVGe"></path><radialGradient id="gradientb7S8JCCau5" gradientUnits="userSpaceOnUse" cx="80.49" cy="285.65" dx="143.94" dy="409.15" r="138.85"><stop style="stop-color: #147de6;stop-opacity: 1" offset="0%"></stop><stop style="stop-color: #0a233e;stop-opacity: 1" offset="100%"></stop></radialGradient><path d="M80.49 363.41L89.6 363.41L89.6 390.39L80.49 390.39L80.49 363.41Z" id="a4UU8NHlcz"></path><path d="M101.95 357.14L111.05 357.14L111.05 390.39L101.95 390.39L101.95 357.14Z" id="e79akBmcfg"></path><path d="M123.85 346.31L132.96 346.31L132.96 390.39L123.85 390.39L123.85 346.31Z" id="a1aTv9CM09"></path></defs><g><g><g><filter id="shadow10356588" x="46.82" y="305.57" width="124.88" height="124.88" filterUnits="userSpaceOnUse" primitiveUnits="userSpaceOnUse"><feFlood></feFlood><feComposite in2="SourceAlpha" operator="in"></feComposite><feGaussianBlur stdDeviation="1"></feGaussianBlur><feOffset dx="1" dy="1" result="afterOffset"></feOffset><feFlood flood-color="#000000" flood-opacity="0.5"></feFlood><feComposite in2="afterOffset" operator="in"></feComposite><feMorphology operator="dilate" radius="1"></feMorphology><feComposite in2="SourceAlpha" operator="out"></feComposite></filter><path d="M161.69 367.51C161.69 396.73 137.97 420.45 108.75 420.45C79.54 420.45 55.82 396.73 55.82 367.51C55.82 338.3 79.54 314.57 108.75 314.57C137.97 314.57 161.69 338.3 161.69 367.51Z" id="euuBcoCar" fill="white" fill-opacity="1" filter="url(#shadow10356588)"></path></g><use xlink:href="#c1XxKAMVGe" opacity="1" fill="url(#gradientb7S8JCCau5)"></use></g><g><g><use xlink:href="#a4UU8NHlcz" opacity="1" fill-opacity="0" stroke="#39b0ed" stroke-width="2" stroke-opacity="1"></use></g></g><g><g><use xlink:href="#e79akBmcfg" opacity="1" fill-opacity="0" stroke="#39b0ed" stroke-width="2" stroke-opacity="1"></use></g></g><g><g><use xlink:href="#a1aTv9CM09" opacity="1" fill-opacity="0" stroke="#39b0ed" stroke-width="2" stroke-opacity="1"></use></g></g></g></svg>