<?xml version="1.0" encoding="UTF-8" standalone="no"?>
<!DOCTYPE svg PUBLIC "-//W3C//DTD SVG 1.1//EN" "http://www.w3.org/Graphics/SVG/1.1/DTD/svg11.dtd">
<svg version="1.1" xmlns="http://www.w3.org/2000/svg" xmlns:xlink="http://www.w3.org/1999/xlink" preserveAspectRatio="xMidYMid meet" viewBox="191.58244018009327 316.88359040310206 109.87782703398642 109.87782703398625" width="105.88" height="105.88"><defs><path d="M298.46 370.82C298.46 400.04 274.74 423.76 245.52 423.76C216.3 423.76 192.58 400.04 192.58 370.82C192.58 341.6 216.3 317.88 245.52 317.88C274.74 317.88 298.46 341.6 298.46 370.82Z" id="f2jsSRyjw"></path><radialGradient id="gradienta2voAJhEMt" gradientUnits="userSpaceOnUse" cx="217.26" cy="288.96" dx="280.71" dy="412.46" r="138.85"><stop style="stop-color: #147de6;stop-opacity: 1" offset="0%"></stop><stop style="stop-color: #0a233e;stop-opacity: 1" offset="100%"></stop></radialGradient><path d="M282.68 370.82C282.68 390.8 266.46 407.02 246.49 407.02C226.51 407.02 210.29 390.8 210.29 370.82C210.29 350.85 226.51 334.63 246.49 334.63C266.46 334.63 282.68 350.85 282.68 370.82Z" id="bzjYCQ4xy"></path><path d="M261.37 370.74C261.37 390.59 254.48 406.7 245.98 406.7C237.49 406.7 230.59 390.59 230.59 370.74C230.59 350.89 237.49 334.78 245.98 334.78C254.48 334.78 261.37 350.89 261.37 370.74Z" id="g1a5QQLOG7"></path><path d="M282.68 370.82L210.29 370.82" id="f4rnCPdBi"></path><path d="M278.41 354.15L214.64 354.15" id="e4HB0ll24B"></path><path d="M280.07 386.08L213.07 386.08" id="c4ue78NCZe"></path></defs><g><g><g><filter id="shadow6175285" x="183.58" y="308.88" width="124.88" height="124.88" filterUnits="userSpaceOnUse" primitiveUnits="userSpaceOnUse"><feFlood></feFlood><feComposite in2="SourceAlpha" operator="in"></feComposite><feGaussianBlur stdDeviation="1"></feGaussianBlur><feOffset dx="1" dy="1" result="afterOffset"></feOffset><feFlood flood-color="#000000" flood-opacity="0.5"></feFlood><feComposite in2="afterOffset" operator="in"></feComposite><feMorphology operator="dilate" radius="1"></feMorphology><feComposite in2="SourceAlpha" operator="out"></feComposite></filter><path d="M298.46 370.82C298.46 400.04 274.74 423.76 245.52 423.76C216.3 423.76 192.58 400.04 192.58 370.82C192.58 341.6 216.3 317.88 245.52 317.88C274.74 317.88 298.46 341.6 298.46 370.82Z" id="a16arAVnB1" fill="white" fill-opacity="1" filter="url(#shadow6175285)"></path></g><use xlink:href="#f2jsSRyjw" opacity="1" fill="url(#gradienta2voAJhEMt)"></use></g><g><g><use xlink:href="#bzjYCQ4xy" opacity="1" fill-opacity="0" stroke="#39b0ed" stroke-width="2" stroke-opacity="1"></use></g></g><g><g><use xlink:href="#g1a5QQLOG7" opacity="1" fill-opacity="0" stroke="#39b0ed" stroke-width="2" stroke-opacity="1"></use></g></g><g><g><use xlink:href="#f4rnCPdBi" opacity="1" fill-opacity="0" stroke="#39b0ed" stroke-width="2" stroke-opacity="1"></use></g></g><g><g><use xlink:href="#e4HB0ll24B" opacity="1" fill-opacity="0" stroke="#39b0ed" stroke-width="2" stroke-opacity="1"></use></g></g><g><g><use xlink:href="#c4ue78NCZe" opacity="1" fill-opacity="0" stroke="#39b0ed" stroke-width="2" stroke-opacity="1"></use></g></g></g></svg>