<?xml version="1.0" encoding="UTF-8" standalone="no"?>
<!DOCTYPE svg PUBLIC "-//W3C//DTD SVG 1.1//EN" "http://www.w3.org/Graphics/SVG/1.1/DTD/svg11.dtd">
<svg version="1.1" xmlns="http://www.w3.org/2000/svg" xmlns:xlink="http://www.w3.org/1999/xlink" preserveAspectRatio="xMidYMid meet" viewBox="365.1538110964175 166.66355891902506 265.5363983434073 190.92761782047577" width="258.92" height="164.93"><defs><path d="M590.07 187.66C593 187.66 595.37 190.04 595.37 192.97C595.37 218.21 595.37 288.62 595.37 313.86C595.37 316.79 593 319.16 590.07 319.16C552.34 319.16 444.46 319.16 406.74 319.16C403.81 319.16 401.43 316.79 401.43 313.86C401.43 288.62 401.43 218.21 401.43 192.97C401.43 190.04 403.81 187.66 406.74 187.66C444.46 187.66 552.34 187.66 590.07 187.66Z" id="a1sVERFCjH"></path><path d="M406.54 193.98L589.71 193.09L590.27 307.92L407.1 308.81L406.54 193.98Z" id="bjjOnfTOa"></path><radialGradient id="gradientbhOLUU5t5" gradientUnits="userSpaceOnUse" cx="456.86" cy="137.12" dx="527.36" dy="258.21" r="140.12"><stop style="stop-color: #147de6;stop-opacity: 1" offset="0%"></stop><stop style="stop-color: #0a233e;stop-opacity: 1" offset="100%"></stop></radialGradient><path d="M400.62 312.98L595.45 312.98L625.69 348.48L366.77 347.98L400.62 312.98Z" id="a1ojM0PZ8l"></path><path d="M625.69 348.48C625.69 348.48 625.69 348.48 625.69 348.48C624.44 351 621.87 352.6 619.05 352.59C618.67 352.59 617.7 352.59 616.16 352.58C487.6 352.27 407.26 352.07 375.12 351.99C372.38 351.98 369.79 350.68 368.15 348.48C368.15 348.48 369.1 349.75 368.69 349.19C368.47 348.9 368.68 348.48 369.05 348.48C403.27 348.48 488.81 348.48 625.69 348.48Z" id="gYTg3bpaZ"></path><path d="M450.88 342.44L546.13 342.44L540.13 331.61L457.38 331.61L450.88 342.44Z" id="aoY1TrcbS"></path><path d="M478.55 224.51L482.35 218.91L488.75 221.71L486.35 228.11L489.75 230.3L495.14 225.71L499.34 230.3L495.14 235.9L497.74 239.1L504.34 238.3L506.33 243.9L500.74 247.09L501.25 251.69L507.76 252.69L507.76 259.68L500.74 259.68L499.34 264.08L504.94 267.88L501.85 274.08L496.14 270.28L492.94 274.08L496.14 279.87L490.95 283.87L486.35 278.47L482.35 280.87L483.15 287.67L477.15 289.57L474.76 283.07L469.76 283.07L469.16 289.07L462.56 288.47L462.56 281.47L458.37 279.87L454.17 284.87L447.97 280.87L451.69 275.47L449.57 272.48L443.18 275.47L439.18 268.88L444.58 264.88L443.18 262.08L436.18 261.68L435.6 255.29L442.11 254.49L442.11 249.29L436.18 246.09L438.58 239.9L444.58 241.3L446.97 237.3L442.58 231.7L446.97 227.51L451.69 231.7L455.77 228.91L453.57 221.71L458.97 218.91L462.56 225.11L466.16 223.92L467.16 217.42L474.16 217.42L474.76 223.92L478.55 224.51ZM469.08 233.67L467.81 233.88L466.57 234.16L465.37 234.52L464.19 234.96L463.05 235.46L461.95 236.03L460.9 236.67L459.88 237.36L458.91 238.12L457.99 238.93L457.12 239.8L456.31 240.72L455.55 241.69L454.85 242.71L454.22 243.77L453.65 244.87L453.15 246L452.71 247.18L452.35 248.38L452.07 249.62L451.86 250.89L451.74 252.18L451.69 253.49L451.74 254.81L451.86 256.1L452.07 257.36L452.35 258.6L452.71 259.81L453.15 260.98L453.65 262.12L454.22 263.22L454.85 264.28L455.55 265.29L456.31 266.26L457.12 267.18L457.99 268.05L458.91 268.86L459.88 269.62L460.9 270.32L461.95 270.95L463.05 271.52L464.19 272.03L465.37 272.46L466.57 272.82L467.81 273.1L469.08 273.31L470.37 273.44L471.68 273.48L472.99 273.44L474.28 273.31L475.55 273.1L476.79 272.82L478 272.46L479.17 272.03L480.31 271.52L481.41 270.95L482.47 270.32L483.48 269.62L484.45 268.86L485.37 268.05L486.24 267.18L487.05 266.26L487.81 265.29L488.51 264.28L489.14 263.22L489.71 262.12L490.21 260.98L490.65 259.81L491.01 258.6L491.29 257.36L491.5 256.1L491.62 254.81L491.67 253.49L491.62 252.18L491.5 250.89L491.29 249.62L491.01 248.38L490.65 247.18L490.21 246L489.71 244.87L489.14 243.77L488.51 242.71L487.81 241.69L487.05 240.72L486.24 239.8L485.37 238.93L484.45 238.12L483.48 237.36L482.47 236.67L481.41 236.03L480.31 235.46L479.17 234.96L478 234.52L476.79 234.16L475.55 233.88L474.28 233.67L472.99 233.55L471.68 233.51L470.37 233.55L469.08 233.67Z" id="i11fwlAK5Z"></path><radialGradient id="gradientbslSLs5DV" gradientUnits="userSpaceOnUse" cx="457.61" cy="217.42" dx="493.67" dy="293.69" r="84.37"><stop style="stop-color: #38bfff;stop-opacity: 1" offset="0%"></stop><stop style="stop-color: #054ec4;stop-opacity: 1" offset="100%"></stop></radialGradient><path d="M541.94 249.83L546.18 251.69L544.59 255.92L546.84 257.38L550.42 254.34L553.2 257.38L550.42 261.09L552.14 263.21L556.51 262.68L557.84 266.39L554.13 268.51L554.47 271.56L558.78 272.22L558.78 276.86L554.13 276.86L553.2 279.77L556.91 282.29L554.87 286.39L551.08 283.88L548.96 286.39L551.08 290.24L547.64 292.89L544.59 289.31L541.94 290.9L542.47 295.4L538.5 296.66L536.91 292.35L533.59 292.35L533.2 296.33L528.82 295.93L528.82 291.3L526.04 290.24L523.26 293.55L519.15 290.9L521.62 287.32L520.21 285.33L515.97 287.32L513.33 282.95L516.9 280.3L515.97 278.45L511.34 278.18L510.96 273.94L515.27 273.41L515.27 269.97L511.34 267.85L512.93 263.74L516.9 264.67L518.49 262.02L515.58 258.31L518.49 255.53L521.62 258.31L524.32 256.45L522.86 251.69L526.44 249.83L528.82 253.94L531.21 253.15L531.87 248.84L536.51 248.84L536.91 253.15L539.42 253.54L539.42 253.54L541.94 249.83ZM530.93 260.1L529.71 260.55L528.56 261.1L527.46 261.77L526.44 262.53L525.5 263.39L524.65 264.33L523.88 265.35L523.22 266.44L522.66 267.6L522.22 268.81L521.89 270.08L521.69 271.4L521.62 272.75L521.69 274.11L521.89 275.42L522.22 276.69L522.66 277.91L523.22 279.06L523.88 280.16L524.65 281.18L525.5 282.12L526.44 282.97L527.46 283.74L528.56 284.4L529.71 284.96L530.93 285.4L532.2 285.73L533.51 285.93L534.87 286L536.22 285.93L537.54 285.73L538.81 285.4L540.02 284.96L541.18 284.4L542.27 283.74L543.29 282.97L544.23 282.12L545.09 281.18L545.85 280.16L546.52 279.06L547.07 277.91L547.52 276.69L547.85 275.42L548.05 274.11L548.12 272.75L548.05 271.4L547.85 270.08L547.52 268.81L547.07 267.6L546.52 266.44L545.85 265.35L545.09 264.33L544.23 263.39L543.29 262.53L542.27 261.77L541.18 261.1L540.02 260.55L538.81 260.1L537.54 259.77L536.22 259.57L534.87 259.5L533.51 259.57L532.2 259.77L532.2 259.77L530.93 260.1Z" id="a3QWpHldIN"></path><radialGradient id="gradientdBBsodUQ" gradientUnits="userSpaceOnUse" cx="525.54" cy="248.84" dx="549.44" dy="299.4" r="55.92"><stop style="stop-color: #38bfff;stop-opacity: 1" offset="0%"></stop><stop style="stop-color: #054ec4;stop-opacity: 1" offset="100%"></stop></radialGradient><path d="M526.63 213.76L528.39 211.17L531.35 212.47L530.24 215.43L531.81 216.44L534.31 214.32L536.25 216.44L534.31 219.03L535.51 220.51L538.57 220.14L539.49 222.73L536.9 224.21L537.14 226.34L540.15 226.8L540.15 230.04L536.9 230.04L536.25 232.08L538.84 233.84L537.42 236.7L534.77 234.95L533.29 236.7L534.77 239.39L532.37 241.24L530.24 238.74L528.39 239.85L528.76 242.99L525.99 243.87L524.88 240.86L522.56 240.86L522.29 243.64L519.23 243.36L519.23 240.13L517.29 239.39L515.35 241.7L512.48 239.85L514.2 237.35L513.22 235.96L510.26 237.35L508.41 234.3L510.91 232.45L510.26 231.15L507.02 230.97L506.76 228.01L509.77 227.64L509.77 225.23L507.02 223.75L508.13 220.88L510.91 221.53L512.02 219.68L509.98 217.09L512.02 215.15L514.2 217.09L516.09 215.8L515.07 212.47L517.57 211.17L519.23 214.04L520.9 213.49L521.36 210.48L524.6 210.48L524.88 213.49L526.63 213.76ZM520.78 218.32L519.56 218.79L518.42 219.42L517.39 220.2L516.47 221.11L515.69 222.14L515.06 223.28L514.59 224.51L514.3 225.81L514.2 227.18L514.3 228.54L514.59 229.85L515.06 231.07L515.69 232.21L516.47 233.24L517.39 234.16L518.42 234.94L519.56 235.57L520.78 236.03L522.09 236.33L523.45 236.43L524.82 236.33L526.12 236.03L527.35 235.57L528.49 234.94L529.52 234.16L530.43 233.24L531.21 232.21L531.84 231.07L532.31 229.85L532.6 228.54L532.7 227.18L532.6 225.81L532.31 224.51L531.84 223.28L531.21 222.14L530.43 221.11L529.52 220.2L528.49 219.42L527.35 218.79L526.12 218.32L524.82 218.03L523.45 217.93L522.09 218.03L520.78 218.32Z" id="anukJohF3"></path><radialGradient id="gradientdrOMld676" gradientUnits="userSpaceOnUse" cx="516.94" cy="210.48" dx="533.63" dy="245.78" r="39.05"><stop style="stop-color: #38bfff;stop-opacity: 1" offset="0%"></stop><stop style="stop-color: #054ec4;stop-opacity: 1" offset="100%"></stop></radialGradient></defs><g><g><use xlink:href="#a1sVERFCjH" opacity="0.97" fill="#adb6bf" fill-opacity="1"></use><g><use xlink:href="#a1sVERFCjH" opacity="0.97" fill-opacity="0" stroke="#6c757d" stroke-width="0.25" stroke-opacity="1"></use></g></g><g><use xlink:href="#bjjOnfTOa" opacity="0.99" fill="url(#gradientbhOLUU5t5)"></use><g><use xlink:href="#bjjOnfTOa" opacity="0.99" fill-opacity="0" stroke="#ced4da" stroke-width="0.25" stroke-opacity="1"></use></g></g><g><use xlink:href="#a1ojM0PZ8l" opacity="0.97" fill="#dce2e6" fill-opacity="1"></use><g><use xlink:href="#a1ojM0PZ8l" opacity="0.97" fill-opacity="0" stroke="#adb5bd" stroke-width="0.25" stroke-opacity="1"></use></g></g><g><g><filter id="shadow7262406" x="356.15" y="336.48" width="282.54" height="29.11" filterUnits="userSpaceOnUse" primitiveUnits="userSpaceOnUse"><feFlood></feFlood><feComposite in2="SourceAlpha" operator="in"></feComposite><feGaussianBlur stdDeviation="1.41"></feGaussianBlur><feOffset dx="1" dy="1" result="afterOffset"></feOffset><feFlood flood-color="#181c1d" flood-opacity="0.5"></feFlood><feComposite in2="afterOffset" operator="in"></feComposite><feMorphology operator="dilate" radius="2"></feMorphology><feComposite in2="SourceAlpha" operator="out"></feComposite></filter><path d="M625.69 348.48C625.69 348.48 625.69 348.48 625.69 348.48C624.44 351 621.87 352.6 619.05 352.59C618.67 352.59 617.7 352.59 616.16 352.58C487.6 352.27 407.26 352.07 375.12 351.99C372.38 351.98 369.79 350.68 368.15 348.48C368.15 348.48 369.1 349.75 368.69 349.19C368.47 348.9 368.68 348.48 369.05 348.48C403.27 348.48 488.81 348.48 625.69 348.48Z" id="a7Yg3Kc89A" fill="white" fill-opacity="1" filter="url(#shadow7262406)"></path></g><use xlink:href="#gYTg3bpaZ" opacity="0.97" fill="#778392" fill-opacity="1"></use><g><use xlink:href="#gYTg3bpaZ" opacity="0.97" fill-opacity="0" stroke="#adb5bd" stroke-width="0.25" stroke-opacity="1"></use></g></g><g><use xlink:href="#aoY1TrcbS" opacity="0.97" fill="#acb7c2" fill-opacity="1"></use><g><use xlink:href="#aoY1TrcbS" opacity="0.97" fill-opacity="0" stroke="#6c757d" stroke-width="0.25" stroke-opacity="1"></use></g></g><g><use xlink:href="#i11fwlAK5Z" opacity="1" fill="url(#gradientbslSLs5DV)"></use><g><use xlink:href="#i11fwlAK5Z" opacity="1" fill-opacity="0" stroke="#279aeb" stroke-width="0.25" stroke-opacity="1"></use></g></g><g><use xlink:href="#a3QWpHldIN" opacity="1" fill="url(#gradientdBBsodUQ)"></use><g><use xlink:href="#a3QWpHldIN" opacity="1" fill-opacity="0" stroke="#279aeb" stroke-width="0.25" stroke-opacity="1"></use></g></g><g><use xlink:href="#anukJohF3" opacity="1" fill="url(#gradientdrOMld676)"></use><g><use xlink:href="#anukJohF3" opacity="1" fill-opacity="0" stroke="#279aeb" stroke-width="0.25" stroke-opacity="1"></use></g></g></g></svg>