<?xml version="1.0" encoding="UTF-8" standalone="no"?>
<!DOCTYPE svg PUBLIC "-//W3C//DTD SVG 1.1//EN" "http://www.w3.org/Graphics/SVG/1.1/DTD/svg11.dtd">
<svg version="1.1" xmlns="http://www.w3.org/2000/svg" xmlns:xlink="http://www.w3.org/1999/xlink" preserveAspectRatio="xMidYMid meet" viewBox="333.08743677536165 308.44585110429756 127.17484220514427 89.91934809021592" width="123.17" height="85.92"><defs><path d="M426.12 312.73L427.87 310.14L430.83 311.43L429.72 314.39L431.3 315.41L433.79 313.28L435.74 315.41L433.79 318L435 319.48L438.05 319.11L438.98 321.7L436.39 323.18L436.62 325.31L439.63 325.77L439.63 329.01L436.39 329.01L435.74 331.04L438.33 332.8L436.9 335.67L434.26 333.91L432.78 335.67L434.26 338.35L431.85 340.2L429.72 337.7L427.87 338.81L428.24 341.96L425.47 342.84L424.36 339.83L422.05 339.83L421.77 342.61L418.72 342.33L418.72 339.09L416.77 338.35L414.83 340.66L411.96 338.81L413.69 336.32L412.7 334.93L409.74 336.32L407.89 333.26L410.39 331.41L409.74 330.12L406.51 329.93L406.24 326.97L409.25 326.6L409.25 324.2L406.51 322.72L407.62 319.85L410.39 320.5L411.5 318.65L409.47 316.06L411.5 314.12L413.69 316.06L415.57 314.76L414.55 311.43L417.05 310.14L418.72 313.01L420.38 312.46L420.84 309.45L424.08 309.45L424.36 312.46L426.12 312.73ZM420.27 317.28L419.04 317.75L417.9 318.38L416.87 319.16L415.96 320.08L415.18 321.11L414.55 322.24L414.08 323.47L413.79 324.78L413.69 326.14L413.79 327.51L414.08 328.81L414.55 330.04L415.18 331.18L415.96 332.21L416.87 333.12L417.9 333.9L419.04 334.53L420.27 335L421.57 335.29L422.94 335.39L424.3 335.29L425.61 335L426.83 334.53L427.97 333.9L429 333.12L429.92 332.21L430.7 331.18L431.33 330.04L431.79 328.81L432.09 327.51L432.19 326.14L432.09 324.78L431.79 323.47L431.33 322.24L430.7 321.11L429.92 320.08L429 319.16L427.97 318.38L426.83 317.75L425.61 317.28L424.3 316.99L422.94 316.89L421.57 316.99L420.27 317.28Z" id="a72OXAhfB"></path><radialGradient id="gradientk1tGL4tG5Y" gradientUnits="userSpaceOnUse" cx="416.42" cy="309.45" dx="431.72" dy="340.81" r="34.9"><stop style="stop-color: #1160b0;stop-opacity: 1" offset="0%"></stop><stop style="stop-color: #0a233e;stop-opacity: 1" offset="100%"></stop></radialGradient><path d="M377.04 323.21L380.83 317.61L387.23 320.41L384.83 326.81L388.23 329.01L393.63 324.41L397.82 329.01L393.63 334.6L396.22 337.8L402.82 337L404.82 342.6L399.22 345.79L399.74 350.39L406.24 351.39L406.24 358.39L399.22 358.39L397.82 362.78L403.42 366.58L400.34 372.78L394.62 368.98L391.43 372.78L394.62 378.57L389.43 382.57L384.83 377.17L380.83 379.57L381.63 386.37L375.64 388.27L373.24 381.77L368.24 381.77L367.64 387.77L361.05 387.17L361.05 380.17L356.85 378.57L352.65 383.57L346.46 379.57L350.18 374.18L348.06 371.18L341.66 374.18L337.66 367.58L343.06 363.58L341.66 360.78L334.66 360.39L334.09 353.99L340.59 353.19L340.59 347.99L334.66 344.8L337.06 338.6L343.06 340L345.46 336L341.06 330.41L345.46 326.21L350.18 330.41L354.25 327.61L352.05 320.41L357.45 317.61L361.05 323.81L364.64 322.62L365.64 316.12L372.64 316.12L373.24 322.62L377.04 323.21ZM367.56 332.38L366.29 332.58L365.06 332.87L363.85 333.23L362.67 333.66L361.54 334.16L360.44 334.73L359.38 335.37L358.36 336.07L357.39 336.82L356.47 337.64L355.61 338.5L354.79 339.42L354.04 340.39L353.34 341.41L352.7 342.47L352.13 343.57L351.63 344.71L351.2 345.88L350.84 347.09L350.55 348.32L350.35 349.59L350.22 350.88L350.18 352.19L350.22 353.51L350.35 354.8L350.55 356.06L350.84 357.3L351.2 358.51L351.63 359.68L352.13 360.82L352.7 361.92L353.34 362.98L354.04 363.99L354.79 364.96L355.61 365.88L356.47 366.75L357.39 367.57L358.36 368.32L359.38 369.02L360.44 369.65L361.54 370.23L362.67 370.73L363.85 371.16L365.06 371.52L366.29 371.81L367.56 372.01L368.85 372.14L370.16 372.18L371.48 372.14L372.77 372.01L374.03 371.81L375.27 371.52L376.48 371.16L377.65 370.73L378.79 370.23L379.89 369.65L380.95 369.02L381.96 368.32L382.93 367.57L383.85 366.75L384.72 365.88L385.53 364.96L386.29 363.99L386.99 362.98L387.62 361.92L388.19 360.82L388.7 359.68L389.13 358.51L389.49 357.3L389.77 356.06L389.98 354.8L390.11 353.51L390.15 352.19L390.11 350.88L389.98 349.59L389.77 348.32L389.49 347.09L389.13 345.88L388.7 344.71L388.19 343.57L387.62 342.47L386.99 341.41L386.29 340.39L385.53 339.42L384.72 338.5L383.85 337.64L382.93 336.82L381.96 336.07L380.95 335.37L379.89 334.73L378.79 334.16L377.65 333.66L376.48 333.23L375.27 332.87L374.03 332.58L372.77 332.38L371.48 332.25L370.16 332.21L368.85 332.25L367.56 332.38Z" id="a1TT4J9A3"></path><radialGradient id="gradienta3QE9wRP74" gradientUnits="userSpaceOnUse" cx="356.09" cy="316.12" dx="389.15" dy="383.89" r="75.41"><stop style="stop-color: #1160b0;stop-opacity: 1" offset="0%"></stop><stop style="stop-color: #0a233e;stop-opacity: 1" offset="100%"></stop></radialGradient><path d="M440.42 348.53L444.66 350.39L443.07 354.63L445.32 356.08L448.9 353.04L451.68 356.08L448.9 359.79L450.62 361.91L455 361.38L456.32 365.09L452.61 367.21L452.95 370.26L457.26 370.92L457.26 375.56L452.61 375.56L451.68 378.47L455.39 380.99L453.35 385.1L449.56 382.58L447.44 385.1L449.56 388.94L446.12 391.59L443.07 388.01L440.42 389.6L440.95 394.1L436.98 395.37L435.39 391.06L432.08 391.06L431.68 395.03L427.31 394.63L427.31 390L424.53 388.94L421.74 392.25L417.64 389.6L420.1 386.02L418.7 384.04L414.46 386.02L411.81 381.65L415.38 379L414.46 377.15L409.82 376.88L409.44 372.64L413.75 372.11L413.75 368.67L409.82 366.55L411.41 362.44L415.38 363.37L416.97 360.72L414.06 357.01L416.97 354.23L420.1 357.01L422.8 355.16L421.35 350.39L424.92 348.53L427.31 352.64L429.69 351.85L430.35 347.54L434.99 347.54L435.39 351.85L437.91 352.24L437.91 352.24L440.42 348.53ZM429.41 358.8L428.2 359.25L427.04 359.81L425.95 360.47L424.93 361.23L423.98 362.09L423.13 363.03L422.37 364.05L421.7 365.14L421.14 366.3L420.7 367.52L420.37 368.78L420.17 370.1L420.1 371.45L420.17 372.81L420.37 374.12L420.7 375.39L421.14 376.61L421.7 377.77L422.37 378.86L423.13 379.88L423.98 380.82L424.93 381.67L425.95 382.44L427.04 383.1L428.2 383.66L429.41 384.1L430.68 384.43L432 384.63L433.35 384.7L434.7 384.63L436.02 384.43L437.29 384.1L438.5 383.66L439.66 383.1L440.76 382.44L441.77 381.67L442.72 380.82L443.57 379.88L444.33 378.86L445 377.77L445.56 376.61L446 375.39L446.33 374.12L446.53 372.81L446.6 371.45L446.53 370.1L446.33 368.78L446 367.52L445.56 366.3L445 365.14L444.33 364.05L443.57 363.03L442.72 362.09L441.77 361.23L440.76 360.47L439.66 359.81L438.5 359.25L437.29 358.8L436.02 358.47L434.7 358.27L433.35 358.21L432 358.27L430.68 358.47L430.68 358.47L429.41 358.8Z" id="eUnPsJezI"></path><radialGradient id="gradientbzX9TN9ct" gradientUnits="userSpaceOnUse" cx="424.02" cy="347.54" dx="445.93" dy="392.46" r="49.98"><stop style="stop-color: #1160b0;stop-opacity: 1" offset="0%"></stop><stop style="stop-color: #0a233e;stop-opacity: 1" offset="100%"></stop></radialGradient><path d="M390.16 352.19C390.16 363.23 381.2 372.19 370.16 372.19C359.12 372.19 350.16 363.23 350.16 352.19C350.16 341.16 359.12 332.19 370.16 332.19C381.2 332.19 390.16 341.16 390.16 352.19Z" id="m2jaVCCDYW"></path><radialGradient id="gradientd2ScSqryCf" gradientUnits="userSpaceOnUse" cx="354.72" cy="335.46" dx="378.92" dy="370.63" r="42.68"><stop style="stop-color: #dee2e6;stop-opacity: 1" offset="0%"></stop><stop style="stop-color: #343a40;stop-opacity: 1" offset="100%"></stop></radialGradient><path d="M383.16 352.19C383.16 359.37 377.34 365.19 370.16 365.19C362.99 365.19 357.16 359.37 357.16 352.19C357.16 345.02 362.99 339.19 370.16 339.19C377.34 339.19 383.16 345.02 383.16 352.19Z" id="cC3wWcDLe"></path><radialGradient id="gradientnyG2IBEHP" gradientUnits="userSpaceOnUse" cx="362.28" cy="342.17" dx="380.57" dy="365.19" r="29.4"><stop style="stop-color: #147de6;stop-opacity: 1" offset="0%"></stop><stop style="stop-color: #0a233e;stop-opacity: 1" offset="100%"></stop></radialGradient><path d="M446.96 371.51C446.96 378.99 440.89 385.07 433.41 385.07C425.92 385.07 419.85 378.99 419.85 371.51C419.85 364.03 425.92 357.95 433.41 357.95C440.89 357.95 446.96 364.03 446.96 371.51Z" id="e1tx3W39O5"></path><radialGradient id="gradientf47eGciCH" gradientUnits="userSpaceOnUse" cx="422.94" cy="360.17" dx="439.34" dy="384" r="28.93"><stop style="stop-color: #dee2e6;stop-opacity: 1" offset="0%"></stop><stop style="stop-color: #343a40;stop-opacity: 1" offset="100%"></stop></radialGradient><path d="M442.35 371.45C442.35 376.42 438.32 380.45 433.35 380.45C428.38 380.45 424.35 376.42 424.35 371.45C424.35 366.49 428.38 362.45 433.35 362.45C438.32 362.45 442.35 366.49 442.35 371.45Z" id="b1BTh8IYc7"></path><radialGradient id="gradienta3Pd04t2U" gradientUnits="userSpaceOnUse" cx="427.89" cy="364.51" dx="440.55" dy="380.45" r="20.35"><stop style="stop-color: #147de6;stop-opacity: 1" offset="0%"></stop><stop style="stop-color: #0a233e;stop-opacity: 1" offset="100%"></stop></radialGradient><path d="M432.19 326.14C432.19 331.25 428.04 335.39 422.94 335.39C417.83 335.39 413.69 331.25 413.69 326.14C413.69 321.04 417.83 316.89 422.94 316.89C428.04 316.89 432.19 321.04 432.19 326.14Z" id="a7SIXWp6Ch"></path><radialGradient id="gradientb2A9PGfbn6" gradientUnits="userSpaceOnUse" cx="415.8" cy="318.41" dx="426.99" dy="334.67" r="19.74"><stop style="stop-color: #dee2e6;stop-opacity: 1" offset="0%"></stop><stop style="stop-color: #343a40;stop-opacity: 1" offset="100%"></stop></radialGradient><path d="M429.08 326.05C429.08 329.44 426.33 332.19 422.94 332.19C419.55 332.19 416.8 329.44 416.8 326.05C416.8 322.66 419.55 319.91 422.94 319.91C426.33 319.91 429.08 322.66 429.08 326.05Z" id="dt1x5dpJ9"></path><radialGradient id="gradientb183ab2Hro" gradientUnits="userSpaceOnUse" cx="419.21" cy="321.32" dx="427.85" dy="332.19" r="13.89"><stop style="stop-color: #147de6;stop-opacity: 1" offset="0%"></stop><stop style="stop-color: #0a233e;stop-opacity: 1" offset="100%"></stop></radialGradient></defs><g><g><use xlink:href="#a72OXAhfB" opacity="1" fill="url(#gradientk1tGL4tG5Y)"></use><g><use xlink:href="#a72OXAhfB" opacity="1" fill-opacity="0" stroke="#0a233e" stroke-width="0.25" stroke-opacity="1"></use></g></g><g><use xlink:href="#a1TT4J9A3" opacity="1" fill="url(#gradienta3QE9wRP74)"></use><g><use xlink:href="#a1TT4J9A3" opacity="1" fill-opacity="0" stroke="#0a233e" stroke-width="0.25" stroke-opacity="1"></use></g></g><g><use xlink:href="#eUnPsJezI" opacity="1" fill="url(#gradientbzX9TN9ct)"></use><g><use xlink:href="#eUnPsJezI" opacity="1" fill-opacity="0" stroke="#0a233e" stroke-width="0.25" stroke-opacity="1"></use></g></g><g><use xlink:href="#m2jaVCCDYW" opacity="1" fill="url(#gradientd2ScSqryCf)"></use></g><g><use xlink:href="#cC3wWcDLe" opacity="1" fill="url(#gradientnyG2IBEHP)"></use></g><g><use xlink:href="#e1tx3W39O5" opacity="1" fill="url(#gradientf47eGciCH)"></use></g><g><use xlink:href="#b1BTh8IYc7" opacity="1" fill="url(#gradienta3Pd04t2U)"></use></g><g><use xlink:href="#a7SIXWp6Ch" opacity="1" fill="url(#gradientb2A9PGfbn6)"></use></g><g><use xlink:href="#dt1x5dpJ9" opacity="1" fill="url(#gradientb183ab2Hro)"></use></g></g></svg>