<?xml version="1.0" encoding="UTF-8" standalone="no"?>
<!DOCTYPE svg PUBLIC "-//W3C//DTD SVG 1.1//EN" "http://www.w3.org/Graphics/SVG/1.1/DTD/svg11.dtd">
<svg version="1.1" xmlns="http://www.w3.org/2000/svg" xmlns:xlink="http://www.w3.org/1999/xlink" preserveAspectRatio="xMidYMid meet" viewBox="510.9601030995763 299.15768047998193 127.17484220514422 89.91934809021592" width="123.17" height="85.92"><defs><path d="M603.99 303.44L605.75 300.85L608.71 302.15L607.6 305.11L609.17 306.12L611.67 304L613.61 306.12L611.67 308.71L612.87 310.19L615.92 309.82L616.85 312.41L614.26 313.89L614.5 316.02L617.51 316.48L617.51 319.72L614.26 319.72L613.61 321.76L616.2 323.51L614.77 326.38L612.13 324.62L610.65 326.38L612.13 329.06L609.73 330.91L607.6 328.42L605.75 329.53L606.12 332.67L603.34 333.55L602.23 330.54L599.92 330.54L599.64 333.32L596.59 333.04L596.59 329.8L594.65 329.06L592.7 331.38L589.84 329.53L591.56 327.03L590.58 325.64L587.62 327.03L585.77 323.98L588.26 322.13L587.62 320.83L584.38 320.65L584.11 317.69L587.12 317.32L587.12 314.91L584.38 313.43L585.49 310.56L588.26 311.21L589.37 309.36L587.34 306.77L589.37 304.83L591.56 306.77L593.44 305.48L592.43 302.15L594.92 300.85L596.59 303.72L598.25 303.17L598.72 300.16L601.95 300.16L602.23 303.17L603.99 303.44ZM598.14 308L596.91 308.46L595.77 309.1L594.74 309.87L593.83 310.79L593.05 311.82L592.42 312.96L591.95 314.18L591.66 315.49L591.56 316.85L591.66 318.22L591.95 319.53L592.42 320.75L593.05 321.89L593.83 322.92L594.74 323.83L595.77 324.61L596.91 325.24L598.14 325.71L599.44 326L600.81 326.11L602.17 326L603.48 325.71L604.71 325.24L605.84 324.61L606.88 323.83L607.79 322.92L608.57 321.89L609.2 320.75L609.67 319.53L609.96 318.22L610.06 316.85L609.96 315.49L609.67 314.18L609.2 312.96L608.57 311.82L607.79 310.79L606.88 309.87L605.84 309.1L604.71 308.46L603.48 308L602.17 307.7L600.81 307.6L599.44 307.7L598.14 308Z" id="aXNw5ipqf"></path><radialGradient id="gradienta2jIyYimQf" gradientUnits="userSpaceOnUse" cx="594.29" cy="300.16" dx="609.6" dy="331.53" r="34.9"><stop style="stop-color: #1060b0;stop-opacity: 1" offset="0%"></stop><stop style="stop-color: #0a233e;stop-opacity: 1" offset="100%"></stop></radialGradient><path d="M554.91 313.92L558.71 308.33L565.1 311.12L562.7 317.52L566.1 319.72L571.5 315.12L575.69 319.72L571.5 325.31L574.1 328.51L580.69 327.71L582.69 333.31L577.09 336.51L577.61 341.1L584.11 342.1L584.11 349.1L577.09 349.1L575.69 353.5L581.29 357.29L578.21 363.49L572.5 359.69L569.3 363.49L572.5 369.28L567.3 373.28L562.7 367.89L558.71 370.28L559.51 377.08L553.51 378.98L551.11 372.48L546.11 372.48L545.52 378.48L538.92 377.88L538.92 370.88L534.72 369.28L530.53 374.28L524.33 370.28L528.05 364.89L525.93 361.89L519.53 364.89L515.54 358.29L520.93 354.29L519.53 351.5L512.54 351.1L511.96 344.7L518.46 343.9L518.46 338.71L512.54 335.51L514.94 329.31L520.93 330.71L523.33 326.71L518.93 321.12L523.33 316.92L528.05 321.12L532.12 318.32L529.93 311.12L535.32 308.33L538.92 314.52L542.52 313.33L543.52 306.83L550.51 306.83L551.11 313.33L554.91 313.92ZM545.43 323.09L544.17 323.29L542.93 323.58L541.72 323.94L540.55 324.37L539.41 324.87L538.31 325.44L537.25 326.08L536.24 326.78L535.27 327.53L534.35 328.35L533.48 329.22L532.66 330.14L531.91 331.1L531.21 332.12L530.58 333.18L530 334.28L529.5 335.42L529.07 336.59L528.71 337.8L528.42 339.04L528.22 340.3L528.09 341.59L528.05 342.91L528.09 344.22L528.22 345.51L528.42 346.78L528.71 348.01L529.07 349.22L529.5 350.39L530 351.53L530.58 352.63L531.21 353.69L531.91 354.71L532.66 355.68L533.48 356.59L534.35 357.46L535.27 358.28L536.24 359.03L537.25 359.73L538.31 360.37L539.41 360.94L540.55 361.44L541.72 361.87L542.93 362.23L544.17 362.52L545.43 362.72L546.72 362.85L548.04 362.89L549.35 362.85L550.64 362.72L551.91 362.52L553.14 362.23L554.35 361.87L555.52 361.44L556.66 360.94L557.76 360.37L558.82 359.73L559.84 359.03L560.81 358.28L561.73 357.46L562.59 356.59L563.41 355.68L564.16 354.71L564.86 353.69L565.5 352.63L566.07 351.53L566.57 350.39L567 349.22L567.36 348.01L567.65 346.78L567.85 345.51L567.98 344.22L568.02 342.91L567.98 341.59L567.85 340.3L567.65 339.04L567.36 337.8L567 336.59L566.57 335.42L566.07 334.28L565.5 333.18L564.86 332.12L564.16 331.1L563.41 330.14L562.59 329.22L561.73 328.35L560.81 327.53L559.84 326.78L558.82 326.08L557.76 325.44L556.66 324.87L555.52 324.37L554.35 323.94L553.14 323.58L551.91 323.29L550.64 323.09L549.35 322.96L548.04 322.92L546.72 322.96L545.43 323.09Z" id="b1NxwjDBFL"></path><radialGradient id="gradientb32flvasH6" gradientUnits="userSpaceOnUse" cx="533.96" cy="306.83" dx="567.02" dy="374.6" r="75.41"><stop style="stop-color: #1060b0;stop-opacity: 1" offset="0%"></stop><stop style="stop-color: #0a233e;stop-opacity: 1" offset="100%"></stop></radialGradient><path d="M618.3 339.24L622.53 341.1L620.95 345.34L623.2 346.8L626.77 343.75L629.56 346.8L626.77 350.51L628.5 352.62L632.87 352.09L634.19 355.8L630.48 357.92L630.83 360.97L635.13 361.63L635.13 366.27L630.48 366.27L629.56 369.18L633.27 371.7L631.22 375.81L627.44 373.29L625.32 375.81L627.44 379.65L623.99 382.3L620.95 378.72L618.3 380.31L618.83 384.82L614.85 386.08L613.26 381.77L609.95 381.77L609.55 385.74L605.18 385.35L605.18 380.71L602.4 379.65L599.62 382.96L595.51 380.31L597.98 376.74L596.57 374.75L592.33 376.74L589.68 372.36L593.26 369.71L592.33 367.86L587.69 367.59L587.31 363.36L591.62 362.83L591.62 359.38L587.69 357.26L589.28 353.15L593.26 354.08L594.85 351.43L591.93 347.72L594.85 344.94L597.98 347.72L600.68 345.87L599.22 341.1L602.8 339.24L605.18 343.35L607.56 342.56L608.23 338.25L612.86 338.25L613.26 342.56L615.78 342.95L615.78 342.95L618.3 339.24ZM607.29 349.51L606.07 349.96L604.91 350.52L603.82 351.18L602.8 351.94L601.86 352.8L601 353.74L600.24 354.76L599.58 355.85L599.02 357.01L598.57 358.23L598.24 359.5L598.04 360.81L597.98 362.17L598.04 363.52L598.24 364.83L598.57 366.1L599.02 367.32L599.58 368.48L600.24 369.57L601 370.59L601.86 371.53L602.8 372.39L603.82 373.15L604.91 373.81L606.07 374.37L607.29 374.82L608.55 375.14L609.87 375.34L611.22 375.41L612.58 375.34L613.89 375.14L615.16 374.82L616.38 374.37L617.54 373.81L618.63 373.15L619.65 372.39L620.59 371.53L621.44 370.59L622.21 369.57L622.87 368.48L623.43 367.32L623.87 366.1L624.2 364.83L624.4 363.52L624.47 362.17L624.4 360.81L624.2 359.5L623.87 358.23L623.43 357.01L622.87 355.85L622.21 354.76L621.44 353.74L620.59 352.8L619.65 351.94L618.63 351.18L617.54 350.52L616.38 349.96L615.16 349.51L613.89 349.19L612.58 348.99L611.22 348.92L609.87 348.99L608.55 349.19L608.55 349.19L607.29 349.51Z" id="aR9u5q5"></path><radialGradient id="gradientc24m5xRsma" gradientUnits="userSpaceOnUse" cx="601.89" cy="338.25" dx="623.81" dy="383.18" r="49.98"><stop style="stop-color: #1060b0;stop-opacity: 1" offset="0%"></stop><stop style="stop-color: #0a233e;stop-opacity: 1" offset="100%"></stop></radialGradient><path d="M568.04 342.91C568.04 353.94 559.07 362.91 548.04 362.91C537 362.91 528.04 353.94 528.04 342.91C528.04 331.87 537 322.91 548.04 322.91C559.07 322.91 568.04 331.87 568.04 342.91Z" id="bWDNwHMWk"></path><radialGradient id="gradientedG9hFp6H" gradientUnits="userSpaceOnUse" cx="532.6" cy="326.18" dx="556.79" dy="361.34" r="42.68"><stop style="stop-color: #dee2e6;stop-opacity: 1" offset="0%"></stop><stop style="stop-color: #343a40;stop-opacity: 1" offset="100%"></stop></radialGradient><path d="M561.04 342.91C561.04 350.08 555.21 355.91 548.04 355.91C540.86 355.91 535.04 350.08 535.04 342.91C535.04 335.73 540.86 329.91 548.04 329.91C555.21 329.91 561.04 335.73 561.04 342.91Z" id="b2LBX2syW"></path><radialGradient id="gradientajt0rP8LX" gradientUnits="userSpaceOnUse" cx="540.16" cy="332.88" dx="555.77" dy="353.17" r="25.6"><stop style="stop-color: #147de6;stop-opacity: 1" offset="0%"></stop><stop style="stop-color: #0a233e;stop-opacity: 1" offset="100%"></stop></radialGradient><path d="M624.84 362.22C624.84 369.7 618.76 375.78 611.28 375.78C603.8 375.78 597.72 369.7 597.72 362.22C597.72 354.74 603.8 348.67 611.28 348.67C618.76 348.67 624.84 354.74 624.84 362.22Z" id="d2u9d60PH"></path><radialGradient id="gradientd34uCZAIuK" gradientUnits="userSpaceOnUse" cx="600.81" cy="350.88" dx="617.22" dy="374.72" r="28.93"><stop style="stop-color: #dee2e6;stop-opacity: 1" offset="0%"></stop><stop style="stop-color: #343a40;stop-opacity: 1" offset="100%"></stop></radialGradient><path d="M620.22 362.17C620.22 367.13 616.19 371.17 611.22 371.17C606.26 371.17 602.22 367.13 602.22 362.17C602.22 357.2 606.26 353.17 611.22 353.17C616.19 353.17 620.22 357.2 620.22 362.17Z" id="b5boIlgcc2"></path><radialGradient id="gradienta3iydJ1H27" gradientUnits="userSpaceOnUse" cx="605.77" cy="355.23" dx="616.58" dy="369.27" r="17.72"><stop style="stop-color: #147de6;stop-opacity: 1" offset="0%"></stop><stop style="stop-color: #0a233e;stop-opacity: 1" offset="100%"></stop></radialGradient><path d="M610.06 316.85C610.06 321.96 605.91 326.1 600.81 326.1C595.7 326.1 591.56 321.96 591.56 316.85C591.56 311.75 595.7 307.6 600.81 307.6C605.91 307.6 610.06 311.75 610.06 316.85Z" id="a18HMc8aQT"></path><radialGradient id="gradientaZ8QrAbZp" gradientUnits="userSpaceOnUse" cx="593.67" cy="309.12" dx="604.86" dy="325.38" r="19.74"><stop style="stop-color: #dee2e6;stop-opacity: 1" offset="0%"></stop><stop style="stop-color: #343a40;stop-opacity: 1" offset="100%"></stop></radialGradient><path d="M606.95 316.76C606.95 320.15 604.2 322.91 600.81 322.91C597.42 322.91 594.67 320.15 594.67 316.76C594.67 313.38 597.42 310.62 600.81 310.62C604.2 310.62 606.95 313.38 606.95 316.76Z" id="b9mAOfaIQm"></path><radialGradient id="gradienta2G4tFs4jo" gradientUnits="userSpaceOnUse" cx="597.09" cy="312.03" dx="604.46" dy="321.61" r="12.09"><stop style="stop-color: #147de6;stop-opacity: 1" offset="0%"></stop><stop style="stop-color: #0a233e;stop-opacity: 1" offset="100%"></stop></radialGradient></defs><g><g><use xlink:href="#aXNw5ipqf" opacity="1" fill="url(#gradienta2jIyYimQf)"></use><g><use xlink:href="#aXNw5ipqf" opacity="1" fill-opacity="0" stroke="#0a233e" stroke-width="0.25" stroke-opacity="1"></use></g></g><g><use xlink:href="#b1NxwjDBFL" opacity="1" fill="url(#gradientb32flvasH6)"></use><g><use xlink:href="#b1NxwjDBFL" opacity="1" fill-opacity="0" stroke="#0a233e" stroke-width="0.25" stroke-opacity="1"></use></g></g><g><use xlink:href="#aR9u5q5" opacity="1" fill="url(#gradientc24m5xRsma)"></use><g><use xlink:href="#aR9u5q5" opacity="1" fill-opacity="0" stroke="#0a233e" stroke-width="0.25" stroke-opacity="1"></use></g></g><g><use xlink:href="#bWDNwHMWk" opacity="1" fill="url(#gradientedG9hFp6H)"></use></g><g><use xlink:href="#b2LBX2syW" opacity="1" fill="url(#gradientajt0rP8LX)"></use></g><g><use xlink:href="#d2u9d60PH" opacity="1" fill="url(#gradientd34uCZAIuK)"></use></g><g><use xlink:href="#b5boIlgcc2" opacity="1" fill="url(#gradienta3iydJ1H27)"></use></g><g><use xlink:href="#a18HMc8aQT" opacity="1" fill="url(#gradientaZ8QrAbZp)"></use></g><g><use xlink:href="#b9mAOfaIQm" opacity="1" fill="url(#gradienta2G4tFs4jo)"></use></g></g></svg>