<?xml version="1.0" encoding="UTF-8" standalone="no"?>
<!DOCTYPE svg PUBLIC "-//W3C//DTD SVG 1.1//EN" "http://www.w3.org/Graphics/SVG/1.1/DTD/svg11.dtd">
<svg version="1.1" xmlns="http://www.w3.org/2000/svg" xmlns:xlink="http://www.w3.org/1999/xlink" preserveAspectRatio="xMidYMid meet" viewBox="336.60075682103394 179.81069638235215 127.17484220514427 89.91934809021592" width="123.17" height="85.92"><defs><path d="M429.63 184.09L431.39 181.5L434.35 182.8L433.24 185.76L434.81 186.78L437.31 184.65L439.25 186.78L437.31 189.37L438.51 190.85L441.56 190.48L442.49 193.07L439.9 194.55L440.14 196.67L443.15 197.14L443.15 200.37L439.9 200.37L439.25 202.41L441.84 204.17L440.41 207.03L437.77 205.28L436.29 207.03L437.77 209.72L435.37 211.57L433.24 209.07L431.39 210.18L431.76 213.32L428.98 214.2L427.87 211.2L425.56 211.2L425.28 213.97L422.23 213.69L422.23 210.46L420.29 209.72L418.34 212.03L415.48 210.18L417.2 207.68L416.22 206.29L413.26 207.68L411.41 204.63L413.9 202.78L413.26 201.48L410.02 201.3L409.75 198.34L412.76 197.97L412.76 195.56L410.02 194.08L411.13 191.22L413.9 191.86L415.01 190.01L412.98 187.42L415.01 185.48L417.2 187.42L419.08 186.13L418.07 182.8L420.57 181.5L422.23 184.37L423.9 183.82L424.36 180.81L427.6 180.81L427.87 183.82L429.63 184.09ZM423.78 188.65L422.55 189.12L421.41 189.75L420.38 190.53L419.47 191.44L418.69 192.47L418.06 193.61L417.59 194.84L417.3 196.14L417.2 197.51L417.3 198.87L417.59 200.18L418.06 201.41L418.69 202.54L419.47 203.58L420.38 204.49L421.41 205.27L422.55 205.9L423.78 206.37L425.08 206.66L426.45 206.76L427.82 206.66L429.12 206.37L430.35 205.9L431.48 205.27L432.52 204.49L433.43 203.58L434.21 202.54L434.84 201.41L435.31 200.18L435.6 198.87L435.7 197.51L435.6 196.14L435.31 194.84L434.84 193.61L434.21 192.47L433.43 191.44L432.52 190.53L431.48 189.75L430.35 189.12L429.12 188.65L427.82 188.36L426.45 188.26L425.08 188.36L423.78 188.65Z" id="doUftkXqn"></path><radialGradient id="gradientaew20c1d8" gradientUnits="userSpaceOnUse" cx="419.94" cy="180.81" dx="436.62" dy="216.11" r="39.05"><stop style="stop-color: #1163b6;stop-opacity: 1" offset="0%"></stop><stop style="stop-color: #0a233e;stop-opacity: 1" offset="100%"></stop></radialGradient><path d="M380.55 194.57L384.35 188.98L390.74 191.78L388.34 198.17L391.74 200.37L397.14 195.77L401.34 200.37L397.14 205.97L399.74 209.17L406.33 208.37L408.33 213.96L402.73 217.16L403.25 221.76L409.75 222.76L409.75 229.75L402.73 229.75L401.34 234.15L406.93 237.95L403.85 244.14L398.14 240.34L394.94 244.14L398.14 249.94L392.94 253.94L388.34 248.54L384.35 250.94L385.15 257.73L379.15 259.63L376.75 253.13L371.76 253.13L371.16 259.13L364.56 258.53L364.56 251.54L360.36 249.94L356.17 254.93L349.97 250.94L353.69 245.54L351.57 242.54L345.17 245.54L341.18 238.95L346.57 234.95L345.17 232.15L338.18 231.75L337.6 225.35L344.1 224.55L344.1 219.36L338.18 216.16L340.58 209.96L346.57 211.36L348.97 207.37L344.57 201.77L348.97 197.57L353.69 201.77L357.76 198.97L355.57 191.78L360.96 188.98L364.56 195.17L368.16 193.98L369.16 187.48L376.15 187.48L376.75 193.98L380.55 194.57ZM371.07 203.74L369.81 203.95L368.57 204.23L367.36 204.59L366.19 205.02L365.05 205.53L363.95 206.1L362.89 206.73L361.88 207.43L360.91 208.19L359.99 209L359.12 209.87L358.31 210.79L357.55 211.76L356.85 212.77L356.22 213.83L355.65 214.93L355.14 216.07L354.71 217.24L354.35 218.45L354.06 219.69L353.86 220.95L353.73 222.25L353.69 223.56L353.73 224.87L353.86 226.16L354.06 227.43L354.35 228.67L354.71 229.87L355.14 231.05L355.65 232.19L356.22 233.29L356.85 234.34L357.55 235.36L358.31 236.33L359.12 237.25L359.99 238.12L360.91 238.93L361.88 239.69L362.89 240.38L363.95 241.02L365.05 241.59L366.19 242.09L367.36 242.53L368.57 242.89L369.81 243.17L371.07 243.38L372.36 243.5L373.68 243.55L374.99 243.5L376.28 243.38L377.55 243.17L378.78 242.89L379.99 242.53L381.17 242.09L382.3 241.59L383.4 241.02L384.46 240.38L385.48 239.69L386.45 238.93L387.37 238.12L388.23 237.25L389.05 236.33L389.8 235.36L390.5 234.34L391.14 233.29L391.71 232.19L392.21 231.05L392.64 229.87L393 228.67L393.29 227.43L393.49 226.16L393.62 224.87L393.66 223.56L393.62 222.25L393.49 220.95L393.29 219.69L393 218.45L392.64 217.24L392.21 216.07L391.71 214.93L391.14 213.83L390.5 212.77L389.8 211.76L389.05 210.79L388.23 209.87L387.37 209L386.45 208.19L385.48 207.43L384.46 206.73L383.4 206.1L382.3 205.53L381.17 205.02L379.99 204.59L378.78 204.23L377.55 203.95L376.28 203.74L374.99 203.61L373.68 203.57L372.36 203.61L371.07 203.74Z" id="c1fn12LEse"></path><radialGradient id="gradienta13LBrTSK" gradientUnits="userSpaceOnUse" cx="359.6" cy="187.48" dx="395.66" dy="263.76" r="84.37"><stop style="stop-color: #1163b6;stop-opacity: 1" offset="0%"></stop><stop style="stop-color: #0a233e;stop-opacity: 1" offset="100%"></stop></radialGradient><path d="M443.94 219.9L448.18 221.75L446.59 225.99L448.84 227.45L452.41 224.4L455.2 227.45L452.41 231.16L454.14 233.28L458.51 232.75L459.83 236.46L456.12 238.58L456.47 241.62L460.78 242.29L460.78 246.92L456.12 246.92L455.2 249.84L458.91 252.35L456.86 256.46L453.08 253.94L450.96 256.46L453.08 260.3L449.63 262.95L446.59 259.38L443.94 260.97L444.47 265.47L440.49 266.73L438.9 262.42L435.59 262.42L435.19 266.4L430.82 266L430.82 261.36L428.04 260.3L425.26 263.61L421.15 260.97L423.62 257.39L422.21 255.4L417.97 257.39L415.32 253.02L418.9 250.37L417.97 248.51L413.33 248.25L412.95 244.01L417.26 243.48L417.26 240.03L413.33 237.91L414.92 233.81L418.9 234.73L420.49 232.09L417.57 228.38L420.49 225.59L423.62 228.38L426.32 226.52L424.86 221.75L428.44 219.9L430.82 224L433.21 223.22L433.87 218.91L438.5 218.91L438.9 223.22L441.42 223.61L441.42 223.61L443.94 219.9ZM432.93 230.17L431.71 230.61L430.55 231.17L429.46 231.83L428.44 232.6L427.5 233.45L426.64 234.39L425.88 235.41L425.22 236.51L424.66 237.66L424.21 238.88L423.89 240.15L423.68 241.46L423.62 242.82L423.68 244.17L423.89 245.49L424.21 246.76L424.66 247.97L425.22 249.13L425.88 250.22L426.64 251.24L427.5 252.18L428.44 253.04L429.46 253.8L430.55 254.47L431.71 255.02L432.93 255.47L434.2 255.8L435.51 256L436.86 256.07L438.22 256L439.53 255.8L440.8 255.47L442.02 255.02L443.18 254.47L444.27 253.8L445.29 253.04L446.23 252.18L447.08 251.24L447.85 250.22L448.51 249.13L449.07 247.97L449.52 246.76L449.84 245.49L450.04 244.17L450.11 242.82L450.04 241.46L449.84 240.15L449.52 238.88L449.07 237.66L448.51 236.51L447.85 235.41L447.08 234.39L446.23 233.45L445.29 232.6L444.27 231.83L443.18 231.17L442.02 230.61L440.8 230.17L439.53 229.84L438.22 229.64L436.86 229.57L435.51 229.64L434.2 229.84L434.2 229.84L432.93 230.17Z" id="d3lV6SZ9g2"></path><radialGradient id="gradienta4surDw5N" gradientUnits="userSpaceOnUse" cx="427.53" cy="218.91" dx="451.44" dy="269.46" r="55.92"><stop style="stop-color: #1163b6;stop-opacity: 1" offset="0%"></stop><stop style="stop-color: #0a233e;stop-opacity: 1" offset="100%"></stop></radialGradient><path d="M386.68 223.56C386.68 230.46 381.08 236.06 374.18 236.06C367.28 236.06 361.68 230.46 361.68 223.56C361.68 216.66 367.28 211.06 374.18 211.06C381.08 211.06 386.68 216.66 386.68 223.56Z" id="a7o0j94fta"></path></defs><g><g><use xlink:href="#doUftkXqn" opacity="1" fill="url(#gradientaew20c1d8)"></use><g><use xlink:href="#doUftkXqn" opacity="1" fill-opacity="0" stroke="#279aeb" stroke-width="0.25" stroke-opacity="1"></use></g></g><g><use xlink:href="#c1fn12LEse" opacity="1" fill="url(#gradienta13LBrTSK)"></use><g><use xlink:href="#c1fn12LEse" opacity="1" fill-opacity="0" stroke="#279aeb" stroke-width="0.25" stroke-opacity="1"></use></g></g><g><use xlink:href="#d3lV6SZ9g2" opacity="1" fill="url(#gradienta4surDw5N)"></use><g><use xlink:href="#d3lV6SZ9g2" opacity="1" fill-opacity="0" stroke="#279aeb" stroke-width="0.25" stroke-opacity="1"></use></g></g><g><g><use xlink:href="#a7o0j94fta" opacity="1" fill-opacity="0" stroke="#929ca7" stroke-width="2" stroke-opacity="1"></use></g></g></g></svg>