<?xml version="1.0" encoding="UTF-8" standalone="no"?>
<!DOCTYPE svg PUBLIC "-//W3C//DTD SVG 1.1//EN" "http://www.w3.org/Graphics/SVG/1.1/DTD/svg11.dtd">
<svg version="1.1" xmlns="http://www.w3.org/2000/svg" xmlns:xlink="http://www.w3.org/1999/xlink" preserveAspectRatio="xMidYMid meet" viewBox="333.08743677536165 308.44585110429756 127.17484220514427 89.91934809021592" width="123.17" height="85.92"><defs><path d="M426.12 312.73L427.87 310.14L430.83 311.43L429.72 314.39L431.3 315.41L433.79 313.28L435.74 315.41L433.79 318L435 319.48L438.05 319.11L438.98 321.7L436.39 323.18L436.62 325.31L439.63 325.77L439.63 329.01L436.39 329.01L435.74 331.04L438.33 332.8L436.9 335.67L434.26 333.91L432.78 335.67L434.26 338.35L431.85 340.2L429.72 337.7L427.87 338.81L428.24 341.96L425.47 342.84L424.36 339.83L422.05 339.83L421.77 342.61L418.72 342.33L418.72 339.09L416.77 338.35L414.83 340.66L411.96 338.81L413.69 336.32L412.7 334.93L409.74 336.32L407.89 333.26L410.39 331.41L409.74 330.12L406.51 329.93L406.24 326.97L409.25 326.6L409.25 324.2L406.51 322.72L407.62 319.85L410.39 320.5L411.5 318.65L409.47 316.06L411.5 314.12L413.69 316.06L415.57 314.76L414.55 311.43L417.05 310.14L418.72 313.01L420.38 312.46L420.84 309.45L424.08 309.45L424.36 312.46L426.12 312.73ZM420.27 317.28L419.04 317.75L417.9 318.38L416.87 319.16L415.96 320.08L415.18 321.11L414.55 322.24L414.08 323.47L413.79 324.78L413.69 326.14L413.79 327.51L414.08 328.81L414.55 330.04L415.18 331.18L415.96 332.21L416.87 333.12L417.9 333.9L419.04 334.53L420.27 335L421.57 335.29L422.94 335.39L424.3 335.29L425.61 335L426.83 334.53L427.97 333.9L429 333.12L429.92 332.21L430.7 331.18L431.33 330.04L431.79 328.81L432.09 327.51L432.19 326.14L432.09 324.78L431.79 323.47L431.33 322.24L430.7 321.11L429.92 320.08L429 319.16L427.97 318.38L426.83 317.75L425.61 317.28L424.3 316.99L422.94 316.89L421.57 316.99L420.27 317.28Z" id="a72OXAhfB"></path><radialGradient id="gradientk1tGL4tG5Y" gradientUnits="userSpaceOnUse" cx="416.42" cy="309.45" dx="431.72" dy="340.81" r="34.9"><stop style="stop-color: #1160b0;stop-opacity: 1" offset="0%"></stop><stop style="stop-color: #0a233e;stop-opacity: 1" offset="100%"></stop></radialGradient><path d="M377.04 323.21L380.83 317.61L387.23 320.41L384.83 326.81L388.23 329.01L393.63 324.41L397.82 329.01L393.63 334.6L396.22 337.8L402.82 337L404.82 342.6L399.22 345.79L399.74 350.39L406.24 351.39L406.24 358.39L399.22 358.39L397.82 362.78L403.42 366.58L400.34 372.78L394.62 368.98L391.43 372.78L394.62 378.57L389.43 382.57L384.83 377.17L380.83 379.57L381.63 386.37L375.64 388.27L373.24 381.77L368.24 381.77L367.64 387.77L361.05 387.17L361.05 380.17L356.85 378.57L352.65 383.57L346.46 379.57L350.18 374.18L348.06 371.18L341.66 374.18L337.66 367.58L343.06 363.58L341.66 360.78L334.66 360.39L334.09 353.99L340.59 353.19L340.59 347.99L334.66 344.8L337.06 338.6L343.06 340L345.46 336L341.06 330.41L345.46 326.21L350.18 330.41L354.25 327.61L352.05 320.41L357.45 317.61L361.05 323.81L364.64 322.62L365.64 316.12L372.64 316.12L373.24 322.62L377.04 323.21ZM367.56 332.38L366.29 332.58L365.06 332.87L363.85 333.23L362.67 333.66L361.54 334.16L360.44 334.73L359.38 335.37L358.36 336.07L357.39 336.82L356.47 337.64L355.61 338.5L354.79 339.42L354.04 340.39L353.34 341.41L352.7 342.47L352.13 343.57L351.63 344.71L351.2 345.88L350.84 347.09L350.55 348.32L350.35 349.59L350.22 350.88L350.18 352.19L350.22 353.51L350.35 354.8L350.55 356.06L350.84 357.3L351.2 358.51L351.63 359.68L352.13 360.82L352.7 361.92L353.34 362.98L354.04 363.99L354.79 364.96L355.61 365.88L356.47 366.75L357.39 367.57L358.36 368.32L359.38 369.02L360.44 369.65L361.54 370.23L362.67 370.73L363.85 371.16L365.06 371.52L366.29 371.81L367.56 372.01L368.85 372.14L370.16 372.18L371.48 372.14L372.77 372.01L374.03 371.81L375.27 371.52L376.48 371.16L377.65 370.73L378.79 370.23L379.89 369.65L380.95 369.02L381.96 368.32L382.93 367.57L383.85 366.75L384.72 365.88L385.53 364.96L386.29 363.99L386.99 362.98L387.62 361.92L388.19 360.82L388.7 359.68L389.13 358.51L389.49 357.3L389.77 356.06L389.98 354.8L390.11 353.51L390.15 352.19L390.11 350.88L389.98 349.59L389.77 348.32L389.49 347.09L389.13 345.88L388.7 344.71L388.19 343.57L387.62 342.47L386.99 341.41L386.29 340.39L385.53 339.42L384.72 338.5L383.85 337.64L382.93 336.82L381.96 336.07L380.95 335.37L379.89 334.73L378.79 334.16L377.65 333.66L376.48 333.23L375.27 332.87L374.03 332.58L372.77 332.38L371.48 332.25L370.16 332.21L368.85 332.25L367.56 332.38Z" id="a1TT4J9A3"></path><radialGradient id="gradienta3QE9wRP74" gradientUnits="userSpaceOnUse" cx="356.09" cy="316.12" dx="389.15" dy="383.89" r="75.41"><stop style="stop-color: #1160b0;stop-opacity: 1" offset="0%"></stop><stop style="stop-color: #0a233e;stop-opacity: 1" offset="100%"></stop></radialGradient><path d="M440.42 348.53L444.66 350.39L443.07 354.63L445.32 356.08L448.9 353.04L451.68 356.08L448.9 359.79L450.62 361.91L455 361.38L456.32 365.09L452.61 367.21L452.95 370.26L457.26 370.92L457.26 375.56L452.61 375.56L451.68 378.47L455.39 380.99L453.35 385.1L449.56 382.58L447.44 385.1L449.56 388.94L446.12 391.59L443.07 388.01L440.42 389.6L440.95 394.1L436.98 395.37L435.39 391.06L432.08 391.06L431.68 395.03L427.31 394.63L427.31 390L424.53 388.94L421.74 392.25L417.64 389.6L420.1 386.02L418.7 384.04L414.46 386.02L411.81 381.65L415.38 379L414.46 377.15L409.82 376.88L409.44 372.64L413.75 372.11L413.75 368.67L409.82 366.55L411.41 362.44L415.38 363.37L416.97 360.72L414.06 357.01L416.97 354.23L420.1 357.01L422.8 355.16L421.35 350.39L424.92 348.53L427.31 352.64L429.69 351.85L430.35 347.54L434.99 347.54L435.39 351.85L437.91 352.24L437.91 352.24L440.42 348.53ZM429.41 358.8L428.2 359.25L427.04 359.81L425.95 360.47L424.93 361.23L423.98 362.09L423.13 363.03L422.37 364.05L421.7 365.14L421.14 366.3L420.7 367.52L420.37 368.78L420.17 370.1L420.1 371.45L420.17 372.81L420.37 374.12L420.7 375.39L421.14 376.61L421.7 377.77L422.37 378.86L423.13 379.88L423.98 380.82L424.93 381.67L425.95 382.44L427.04 383.1L428.2 383.66L429.41 384.1L430.68 384.43L432 384.63L433.35 384.7L434.7 384.63L436.02 384.43L437.29 384.1L438.5 383.66L439.66 383.1L440.76 382.44L441.77 381.67L442.72 380.82L443.57 379.88L444.33 378.86L445 377.77L445.56 376.61L446 375.39L446.33 374.12L446.53 372.81L446.6 371.45L446.53 370.1L446.33 368.78L446 367.52L445.56 366.3L445 365.14L444.33 364.05L443.57 363.03L442.72 362.09L441.77 361.23L440.76 360.47L439.66 359.81L438.5 359.25L437.29 358.8L436.02 358.47L434.7 358.27L433.35 358.21L432 358.27L430.68 358.47L430.68 358.47L429.41 358.8Z" id="eUnPsJezI"></path><radialGradient id="gradientbzX9TN9ct" gradientUnits="userSpaceOnUse" cx="424.02" cy="347.54" dx="445.93" dy="392.46" r="49.98"><stop style="stop-color: #1160b0;stop-opacity: 1" offset="0%"></stop><stop style="stop-color: #0a233e;stop-opacity: 1" offset="100%"></stop></radialGradient><path d="M372.77 332.36L374.04 332.57L375.27 332.85L376.48 333.21L377.66 333.65L378.8 334.15L379.9 334.72L380.96 335.36L381.97 336.05L382.94 336.81L383.86 337.63L384.73 338.5L385.54 339.42L386.3 340.39L387 341.4L387.64 342.46L388.21 343.56L388.71 344.7L389.14 345.88L389.5 347.08L389.79 348.32L389.99 349.59L390.12 350.88L390.16 352.19L390.12 353.51L389.99 354.8L389.79 356.07L389.5 357.3L389.14 358.51L388.71 359.69L388.21 360.83L387.64 361.93L387 362.99L386.3 364L385.54 364.97L384.73 365.89L383.86 366.76L382.94 367.58L381.97 368.33L380.96 369.03L379.9 369.67L378.8 370.24L377.66 370.74L376.48 371.17L375.27 371.53L374.04 371.82L372.77 372.03L371.48 372.15L370.16 372.19L368.85 372.15L367.56 372.03L366.29 371.82L365.05 371.53L363.84 371.17L362.67 370.74L361.53 370.24L360.43 369.67L359.37 369.03L358.35 368.33L357.39 367.58L356.46 366.76L355.6 365.89L354.78 364.97L354.02 364L353.33 362.99L352.69 361.93L352.12 360.83L351.62 359.69L351.18 358.51L350.82 357.3L350.54 356.07L350.33 354.8L350.21 353.51L350.16 352.19L350.21 350.88L350.33 349.59L350.54 348.32L350.82 347.08L351.18 345.88L351.62 344.7L352.12 343.56L352.69 342.46L353.33 341.4L354.02 340.39L354.78 339.42L355.6 338.5L356.46 337.63L357.39 336.81L358.35 336.05L359.37 335.36L360.43 334.72L361.53 334.15L362.67 333.65L363.84 333.21L365.05 332.85L366.29 332.57L367.56 332.36L368.85 332.24L370.16 332.19L371.48 332.24L372.77 332.36ZM367.54 339.46L366.3 339.78L365.11 340.22L363.97 340.76L362.9 341.42L361.9 342.16L360.97 343L360.13 343.93L359.38 344.93L358.73 346L358.19 347.14L357.75 348.33L357.43 349.58L357.23 350.87L357.16 352.19L357.23 353.52L357.43 354.81L357.75 356.06L358.19 357.25L358.73 358.39L359.38 359.46L360.13 360.46L360.97 361.38L361.9 362.22L362.9 362.97L363.97 363.62L365.11 364.17L366.3 364.61L367.54 364.93L368.83 365.13L370.16 365.19L371.49 365.13L372.78 364.93L374.03 364.61L375.22 364.17L376.36 363.62L377.43 362.97L378.43 362.22L379.35 361.38L380.19 360.46L380.94 359.46L381.59 358.39L382.14 357.25L382.58 356.06L382.9 354.81L383.1 353.52L383.16 352.19L383.1 350.87L382.9 349.58L382.58 348.33L382.14 347.14L381.59 346L380.94 344.93L380.19 343.93L379.35 343L378.43 342.16L377.43 341.42L376.36 340.76L375.22 340.22L374.03 339.78L372.78 339.46L371.49 339.26L370.16 339.19L368.83 339.26L367.54 339.46Z" id="d2Q0D2YhhG"></path><radialGradient id="gradientd1eFWY3k2" gradientUnits="userSpaceOnUse" cx="354.72" cy="335.46" dx="378.92" dy="370.63" r="42.68"><stop style="stop-color: #dee2e6;stop-opacity: 1" offset="0%"></stop><stop style="stop-color: #343a40;stop-opacity: 1" offset="100%"></stop></radialGradient><path d="M435.98 358.2L437.21 358.5L438.39 358.9L439.53 359.41L440.6 360.02L441.61 360.72L442.55 361.5L443.41 362.37L444.2 363.31L444.9 364.32L445.51 365.39L446.02 366.52L446.42 367.71L446.72 368.94L446.9 370.21L446.96 371.51L446.9 372.81L446.72 374.08L446.42 375.31L446.02 376.5L445.51 377.63L444.9 378.7L444.2 379.71L443.41 380.65L442.55 381.52L441.61 382.3L440.6 383L439.53 383.61L438.39 384.12L437.21 384.52L435.98 384.82L434.71 385L433.41 385.07L432.1 385L430.83 384.82L429.6 384.52L428.42 384.12L427.29 383.61L426.22 383L425.21 382.3L424.27 381.52L423.4 380.65L422.61 379.71L421.92 378.7L421.31 377.63L420.8 376.5L420.39 375.31L420.09 374.08L419.91 372.81L419.85 371.51L419.91 370.21L420.09 368.94L420.39 367.71L420.8 366.52L421.31 365.39L421.92 364.32L422.61 363.31L423.4 362.37L424.27 361.5L425.21 360.72L426.22 360.02L427.29 359.41L428.42 358.9L429.6 358.5L430.83 358.2L432.1 358.02L433.41 357.95L434.71 358.02L435.98 358.2ZM430.75 362.83L429.56 363.29L428.45 363.9L427.45 364.66L426.56 365.55L425.8 366.55L425.19 367.66L424.73 368.86L424.45 370.12L424.35 371.45L424.45 372.78L424.73 374.05L425.19 375.25L425.8 376.35L426.56 377.36L427.45 378.24L428.45 379L429.56 379.62L430.75 380.07L432.02 380.36L433.35 380.45L434.68 380.36L435.95 380.07L437.14 379.62L438.25 379L439.25 378.24L440.14 377.36L440.9 376.35L441.51 375.25L441.97 374.05L442.25 372.78L442.35 371.45L442.25 370.12L441.97 368.86L441.51 367.66L440.9 366.55L440.14 365.55L439.25 364.66L438.25 363.9L437.14 363.29L435.95 362.83L434.68 362.55L433.35 362.45L432.02 362.55L430.75 362.83Z" id="cFMa3u5mX"></path><radialGradient id="gradiente2Bm7golw" gradientUnits="userSpaceOnUse" cx="422.94" cy="360.17" dx="439.34" dy="384" r="28.93"><stop style="stop-color: #dee2e6;stop-opacity: 1" offset="0%"></stop><stop style="stop-color: #343a40;stop-opacity: 1" offset="100%"></stop></radialGradient><path d="M425.61 317.28L426.83 317.75L427.97 318.38L429 319.16L429.92 320.08L430.7 321.11L431.33 322.24L431.79 323.47L432.09 324.78L432.19 326.14L432.09 327.51L431.79 328.81L431.33 330.04L430.7 331.18L429.92 332.21L429 333.12L427.97 333.9L426.83 334.53L425.61 335L424.3 335.29L422.94 335.39L421.57 335.29L420.27 335L419.04 334.53L417.9 333.9L416.87 333.12L415.96 332.21L415.18 331.18L414.55 330.04L414.08 328.81L413.79 327.51L413.69 326.14L413.79 324.78L414.08 323.47L414.55 322.24L415.18 321.11L415.96 320.08L416.87 319.16L417.9 318.38L419.04 317.75L420.27 317.28L421.57 316.99L422.94 316.89L424.3 316.99L425.61 317.28ZM420.24 320.54L419.1 321.26L418.15 322.21L417.42 323.35L416.96 324.65L416.8 326.05L416.96 327.46L417.42 328.75L418.15 329.89L419.1 330.84L420.24 331.57L421.53 332.03L422.94 332.19L424.34 332.03L425.64 331.57L426.78 330.84L427.73 329.89L428.45 328.75L428.91 327.46L429.08 326.05L428.91 324.65L428.45 323.35L427.73 322.21L426.78 321.26L425.64 320.54L424.34 320.07L422.94 319.91L421.53 320.07L420.24 320.54Z" id="a3T5P8xoZ"></path><radialGradient id="gradientj3DKQ5ZfG" gradientUnits="userSpaceOnUse" cx="415.8" cy="318.41" dx="426.99" dy="334.67" r="19.74"><stop style="stop-color: #dee2e6;stop-opacity: 1" offset="0%"></stop><stop style="stop-color: #343a40;stop-opacity: 1" offset="100%"></stop></radialGradient></defs><g><g><use xlink:href="#a72OXAhfB" opacity="1" fill="url(#gradientk1tGL4tG5Y)"></use><g><use xlink:href="#a72OXAhfB" opacity="1" fill-opacity="0" stroke="#0a233e" stroke-width="0.25" stroke-opacity="1"></use></g></g><g><use xlink:href="#a1TT4J9A3" opacity="1" fill="url(#gradienta3QE9wRP74)"></use><g><use xlink:href="#a1TT4J9A3" opacity="1" fill-opacity="0" stroke="#0a233e" stroke-width="0.25" stroke-opacity="1"></use></g></g><g><use xlink:href="#eUnPsJezI" opacity="1" fill="url(#gradientbzX9TN9ct)"></use><g><use xlink:href="#eUnPsJezI" opacity="1" fill-opacity="0" stroke="#0a233e" stroke-width="0.25" stroke-opacity="1"></use></g></g><g><use xlink:href="#d2Q0D2YhhG" opacity="1" fill="url(#gradientd1eFWY3k2)"></use></g><g><use xlink:href="#cFMa3u5mX" opacity="1" fill="url(#gradiente2Bm7golw)"></use></g><g><use xlink:href="#a3T5P8xoZ" opacity="1" fill="url(#gradientj3DKQ5ZfG)"></use></g></g></svg>