<?xml version="1.0" encoding="UTF-8" standalone="no"?>
<!DOCTYPE svg PUBLIC "-//W3C//DTD SVG 1.1//EN" "http://www.w3.org/Graphics/SVG/1.1/DTD/svg11.dtd">
<svg version="1.1" xmlns="http://www.w3.org/2000/svg" xmlns:xlink="http://www.w3.org/1999/xlink" preserveAspectRatio="xMidYMid meet" viewBox="502.60075682103394 183.81069638235215 127.17484220514433 89.91934809021592" width="123.17" height="85.92"><defs><path d="M546.55 198.57L550.35 192.98L556.74 195.78L554.34 202.17L557.74 204.37L563.14 199.77L567.34 204.37L563.14 209.97L565.74 213.17L572.33 212.37L574.33 217.96L568.73 221.16L569.25 225.76L575.75 226.76L575.75 233.75L568.73 233.75L567.34 238.15L572.93 241.95L569.85 248.14L564.14 244.34L560.94 248.14L564.14 253.94L558.94 257.94L554.34 252.54L550.35 254.94L551.15 261.73L545.15 263.63L542.75 257.13L537.76 257.13L537.16 263.13L530.56 262.53L530.56 255.54L526.36 253.94L522.17 258.93L515.97 254.94L519.69 249.54L517.57 246.54L511.17 249.54L507.18 242.95L512.57 238.95L511.17 236.15L504.18 235.75L503.6 229.35L510.1 228.55L510.1 223.36L504.18 220.16L506.58 213.96L512.57 215.36L514.97 211.37L510.57 205.77L514.97 201.57L519.69 205.77L523.76 202.97L521.57 195.78L526.96 192.98L530.56 199.17L534.16 197.98L535.16 191.48L542.15 191.48L542.75 197.98L546.55 198.57ZM537.07 207.74L535.81 207.95L534.57 208.23L533.36 208.59L532.19 209.02L531.05 209.53L529.95 210.1L528.89 210.73L527.88 211.43L526.91 212.19L525.99 213L525.12 213.87L524.31 214.79L523.55 215.76L522.85 216.77L522.22 217.83L521.65 218.93L521.14 220.07L520.71 221.24L520.35 222.45L520.06 223.69L519.86 224.95L519.73 226.25L519.69 227.56L519.73 228.87L519.86 230.16L520.06 231.43L520.35 232.67L520.71 233.87L521.14 235.05L521.65 236.19L522.22 237.29L522.85 238.34L523.55 239.36L524.31 240.33L525.12 241.25L525.99 242.12L526.91 242.93L527.88 243.69L528.89 244.38L529.95 245.02L531.05 245.59L532.19 246.09L533.36 246.53L534.57 246.89L535.81 247.17L537.07 247.38L538.36 247.5L539.68 247.55L540.99 247.5L542.28 247.38L543.55 247.17L544.78 246.89L545.99 246.53L547.17 246.09L548.3 245.59L549.4 245.02L550.46 244.38L551.48 243.69L552.45 242.93L553.37 242.12L554.23 241.25L555.05 240.33L555.8 239.36L556.5 238.34L557.14 237.29L557.71 236.19L558.21 235.05L558.64 233.87L559 232.67L559.29 231.43L559.49 230.16L559.62 228.87L559.66 227.56L559.62 226.25L559.49 224.95L559.29 223.69L559 222.45L558.64 221.24L558.21 220.07L557.71 218.93L557.14 217.83L556.5 216.77L555.8 215.76L555.05 214.79L554.23 213.87L553.37 213L552.45 212.19L551.48 211.43L550.46 210.73L549.4 210.1L548.3 209.53L547.17 209.02L545.99 208.59L544.78 208.23L543.55 207.95L542.28 207.74L540.99 207.61L539.68 207.57L538.36 207.61L537.07 207.74Z" id="c1HAltXCrT"></path><radialGradient id="gradienta2NE2EGMz" gradientUnits="userSpaceOnUse" cx="525.6" cy="191.48" dx="561.66" dy="267.76" r="84.37"><stop style="stop-color: #1163b6;stop-opacity: 1" offset="0%"></stop><stop style="stop-color: #0a233e;stop-opacity: 1" offset="100%"></stop></radialGradient><path d="M609.94 223.9L614.18 225.75L612.59 229.99L614.84 231.45L618.41 228.4L621.2 231.45L618.41 235.16L620.14 237.28L624.51 236.75L625.83 240.46L622.12 242.58L622.47 245.62L626.78 246.29L626.78 250.92L622.12 250.92L621.2 253.84L624.91 256.35L622.86 260.46L619.08 257.94L616.96 260.46L619.08 264.3L615.63 266.95L612.59 263.38L609.94 264.97L610.47 269.47L606.49 270.73L604.9 266.42L601.59 266.42L601.19 270.4L596.82 270L596.82 265.36L594.04 264.3L591.26 267.61L587.15 264.97L589.62 261.39L588.21 259.4L583.97 261.39L581.32 257.02L584.9 254.37L583.97 252.51L579.33 252.25L578.95 248.01L583.26 247.48L583.26 244.03L579.33 241.91L580.92 237.81L584.9 238.73L586.49 236.09L583.57 232.38L586.49 229.59L589.62 232.38L592.32 230.52L590.86 225.75L594.44 223.9L596.82 228L599.21 227.22L599.87 222.91L604.5 222.91L604.9 227.22L607.42 227.61L607.42 227.61L609.94 223.9ZM598.93 234.17L597.71 234.61L596.55 235.17L595.46 235.83L594.44 236.6L593.5 237.45L592.64 238.39L591.88 239.41L591.22 240.51L590.66 241.66L590.21 242.88L589.89 244.15L589.68 245.46L589.62 246.82L589.68 248.17L589.89 249.49L590.21 250.76L590.66 251.97L591.22 253.13L591.88 254.22L592.64 255.24L593.5 256.18L594.44 257.04L595.46 257.8L596.55 258.47L597.71 259.02L598.93 259.47L600.2 259.8L601.51 260L602.86 260.07L604.22 260L605.53 259.8L606.8 259.47L608.02 259.02L609.18 258.47L610.27 257.8L611.29 257.04L612.23 256.18L613.08 255.24L613.85 254.22L614.51 253.13L615.07 251.97L615.52 250.76L615.84 249.49L616.04 248.17L616.11 246.82L616.04 245.46L615.84 244.15L615.52 242.88L615.07 241.66L614.51 240.51L613.85 239.41L613.08 238.39L612.23 237.45L611.29 236.6L610.27 235.83L609.18 235.17L608.02 234.61L606.8 234.17L605.53 233.84L604.22 233.64L602.86 233.57L601.51 233.64L600.2 233.84L600.2 233.84L598.93 234.17Z" id="c1SViP5MYY"></path><radialGradient id="gradientaEUDXuO0L" gradientUnits="userSpaceOnUse" cx="593.53" cy="222.91" dx="617.44" dy="273.46" r="55.92"><stop style="stop-color: #1163b6;stop-opacity: 1" offset="0%"></stop><stop style="stop-color: #0a233e;stop-opacity: 1" offset="100%"></stop></radialGradient><path d="M595.63 188.09L597.39 185.5L600.35 186.8L599.24 189.76L600.81 190.78L603.31 188.65L605.25 190.78L603.31 193.37L604.51 194.85L607.56 194.48L608.49 197.07L605.9 198.55L606.14 200.67L609.15 201.14L609.15 204.37L605.9 204.37L605.25 206.41L607.84 208.17L606.41 211.03L603.77 209.28L602.29 211.03L603.77 213.72L601.37 215.57L599.24 213.07L597.39 214.18L597.76 217.32L594.98 218.2L593.87 215.2L591.56 215.2L591.28 217.97L588.23 217.69L588.23 214.46L586.29 213.72L584.34 216.03L581.48 214.18L583.2 211.68L582.22 210.29L579.26 211.68L577.41 208.63L579.9 206.78L579.26 205.48L576.02 205.3L575.75 202.34L578.76 201.97L578.76 199.56L576.02 198.08L577.13 195.22L579.9 195.86L581.01 194.01L578.98 191.42L581.01 189.48L583.2 191.42L585.08 190.13L584.07 186.8L586.57 185.5L588.23 188.37L589.9 187.82L590.36 184.81L593.6 184.81L593.87 187.82L595.63 188.09ZM589.78 192.65L588.55 193.12L587.41 193.75L586.38 194.53L585.47 195.44L584.69 196.47L584.06 197.61L583.59 198.84L583.3 200.14L583.2 201.51L583.3 202.87L583.59 204.18L584.06 205.41L584.69 206.54L585.47 207.58L586.38 208.49L587.41 209.27L588.55 209.9L589.78 210.37L591.08 210.66L592.45 210.76L593.82 210.66L595.12 210.37L596.35 209.9L597.48 209.27L598.52 208.49L599.43 207.58L600.21 206.54L600.84 205.41L601.31 204.18L601.6 202.87L601.7 201.51L601.6 200.14L601.31 198.84L600.84 197.61L600.21 196.47L599.43 195.44L598.52 194.53L597.48 193.75L596.35 193.12L595.12 192.65L593.82 192.36L592.45 192.26L591.08 192.36L589.78 192.65Z" id="b1l1lvphFR"></path><radialGradient id="gradientaN4RAwchh" gradientUnits="userSpaceOnUse" cx="585.94" cy="184.81" dx="602.62" dy="220.11" r="39.05"><stop style="stop-color: #1163b6;stop-opacity: 1" offset="0%"></stop><stop style="stop-color: #0a233e;stop-opacity: 1" offset="100%"></stop></radialGradient><path d="M552.68 227.56C552.68 234.46 547.08 240.06 540.18 240.06C533.28 240.06 527.68 234.46 527.68 227.56C527.68 220.66 533.28 215.06 540.18 215.06C547.08 215.06 552.68 220.66 552.68 227.56Z" id="g2rf3Ss3rz"></path></defs><g><g><use xlink:href="#c1HAltXCrT" opacity="1" fill="url(#gradienta2NE2EGMz)"></use><g><use xlink:href="#c1HAltXCrT" opacity="1" fill-opacity="0" stroke="#279aeb" stroke-width="0.25" stroke-opacity="1"></use></g></g><g><use xlink:href="#c1SViP5MYY" opacity="1" fill="url(#gradientaEUDXuO0L)"></use><g><use xlink:href="#c1SViP5MYY" opacity="1" fill-opacity="0" stroke="#279aeb" stroke-width="0.25" stroke-opacity="1"></use></g></g><g><use xlink:href="#b1l1lvphFR" opacity="1" fill="url(#gradientaN4RAwchh)"></use><g><use xlink:href="#b1l1lvphFR" opacity="1" fill-opacity="0" stroke="#279aeb" stroke-width="0.25" stroke-opacity="1"></use></g></g><g><g><use xlink:href="#g2rf3Ss3rz" opacity="1" fill-opacity="0" stroke="#929ca7" stroke-width="3" stroke-opacity="1"></use></g></g></g></svg>