<?xml version="1.0" encoding="UTF-8" standalone="no"?>
<!DOCTYPE svg PUBLIC "-//W3C//DTD SVG 1.1//EN" "http://www.w3.org/Graphics/SVG/1.1/DTD/svg11.dtd">
<svg version="1.1" xmlns="http://www.w3.org/2000/svg" xmlns:xlink="http://www.w3.org/1999/xlink" preserveAspectRatio="xMidYMid meet" viewBox="336.60075682103394 316.88359040310206 127.17484220514427 89.91934809021592" width="123.17" height="85.92"><defs><path d="M429.63 321.17L431.39 318.58L434.35 319.87L433.24 322.83L434.81 323.85L437.31 321.72L439.25 323.85L437.31 326.44L438.51 327.92L441.56 327.55L442.49 330.14L439.9 331.62L440.14 333.75L443.15 334.21L443.15 337.45L439.9 337.45L439.25 339.48L441.84 341.24L440.41 344.11L437.77 342.35L436.29 344.11L437.77 346.79L435.37 348.64L433.24 346.14L431.39 347.25L431.76 350.4L428.98 351.28L427.87 348.27L425.56 348.27L425.28 351.04L422.23 350.77L422.23 347.53L420.29 346.79L418.34 349.1L415.48 347.25L417.2 344.75L416.22 343.37L413.26 344.75L411.41 341.7L413.9 339.85L413.26 338.56L410.02 338.37L409.75 335.41L412.76 335.04L412.76 332.64L410.02 331.16L411.13 328.29L413.9 328.94L415.01 327.09L412.98 324.5L415.01 322.55L417.2 324.5L419.08 323.2L418.07 319.87L420.57 318.58L422.23 321.44L423.9 320.89L424.36 317.88L427.6 317.88L427.87 320.89L429.63 321.17ZM423.78 325.72L422.55 326.19L421.41 326.82L420.38 327.6L419.47 328.51L418.69 329.55L418.06 330.68L417.59 331.91L417.3 333.21L417.2 334.58L417.3 335.95L417.59 337.25L418.06 338.48L418.69 339.62L419.47 340.65L420.38 341.56L421.41 342.34L422.55 342.97L423.78 343.44L425.08 343.73L426.45 343.83L427.82 343.73L429.12 343.44L430.35 342.97L431.48 342.34L432.52 341.56L433.43 340.65L434.21 339.62L434.84 338.48L435.31 337.25L435.6 335.95L435.7 334.58L435.6 333.21L435.31 331.91L434.84 330.68L434.21 329.55L433.43 328.51L432.52 327.6L431.48 326.82L430.35 326.19L429.12 325.72L427.82 325.43L426.45 325.33L425.08 325.43L423.78 325.72Z" id="b2xb9krj6A"></path><radialGradient id="gradientd6k4dLRIn" gradientUnits="userSpaceOnUse" cx="419.94" cy="317.88" dx="435.24" dy="349.25" r="34.9"><stop style="stop-color: #c4c9cd;stop-opacity: 1" offset="0%"></stop><stop style="stop-color: #0a233e;stop-opacity: 1" offset="100%"></stop></radialGradient><path d="M380.55 331.65L384.35 326.05L390.74 328.85L388.34 335.25L391.74 337.44L397.14 332.85L401.34 337.44L397.14 343.04L399.74 346.24L406.33 345.44L408.33 351.03L402.73 354.23L403.25 358.83L409.75 359.83L409.75 366.82L402.73 366.82L401.34 371.22L406.93 375.02L403.85 381.21L398.14 377.42L394.94 381.21L398.14 387.01L392.94 391.01L388.34 385.61L384.35 388.01L385.15 394.81L379.15 396.71L376.75 390.21L371.76 390.21L371.16 396.2L364.56 395.61L364.56 388.61L360.36 387.01L356.17 392.01L349.97 388.01L353.69 382.61L351.57 379.62L345.17 382.61L341.18 376.02L346.57 372.02L345.17 369.22L338.18 368.82L337.6 362.43L344.1 361.63L344.1 356.43L338.18 353.23L340.58 347.04L346.57 348.44L348.97 344.44L344.57 338.84L348.97 334.65L353.69 338.84L357.76 336.04L355.57 328.85L360.96 326.05L364.56 332.25L368.16 331.06L369.16 324.56L376.15 324.56L376.75 331.06L380.55 331.65ZM371.07 340.81L369.81 341.02L368.57 341.3L367.36 341.66L366.19 342.1L365.05 342.6L363.95 343.17L362.89 343.81L361.88 344.5L360.91 345.26L359.99 346.07L359.12 346.94L358.31 347.86L357.55 348.83L356.85 349.85L356.22 350.9L355.65 352L355.14 353.14L354.71 354.32L354.35 355.52L354.06 356.76L353.86 358.03L353.73 359.32L353.69 360.63L353.73 361.94L353.86 363.24L354.06 364.5L354.35 365.74L354.71 366.95L355.14 368.12L355.65 369.26L356.22 370.36L356.85 371.42L357.55 372.43L358.31 373.4L359.12 374.32L359.99 375.19L360.91 376L361.88 376.76L362.89 377.46L363.95 378.09L365.05 378.66L366.19 379.17L367.36 379.6L368.57 379.96L369.81 380.24L371.07 380.45L372.36 380.58L373.68 380.62L374.99 380.58L376.28 380.45L377.55 380.24L378.78 379.96L379.99 379.6L381.17 379.17L382.3 378.66L383.4 378.09L384.46 377.46L385.48 376.76L386.45 376L387.37 375.19L388.23 374.32L389.05 373.4L389.8 372.43L390.5 371.42L391.14 370.36L391.71 369.26L392.21 368.12L392.64 366.95L393 365.74L393.29 364.5L393.49 363.24L393.62 361.94L393.66 360.63L393.62 359.32L393.49 358.03L393.29 356.76L393 355.52L392.64 354.32L392.21 353.14L391.71 352L391.14 350.9L390.5 349.85L389.8 348.83L389.05 347.86L388.23 346.94L387.37 346.07L386.45 345.26L385.48 344.5L384.46 343.81L383.4 343.17L382.3 342.6L381.17 342.1L379.99 341.66L378.78 341.3L377.55 341.02L376.28 340.81L374.99 340.69L373.68 340.64L372.36 340.69L371.07 340.81Z" id="a76cxl9VBz"></path><radialGradient id="gradienta404ws7OgW" gradientUnits="userSpaceOnUse" cx="359.6" cy="324.56" dx="392.66" dy="392.33" r="75.41"><stop style="stop-color: #c4c9cd;stop-opacity: 1" offset="0%"></stop><stop style="stop-color: #0a233e;stop-opacity: 1" offset="100%"></stop></radialGradient><path d="M443.94 356.97L448.18 358.83L446.59 363.06L448.84 364.52L452.41 361.47L455.2 364.52L452.41 368.23L454.14 370.35L458.51 369.82L459.83 373.53L456.12 375.65L456.47 378.7L460.78 379.36L460.78 384L456.12 384L455.2 386.91L458.91 389.43L456.86 393.53L453.08 391.02L450.96 393.53L453.08 397.38L449.63 400.03L446.59 396.45L443.94 398.04L444.47 402.54L440.49 403.8L438.9 399.49L435.59 399.49L435.19 403.47L430.82 403.07L430.82 398.44L428.04 397.38L425.26 400.69L421.15 398.04L423.62 394.46L422.21 392.47L417.97 394.46L415.32 390.09L418.9 387.44L417.97 385.59L413.33 385.32L412.95 381.08L417.26 380.55L417.26 377.11L413.33 374.99L414.92 370.88L418.9 371.81L420.49 369.16L417.57 365.45L420.49 362.67L423.62 365.45L426.32 363.59L424.86 358.83L428.44 356.97L430.82 361.08L433.21 360.29L433.87 355.98L438.5 355.98L438.9 360.29L441.42 360.68L441.42 360.68L443.94 356.97ZM432.93 367.24L431.71 367.69L430.55 368.24L429.46 368.91L428.44 369.67L427.5 370.53L426.64 371.47L425.88 372.49L425.22 373.58L424.66 374.74L424.21 375.95L423.89 377.22L423.68 378.54L423.62 379.89L423.68 381.24L423.89 382.56L424.21 383.83L424.66 385.05L425.22 386.2L425.88 387.3L426.64 388.32L427.5 389.26L428.44 390.11L429.46 390.87L430.55 391.54L431.71 392.1L432.93 392.54L434.2 392.87L435.51 393.07L436.86 393.14L438.22 393.07L439.53 392.87L440.8 392.54L442.02 392.1L443.18 391.54L444.27 390.87L445.29 390.11L446.23 389.26L447.08 388.32L447.85 387.3L448.51 386.2L449.07 385.05L449.52 383.83L449.84 382.56L450.04 381.24L450.11 379.89L450.04 378.54L449.84 377.22L449.52 375.95L449.07 374.74L448.51 373.58L447.85 372.49L447.08 371.47L446.23 370.53L445.29 369.67L444.27 368.91L443.18 368.24L442.02 367.69L440.8 367.24L439.53 366.91L438.22 366.71L436.86 366.64L435.51 366.71L434.2 366.91L434.2 366.91L432.93 367.24Z" id="b22pjp7Ohw"></path><radialGradient id="gradienta5irjNa4sg" gradientUnits="userSpaceOnUse" cx="427.53" cy="355.98" dx="449.45" dy="400.9" r="49.98"><stop style="stop-color: #c4c9cd;stop-opacity: 1" offset="0%"></stop><stop style="stop-color: #0a233e;stop-opacity: 1" offset="100%"></stop></radialGradient><path d="M393.68 360.63C393.68 371.67 384.71 380.63 373.68 380.63C362.64 380.63 353.68 371.67 353.68 360.63C353.68 349.59 362.64 340.63 373.68 340.63C384.71 340.63 393.68 349.59 393.68 360.63Z" id="c42w2WWxuk"></path><radialGradient id="gradientc10tNhmjy" gradientUnits="userSpaceOnUse" cx="364.24" cy="345.62" dx="385.43" dy="376.9" r="37.79"><stop style="stop-color: #105daa;stop-opacity: 1" offset="0%"></stop><stop style="stop-color: #0a233e;stop-opacity: 1" offset="100%"></stop></radialGradient><path d="M450.48 379.95C450.48 387.43 444.4 393.5 436.92 393.5C429.44 393.5 423.36 387.43 423.36 379.95C423.36 372.47 429.44 366.39 436.92 366.39C444.4 366.39 450.48 372.47 450.48 379.95Z" id="d5mFEdYn8D"></path><radialGradient id="gradienta4vVs0whF" gradientUnits="userSpaceOnUse" cx="430.52" cy="369.77" dx="444.89" dy="390.98" r="25.61"><stop style="stop-color: #105daa;stop-opacity: 1" offset="0%"></stop><stop style="stop-color: #0a233e;stop-opacity: 1" offset="100%"></stop></radialGradient><path d="M435.7 334.58C435.7 339.69 431.55 343.83 426.45 343.83C421.34 343.83 417.2 339.69 417.2 334.58C417.2 329.48 421.34 325.33 426.45 325.33C431.55 325.33 435.7 329.48 435.7 334.58Z" id="a331DugEmq"></path><radialGradient id="gradientaRXWqMKNm" gradientUnits="userSpaceOnUse" cx="422.08" cy="327.64" dx="431.89" dy="342.11" r="17.48"><stop style="stop-color: #105daa;stop-opacity: 1" offset="0%"></stop><stop style="stop-color: #0a233e;stop-opacity: 1" offset="100%"></stop></radialGradient></defs><g><g><use xlink:href="#b2xb9krj6A" opacity="1" fill="url(#gradientd6k4dLRIn)"></use><g><use xlink:href="#b2xb9krj6A" opacity="1" fill-opacity="0" stroke="#0a233e" stroke-width="0.25" stroke-opacity="1"></use></g></g><g><use xlink:href="#a76cxl9VBz" opacity="1" fill="url(#gradienta404ws7OgW)"></use><g><use xlink:href="#a76cxl9VBz" opacity="1" fill-opacity="0" stroke="#0a233e" stroke-width="0.25" stroke-opacity="1"></use></g></g><g><use xlink:href="#b22pjp7Ohw" opacity="1" fill="url(#gradienta5irjNa4sg)"></use><g><use xlink:href="#b22pjp7Ohw" opacity="1" fill-opacity="0" stroke="#0a233e" stroke-width="0.25" stroke-opacity="1"></use></g></g><g><use xlink:href="#c42w2WWxuk" opacity="1" fill="url(#gradientc10tNhmjy)"></use></g><g><use xlink:href="#d5mFEdYn8D" opacity="1" fill="url(#gradienta4vVs0whF)"></use></g><g><use xlink:href="#a331DugEmq" opacity="1" fill="url(#gradientaRXWqMKNm)"></use></g></g></svg>