<?xml version="1.0" encoding="UTF-8" standalone="no"?>
<!DOCTYPE svg PUBLIC "-//W3C//DTD SVG 1.1//EN" "http://www.w3.org/Graphics/SVG/1.1/DTD/svg11.dtd">
<svg version="1.1" xmlns="http://www.w3.org/2000/svg" xmlns:xlink="http://www.w3.org/1999/xlink" preserveAspectRatio="xMidYMid meet" viewBox="355.0423152625924 319 127.17484220514427 89.91934809021592" width="415.72" height="289.98"><defs><path d="M448.07 323.28L449.83 320.69L452.79 321.99L451.68 324.95L453.25 325.97L455.75 323.84L457.69 325.97L455.75 328.56L456.95 330.04L460.01 329.67L460.93 332.26L458.34 333.74L458.58 335.86L461.59 336.33L461.59 339.56L458.34 339.56L457.69 341.6L460.28 343.36L458.86 346.22L456.21 344.47L454.73 346.22L456.21 348.91L453.81 350.76L451.68 348.26L449.83 349.37L450.2 352.51L447.42 353.39L446.31 350.38L444 350.38L443.72 353.16L440.67 352.88L440.67 349.65L438.73 348.91L436.79 351.22L433.92 349.37L435.64 346.87L434.66 345.48L431.7 346.87L429.85 343.82L432.35 341.97L431.7 340.67L428.46 340.49L428.19 337.53L431.2 337.16L431.2 334.75L428.46 333.27L429.57 330.41L432.35 331.05L433.46 329.2L431.42 326.61L433.46 324.67L435.64 326.61L437.53 325.32L436.51 321.99L439.01 320.69L440.67 323.56L442.34 323.01L442.8 320L446.04 320L446.31 323.01L448.07 323.28ZM442.22 327.84L440.99 328.31L439.86 328.94L438.82 329.72L437.91 330.63L437.13 331.66L436.5 332.8L436.03 334.03L435.74 335.33L435.64 336.7L435.74 338.06L436.03 339.37L436.5 340.6L437.13 341.73L437.91 342.76L438.82 343.68L439.86 344.46L440.99 345.09L442.22 345.56L443.52 345.85L444.89 345.95L446.26 345.85L447.56 345.56L448.79 345.09L449.93 344.46L450.96 343.68L451.87 342.76L452.65 341.73L453.28 340.6L453.75 339.37L454.04 338.06L454.14 336.7L454.04 335.33L453.75 334.03L453.28 332.8L452.65 331.66L451.87 330.63L450.96 329.72L449.93 328.94L448.79 328.31L447.56 327.84L446.26 327.55L444.89 327.45L443.52 327.55L442.22 327.84Z" id="bxyD8fVBE"></path><radialGradient id="gradientbnubSU5gk" gradientUnits="userSpaceOnUse" cx="438.38" cy="320" dx="455.07" dy="348.81" r="33.29"><stop style="stop-color: #b1b6ba;stop-opacity: 1" offset="0%"></stop><stop style="stop-color: #383e44;stop-opacity: 1" offset="100%"></stop></radialGradient><path d="M398.99 333.76L402.79 328.17L409.18 330.97L406.79 337.36L410.18 339.56L415.58 334.96L419.78 339.56L415.58 345.16L418.18 348.35L424.77 347.56L426.77 353.15L421.18 356.35L421.69 360.95L428.19 361.95L428.19 368.94L421.18 368.94L419.78 373.34L425.37 377.14L422.29 383.33L416.58 379.53L413.38 383.33L416.58 389.13L411.38 393.12L406.79 387.73L402.79 390.13L403.59 396.92L397.59 398.82L395.19 392.32L390.2 392.32L389.6 398.32L383 397.72L383 390.73L378.8 389.13L374.61 394.12L368.41 390.13L372.13 384.73L370.01 381.73L363.61 384.73L359.62 378.13L365.01 374.14L363.61 371.34L356.62 370.94L356.04 364.54L362.54 363.74L362.54 358.55L356.62 355.35L359.02 349.15L365.01 350.55L367.41 346.56L363.02 340.96L367.41 336.76L372.13 340.96L376.21 338.16L374.01 330.97L379.4 328.17L383 334.36L386.6 333.17L387.6 326.67L394.59 326.67L395.19 333.17L398.99 333.76ZM389.51 342.93L388.25 343.14L387.01 343.42L385.8 343.78L384.63 344.21L383.49 344.72L382.39 345.29L381.33 345.92L380.32 346.62L379.35 347.38L378.43 348.19L377.56 349.06L376.75 349.98L375.99 350.95L375.29 351.96L374.66 353.02L374.09 354.12L373.58 355.26L373.15 356.43L372.79 357.64L372.51 358.88L372.3 360.14L372.17 361.43L372.13 362.75L372.17 364.06L372.3 365.35L372.51 366.62L372.79 367.86L373.15 369.06L373.58 370.24L374.09 371.37L374.66 372.47L375.29 373.53L375.99 374.55L376.75 375.52L377.56 376.44L378.43 377.31L379.35 378.12L380.32 378.88L381.33 379.57L382.39 380.21L383.49 380.78L384.63 381.28L385.8 381.71L387.01 382.07L388.25 382.36L389.51 382.57L390.8 382.69L392.12 382.73L393.43 382.69L394.72 382.57L395.99 382.36L397.23 382.07L398.43 381.71L399.61 381.28L400.74 380.78L401.84 380.21L402.9 379.57L403.92 378.88L404.89 378.12L405.81 377.31L406.68 376.44L407.49 375.52L408.25 374.55L408.94 373.53L409.58 372.47L410.15 371.37L410.65 370.24L411.09 369.06L411.45 367.86L411.73 366.62L411.94 365.35L412.06 364.06L412.1 362.75L412.06 361.43L411.94 360.14L411.73 358.88L411.45 357.64L411.09 356.43L410.65 355.26L410.15 354.12L409.58 353.02L408.94 351.96L408.25 350.95L407.49 349.98L406.68 349.06L405.81 348.19L404.89 347.38L403.92 346.62L402.9 345.92L401.84 345.29L400.74 344.72L399.61 344.21L398.43 343.78L397.23 343.42L395.99 343.14L394.72 342.93L393.43 342.8L392.12 342.76L390.8 342.8L389.51 342.93Z" id="f5w4sdLt1B"></path><radialGradient id="gradientb28sArZBu" gradientUnits="userSpaceOnUse" cx="378.04" cy="326.67" dx="414.1" dy="402.95" r="84.37"><stop style="stop-color: #1163b6;stop-opacity: 1" offset="0%"></stop><stop style="stop-color: #0a233e;stop-opacity: 1" offset="100%"></stop></radialGradient><path d="M462.38 359.09L466.62 360.94L465.03 365.18L467.28 366.64L470.86 363.59L473.64 366.64L470.86 370.35L472.58 372.47L476.95 371.94L478.27 375.65L474.57 377.77L474.91 380.81L479.22 381.48L479.22 386.11L474.57 386.11L473.64 389.03L477.35 391.54L475.3 395.65L471.52 393.13L469.4 395.65L471.52 399.49L468.07 402.14L465.03 398.56L462.38 400.15L462.91 404.66L458.93 405.92L457.34 401.61L454.03 401.61L453.63 405.59L449.26 405.19L449.26 400.55L446.48 399.49L443.7 402.8L439.59 400.15L442.06 396.58L440.65 394.59L436.41 396.58L433.76 392.21L437.34 389.56L436.41 387.7L431.78 387.44L431.39 383.2L435.7 382.67L435.7 379.22L431.78 377.1L433.37 373L437.34 373.92L438.93 371.27L436.01 367.57L438.93 364.78L442.06 367.57L444.76 365.71L443.3 360.94L446.88 359.09L449.26 363.19L451.65 362.4L452.31 358.1L456.95 358.1L457.34 362.4L459.86 362.8L459.86 362.8L462.38 359.09ZM451.37 369.36L450.15 369.8L448.99 370.36L447.9 371.02L446.88 371.79L445.94 372.64L445.08 373.58L444.32 374.6L443.66 375.69L443.1 376.85L442.65 378.07L442.33 379.34L442.13 380.65L442.06 382.01L442.13 383.36L442.33 384.68L442.65 385.94L443.1 387.16L443.66 388.32L444.32 389.41L445.08 390.43L445.94 391.37L446.88 392.23L447.9 392.99L448.99 393.66L450.15 394.21L451.37 394.66L452.64 394.99L453.95 395.19L455.31 395.26L456.66 395.19L457.97 394.99L459.24 394.66L460.46 394.21L461.62 393.66L462.71 392.99L463.73 392.23L464.67 391.37L465.53 390.43L466.29 389.41L466.95 388.32L467.51 387.16L467.96 385.94L468.28 384.68L468.48 383.36L468.55 382.01L468.48 380.65L468.28 379.34L467.96 378.07L467.51 376.85L466.95 375.69L466.29 374.6L465.53 373.58L464.67 372.64L463.73 371.79L462.71 371.02L461.62 370.36L460.46 369.8L459.24 369.36L457.97 369.03L456.66 368.83L455.31 368.76L453.95 368.83L452.64 369.03L452.64 369.03L451.37 369.36Z" id="a1klUuEMpM"></path><radialGradient id="gradientchvxTUKJQ" gradientUnits="userSpaceOnUse" cx="445.98" cy="358.1" dx="469.88" dy="408.65" r="55.92"><stop style="stop-color: #1163b6;stop-opacity: 1" offset="0%"></stop><stop style="stop-color: #0a233e;stop-opacity: 1" offset="100%"></stop></radialGradient></defs><g><g><use xlink:href="#bxyD8fVBE" opacity="1" fill="url(#gradientbnubSU5gk)"></use><g><use xlink:href="#bxyD8fVBE" opacity="1" fill-opacity="0" stroke="#555b61" stroke-width="0.25" stroke-opacity="1"></use></g></g><g><use xlink:href="#f5w4sdLt1B" opacity="1" fill="url(#gradientb28sArZBu)"></use><g><use xlink:href="#f5w4sdLt1B" opacity="1" fill-opacity="0" stroke="#279aeb" stroke-width="0.25" stroke-opacity="1"></use></g></g><g><use xlink:href="#a1klUuEMpM" opacity="1" fill="url(#gradientchvxTUKJQ)"></use><g><use xlink:href="#a1klUuEMpM" opacity="1" fill-opacity="0" stroke="#279aeb" stroke-width="0.25" stroke-opacity="1"></use></g></g></g></svg>