<?xml version="1.0" encoding="UTF-8" standalone="no"?>
<!DOCTYPE svg PUBLIC "-//W3C//DTD SVG 1.1//EN" "http://www.w3.org/Graphics/SVG/1.1/DTD/svg11.dtd">
<svg version="1.1" xmlns="http://www.w3.org/2000/svg" xmlns:xlink="http://www.w3.org/1999/xlink" preserveAspectRatio="xMidYMid meet" viewBox="42.02733926288181 463.7716951905709 153.6488843844267 153.64888438442676" width="149.65" height="149.65"><defs><path d="M192.68 539.6C192.68 580.89 159.15 614.42 117.85 614.42C76.56 614.42 43.03 580.89 43.03 539.6C43.03 498.3 76.56 464.77 117.85 464.77C159.15 464.77 192.68 498.3 192.68 539.6Z" id="b213dwaxB"></path><path d="M184.29 539.07C184.29 575.57 154.67 605.19 118.18 605.19C81.69 605.19 52.06 575.57 52.06 539.07C52.06 502.58 81.69 472.96 118.18 472.96C154.67 472.96 184.29 502.58 184.29 539.07Z" id="f8bYPw1eb"></path><radialGradient id="gradientb3J44NqgaM" gradientUnits="userSpaceOnUse" cx="85.05" cy="447.01" dx="147.76" dy="550.43" r="120.95"><stop style="stop-color: #147de6;stop-opacity: 1" offset="0%"></stop><stop style="stop-color: #0a233e;stop-opacity: 1" offset="100%"></stop></radialGradient><path d="M122.63 479.97L124.99 480.21L127.31 480.54L127.81 480.64L123.85 504.64L91.23 528.64L64.56 514.64L64.47 514.61L65.03 513.34L66.03 511.32L67.11 509.33L68.26 507.4L69.49 505.51L70.78 503.67L72.14 501.89L73.57 500.16L75.06 498.49L76.61 496.87L78.23 495.32L79.9 493.83L81.63 492.4L83.41 491.04L85.25 489.75L87.13 488.53L89.07 487.37L91.05 486.3L93.08 485.29L95.15 484.37L97.27 483.52L99.42 482.76L101.61 482.07L103.84 481.48L106.1 480.97L108.4 480.54L110.72 480.21L113.07 479.97L115.45 479.83L117.85 479.78L120.25 479.83L122.63 479.97Z" id="c1qrmxJmzc"></path><radialGradient id="gradientePj5A4bBX" gradientUnits="userSpaceOnUse" cx="73.83" cy="484.3" dx="112.87" dy="528.64" r="59.08"><stop style="stop-color: #38bfff;stop-opacity: 1" offset="0%"></stop><stop style="stop-color: #054ec4;stop-opacity: 1" offset="100%"></stop></radialGradient><path d="M137.65 593.1L136.61 593.47L134.42 594.15L132.19 594.75L129.93 595.26L127.63 595.68L125.31 596.02L122.96 596.25L120.58 596.4L118.18 596.45L115.77 596.4L113.4 596.25L111.04 596.02L108.72 595.68L106.43 595.26L104.17 594.75L101.94 594.15L99.75 593.47L97.59 592.71L95.48 591.86L93.41 590.94L91.38 589.93L89.4 588.85L87.46 587.7L85.57 586.48L83.74 585.19L81.95 583.83L80.22 582.4L78.55 580.91L76.94 579.35L75.38 577.74L73.89 576.07L72.47 574.34L71.1 572.56L69.81 570.72L68.59 568.83L67.44 566.9L66.36 564.91L65.36 562.88L64.43 560.81L63.58 558.7L62.82 556.54L62.14 554.35L61.93 553.58L93.23 545.97L127.81 570.31L137.65 593.1Z" id="eWSe2iPhM"></path><radialGradient id="gradienta59OY1EIoA" gradientUnits="userSpaceOnUse" cx="73.12" cy="550.64" dx="119.79" dy="596.45" r="65.39"><stop style="stop-color: #38bfff;stop-opacity: 1" offset="0%"></stop><stop style="stop-color: #054ec4;stop-opacity: 1" offset="100%"></stop></radialGradient><path d="M163.89 502.22L165.25 504.01L166.54 505.84L167.77 507.73L168.92 509.67L170 511.65L171 513.68L171.92 515.75L172.77 517.86L173.53 520.02L174.22 522.21L174.81 524.44L175.32 526.7L175.75 528.99L176.08 531.31L176.32 533.67L176.46 536.04L176.51 538.45L176.46 540.85L176.32 543.23L176.08 545.58L175.75 547.9L175.32 550.2L174.81 552.46L174.22 554.69L173.53 556.88L172.77 559.03L171.92 561.14L171 563.22L170 565.25L168.92 567.23L167.77 569.17L166.54 571.05L166.5 571.11L142.23 557.03L147.56 511.97L161.58 499.5L162.46 500.49L163.89 502.22Z" id="cVYUJcpA"></path><radialGradient id="gradienta2gZkJJYm" gradientUnits="userSpaceOnUse" cx="147.3" cy="506.12" dx="168.43" dy="571.11" r="68.33"><stop style="stop-color: #38bfff;stop-opacity: 1" offset="0%"></stop><stop style="stop-color: #054ec4;stop-opacity: 1" offset="100%"></stop></radialGradient><path d="M154.91 539.07C154.91 558.85 138.86 574.91 119.08 574.91C99.3 574.91 83.24 558.85 83.24 539.07C83.24 519.3 99.3 503.24 119.08 503.24C138.86 503.24 154.91 519.3 154.91 539.07Z" id="a3KLvYGAFd"></path><radialGradient id="gradienta2M8ZD7ZYG" gradientUnits="userSpaceOnUse" cx="101.95" cy="493.07" dx="137.64" dy="535.31" r="55.3"><stop style="stop-color: #147de6;stop-opacity: 1" offset="0%"></stop><stop style="stop-color: #0a233e;stop-opacity: 1" offset="100%"></stop></radialGradient></defs><g><g><use xlink:href="#b213dwaxB" opacity="1" fill="#adb6bf" fill-opacity="1"></use><g><use xlink:href="#b213dwaxB" opacity="1" fill-opacity="0" stroke="#6c757d" stroke-width="0.25" stroke-opacity="1"></use></g></g><g><use xlink:href="#f8bYPw1eb" opacity="1" fill="url(#gradientb3J44NqgaM)"></use></g><g><use xlink:href="#c1qrmxJmzc" opacity="1" fill="url(#gradientePj5A4bBX)"></use></g><g><use xlink:href="#eWSe2iPhM" opacity="1" fill="url(#gradienta59OY1EIoA)"></use></g><g><use xlink:href="#cVYUJcpA" opacity="1" fill="url(#gradienta2gZkJJYm)"></use></g><g><use xlink:href="#a3KLvYGAFd" opacity="1" fill="url(#gradienta2M8ZD7ZYG)"></use></g></g></svg>