<?xml version="1.0" encoding="UTF-8" standalone="no"?>
<!DOCTYPE svg PUBLIC "-//W3C//DTD SVG 1.1//EN" "http://www.w3.org/Graphics/SVG/1.1/DTD/svg11.dtd">
<svg version="1.1" xmlns="http://www.w3.org/2000/svg" xmlns:xlink="http://www.w3.org/1999/xlink" preserveAspectRatio="xMidYMid meet" viewBox="16.978256255458177 463.7716951905709 153.6488843844267 153.64888438442676" width="149.65" height="149.65"><defs><path d="M167.63 539.6C167.63 580.89 134.1 614.42 92.8 614.42C51.51 614.42 17.98 580.89 17.98 539.6C17.98 498.3 51.51 464.77 92.8 464.77C134.1 464.77 167.63 498.3 167.63 539.6Z" id="g63E1UKhQ"></path><path d="M159.24 539.07C159.24 575.57 129.62 605.19 93.13 605.19C56.64 605.19 27.01 575.57 27.01 539.07C27.01 502.58 56.64 472.96 93.13 472.96C129.62 472.96 159.24 502.58 159.24 539.07Z" id="aqS7tBlCj"></path><radialGradient id="gradientamaRa8kou" gradientUnits="userSpaceOnUse" cx="60" cy="447.01" dx="122.71" dy="550.43" r="120.95"><stop style="stop-color: #147de6;stop-opacity: 1" offset="0%"></stop><stop style="stop-color: #0a233e;stop-opacity: 1" offset="100%"></stop></radialGradient><path d="M97.58 479.97L99.94 480.21L102.26 480.54L102.76 480.64L98.8 504.64L66.18 528.64L39.52 514.64L39.42 514.61L39.98 513.34L40.98 511.32L42.06 509.33L43.21 507.4L44.44 505.51L45.73 503.67L47.09 501.89L48.52 500.16L50.01 498.49L51.56 496.87L53.18 495.32L54.85 493.83L56.58 492.4L58.36 491.04L60.2 489.75L62.08 488.53L64.02 487.37L66 486.3L68.03 485.29L70.11 484.37L72.22 483.52L74.37 482.76L76.56 482.07L78.79 481.48L81.05 480.97L83.35 480.54L85.67 480.21L88.02 479.97L90.4 479.83L92.8 479.78L95.21 479.83L97.58 479.97Z" id="b3Yl4XzA0a"></path><radialGradient id="gradientbnwS3joSz" gradientUnits="userSpaceOnUse" cx="48.78" cy="484.3" dx="87.82" dy="528.64" r="59.08"><stop style="stop-color: #38bfff;stop-opacity: 1" offset="0%"></stop><stop style="stop-color: #054ec4;stop-opacity: 1" offset="100%"></stop></radialGradient><path d="M112.6 593.1L111.56 593.47L109.37 594.15L107.14 594.75L104.88 595.26L102.58 595.68L100.26 596.02L97.91 596.25L95.53 596.4L93.13 596.45L90.73 596.4L88.35 596.25L85.99 596.02L83.67 595.68L81.38 595.26L79.12 594.75L76.89 594.15L74.7 593.47L72.54 592.71L70.43 591.86L68.36 590.94L66.33 589.93L64.35 588.85L62.41 587.7L60.52 586.48L58.69 585.19L56.9 583.83L55.17 582.4L53.5 580.91L51.89 579.35L50.33 577.74L48.84 576.07L47.42 574.34L46.06 572.56L44.76 570.72L43.54 568.83L42.39 566.9L41.31 564.91L40.31 562.88L39.38 560.81L38.54 558.7L37.77 556.54L37.09 554.35L36.88 553.58L68.18 545.97L102.76 570.31L112.6 593.1Z" id="anAHTrDHe"></path><radialGradient id="gradientbvKUFpFCF" gradientUnits="userSpaceOnUse" cx="48.07" cy="550.64" dx="94.74" dy="596.45" r="65.39"><stop style="stop-color: #38bfff;stop-opacity: 1" offset="0%"></stop><stop style="stop-color: #054ec4;stop-opacity: 1" offset="100%"></stop></radialGradient><path d="M138.84 502.22L140.2 504.01L141.49 505.84L142.72 507.73L143.87 509.67L144.95 511.65L145.95 513.68L146.87 515.75L147.72 517.86L148.49 520.02L149.17 522.21L149.77 524.44L150.28 526.7L150.7 528.99L151.03 531.31L151.27 533.67L151.41 536.04L151.46 538.45L151.41 540.85L151.27 543.23L151.03 545.58L150.7 547.9L150.28 550.2L149.77 552.46L149.17 554.69L148.49 556.88L147.72 559.03L146.87 561.14L145.95 563.22L144.95 565.25L143.87 567.23L142.72 569.17L141.49 571.05L141.45 571.11L117.18 557.03L122.52 511.97L136.53 499.5L137.41 500.49L138.84 502.22Z" id="i6FKRyPEly"></path><radialGradient id="gradienta4mCSwxx3u" gradientUnits="userSpaceOnUse" cx="122.25" cy="506.12" dx="143.38" dy="571.11" r="68.33"><stop style="stop-color: #38bfff;stop-opacity: 1" offset="0%"></stop><stop style="stop-color: #054ec4;stop-opacity: 1" offset="100%"></stop></radialGradient><path d="M129.86 539.07C129.86 558.85 113.81 574.91 94.03 574.91C74.25 574.91 58.19 558.85 58.19 539.07C58.19 519.3 74.25 503.24 94.03 503.24C113.81 503.24 129.86 519.3 129.86 539.07Z" id="cl5eZrynf"></path><radialGradient id="gradienta7ywdyR4hv" gradientUnits="userSpaceOnUse" cx="76.9" cy="493.07" dx="112.6" dy="535.31" r="55.3"><stop style="stop-color: #147de6;stop-opacity: 1" offset="0%"></stop><stop style="stop-color: #0a233e;stop-opacity: 1" offset="100%"></stop></radialGradient><path d="M123.94 539.07C123.94 555.58 110.54 568.98 94.03 568.98C77.52 568.98 64.12 555.58 64.12 539.07C64.12 522.57 77.52 509.16 94.03 509.16C110.54 509.16 123.94 522.57 123.94 539.07Z" id="b23nbqHXkc"></path></defs><g><g><g><use xlink:href="#g63E1UKhQ" opacity="1" fill-opacity="0" stroke="#39b0ed" stroke-width="1" stroke-opacity="1"></use></g></g><g><use xlink:href="#aqS7tBlCj" opacity="1" fill="url(#gradientamaRa8kou)"></use></g><g><use xlink:href="#b3Yl4XzA0a" opacity="1" fill="url(#gradientbnwS3joSz)"></use></g><g><use xlink:href="#anAHTrDHe" opacity="1" fill="url(#gradientbvKUFpFCF)"></use></g><g><use xlink:href="#i6FKRyPEly" opacity="1" fill="url(#gradienta4mCSwxx3u)"></use></g><g><use xlink:href="#cl5eZrynf" opacity="1" fill="url(#gradienta7ywdyR4hv)"></use></g><g><g><use xlink:href="#b23nbqHXkc" opacity="1" fill-opacity="0" stroke="#39b0ed" stroke-width="1" stroke-opacity="1"></use></g></g></g></svg>