<?xml version="1.0" encoding="UTF-8" standalone="no"?>
<!DOCTYPE svg PUBLIC "-//W3C//DTD SVG 1.1//EN" "http://www.w3.org/Graphics/SVG/1.1/DTD/svg11.dtd">
<svg version="1.1" xmlns="http://www.w3.org/2000/svg" xmlns:xlink="http://www.w3.org/1999/xlink" preserveAspectRatio="xMidYMid meet" viewBox="188.01110234078146 468.4653916486984 153.6488843844267 153.64888438442676" width="149.65" height="149.65"><defs><path d="M338.66 544.29C338.66 585.59 305.13 619.11 263.84 619.11C222.54 619.11 189.01 585.59 189.01 544.29C189.01 502.99 222.54 469.47 263.84 469.47C305.13 469.47 338.66 502.99 338.66 544.29Z" id="bCDpH7DDK"></path><radialGradient id="gradientfbS1mCkra" gradientUnits="userSpaceOnUse" cx="206.08" cy="481.7" dx="296.59" dy="613.25" r="159.68"><stop style="stop-color: #dee2e6;stop-opacity: 1" offset="0%"></stop><stop style="stop-color: #343a40;stop-opacity: 1" offset="100%"></stop></radialGradient><path d="M330.28 543.77C330.28 580.26 300.65 609.88 264.16 609.88C227.67 609.88 198.04 580.26 198.04 543.77C198.04 507.28 227.67 477.65 264.16 477.65C300.65 477.65 330.28 507.28 330.28 543.77Z" id="b1c5sKjSCD"></path><radialGradient id="gradienta2D0lVdfhr" gradientUnits="userSpaceOnUse" cx="231.03" cy="451.7" dx="293.74" dy="555.12" r="120.95"><stop style="stop-color: #147de6;stop-opacity: 1" offset="0%"></stop><stop style="stop-color: #0a233e;stop-opacity: 1" offset="100%"></stop></radialGradient><path d="M268.62 484.67L270.97 484.91L273.29 485.24L273.79 485.33L269.84 509.33L237.22 533.33L210.55 519.33L210.45 519.31L211.01 518.04L212.02 516.01L213.1 514.03L214.25 512.09L215.47 510.2L216.76 508.37L218.12 506.58L219.55 504.85L221.04 503.18L222.6 501.57L224.21 500.01L225.88 498.52L227.61 497.1L229.39 495.74L231.23 494.44L233.12 493.22L235.05 492.07L237.04 490.99L239.07 489.99L241.14 489.06L243.25 488.22L245.41 487.45L247.6 486.77L249.82 486.17L252.09 485.66L254.38 485.24L256.7 484.91L259.05 484.67L261.43 484.52L263.84 484.47L266.24 484.52L268.62 484.67Z" id="h20f5tDtIN"></path><radialGradient id="gradienta5lT53CnaB" gradientUnits="userSpaceOnUse" cx="219.81" cy="488.99" dx="258.85" dy="533.33" r="59.08"><stop style="stop-color: #38bfff;stop-opacity: 1" offset="0%"></stop><stop style="stop-color: #054ec4;stop-opacity: 1" offset="100%"></stop></radialGradient><path d="M283.63 597.8L282.59 598.17L280.4 598.85L278.17 599.44L275.91 599.96L273.62 600.38L271.29 600.71L268.94 600.95L266.56 601.09L264.16 601.14L261.76 601.09L259.38 600.95L257.03 600.71L254.7 600.38L252.41 599.96L250.15 599.44L247.92 598.85L245.73 598.17L243.58 597.4L241.46 596.55L239.39 595.63L237.36 594.63L235.38 593.55L233.44 592.4L231.56 591.17L229.72 589.88L227.94 588.52L226.21 587.09L224.53 585.6L222.92 584.05L221.37 582.43L219.88 580.76L218.45 579.03L217.09 577.25L215.8 575.41L214.57 573.53L213.42 571.59L212.34 569.61L211.34 567.58L210.41 565.5L209.57 563.39L208.8 561.24L208.12 559.05L207.91 558.27L239.22 550.67L273.79 575L283.63 597.8Z" id="aXyDpvJzy"></path><radialGradient id="gradientag1j52TPE" gradientUnits="userSpaceOnUse" cx="219.1" cy="555.33" dx="265.77" dy="601.14" r="65.39"><stop style="stop-color: #38bfff;stop-opacity: 1" offset="0%"></stop><stop style="stop-color: #054ec4;stop-opacity: 1" offset="100%"></stop></radialGradient><path d="M309.87 506.92L311.23 508.7L312.53 510.54L313.75 512.42L314.9 514.36L315.98 516.34L316.98 518.37L317.91 520.44L318.75 522.56L319.52 524.71L320.2 526.9L320.8 529.13L321.31 531.39L321.73 533.68L322.06 536.01L322.3 538.36L322.45 540.74L322.49 543.14L322.45 545.54L322.3 547.92L322.06 550.27L321.73 552.6L321.31 554.89L320.8 557.15L320.2 559.38L319.52 561.57L318.75 563.72L317.91 565.84L316.98 567.91L315.98 569.94L314.9 571.92L313.75 573.86L312.53 575.75L312.49 575.8L288.22 561.73L293.55 516.67L307.56 504.2L308.45 505.19L309.87 506.92Z" id="cjlsqvZ4j"></path><radialGradient id="gradientcA0pyRdjK" gradientUnits="userSpaceOnUse" cx="293.28" cy="510.82" dx="314.41" dy="575.8" r="68.33"><stop style="stop-color: #38bfff;stop-opacity: 1" offset="0%"></stop><stop style="stop-color: #054ec4;stop-opacity: 1" offset="100%"></stop></radialGradient><path d="M300.9 543.77C300.9 563.55 284.84 579.6 265.06 579.6C245.28 579.6 229.23 563.55 229.23 543.77C229.23 523.99 245.28 507.93 265.06 507.93C284.84 507.93 300.9 523.99 300.9 543.77Z" id="c2NHllfnwh"></path><radialGradient id="gradientcDFwftmkV" gradientUnits="userSpaceOnUse" cx="247.93" cy="497.76" dx="283.63" dy="540" r="55.3"><stop style="stop-color: #147de6;stop-opacity: 1" offset="0%"></stop><stop style="stop-color: #0a233e;stop-opacity: 1" offset="100%"></stop></radialGradient></defs><g><g><use xlink:href="#bCDpH7DDK" opacity="1" fill="url(#gradientfbS1mCkra)"></use><g><use xlink:href="#bCDpH7DDK" opacity="1" fill-opacity="0" stroke="#6c757d" stroke-width="0.25" stroke-opacity="1"></use></g></g><g><use xlink:href="#b1c5sKjSCD" opacity="1" fill="url(#gradienta2D0lVdfhr)"></use></g><g><use xlink:href="#h20f5tDtIN" opacity="1" fill="url(#gradienta5lT53CnaB)"></use></g><g><use xlink:href="#aXyDpvJzy" opacity="1" fill="url(#gradientag1j52TPE)"></use></g><g><use xlink:href="#cjlsqvZ4j" opacity="1" fill="url(#gradientcA0pyRdjK)"></use></g><g><use xlink:href="#c2NHllfnwh" opacity="1" fill="url(#gradientcDFwftmkV)"></use></g></g></svg>