<?xml version="1.0" encoding="UTF-8" standalone="no"?>
<!DOCTYPE svg PUBLIC "-//W3C//DTD SVG 1.1//EN" "http://www.w3.org/Graphics/SVG/1.1/DTD/svg11.dtd">
<svg version="1.1" xmlns="http://www.w3.org/2000/svg" xmlns:xlink="http://www.w3.org/1999/xlink" preserveAspectRatio="xMidYMid meet" viewBox="329.2769112015612 171.37940671237894 76.22421658163626 76.07874712049838" width="72.22" height="72.08"><defs><path d="M387.27 208.5C387.27 220.02 377.92 229.38 366.39 229.38C354.86 229.38 345.5 220.02 345.5 208.5C345.5 196.97 354.86 187.61 366.39 187.61C377.92 187.61 387.27 196.97 387.27 208.5Z" id="ajQL5FBY7"></path><radialGradient id="gradienteUdr7sgB3" gradientUnits="userSpaceOnUse" cx="353.31" cy="192.61" dx="378.31" dy="224.38" r="40.43"><stop style="stop-color: #35b9fc;stop-opacity: 1" offset="0%"></stop><stop style="stop-color: #0c5dcc;stop-opacity: 1" offset="100%"></stop></radialGradient><path d="M372.61 179.38L376.3 173.71L382.75 176.39L380.48 182.83L383.92 184.96L389.22 180.26L393.51 184.77L389.42 190.45L392.08 193.59L398.66 192.66L400.77 198.22L395.24 201.53L395.84 206.11L402.36 206.98L402.5 213.98L395.48 214.12L394.17 218.54L399.84 222.23L396.88 228.48L391.1 224.8L387.97 228.66L391.29 234.39L386.17 238.49L381.47 233.18L377.52 235.66L378.45 242.44L372.49 244.46L369.97 238L364.97 238.1L364.49 244.11L357.88 243.64L357.75 236.65L353.52 235.13L349.42 240.21L343.15 236.34L346.76 230.87L344.58 227.91L338.24 231.04L334.12 224.52L339.44 220.42L337.98 217.65L330.98 217.39L330.28 211L336.76 210.07L336.66 204.88L330.67 201.8L332.95 195.56L338.97 196.84L341.29 192.79L336.78 187.29L341.1 183L345.9 187.11L349.92 184.23L347.58 177.08L352.92 174.17L356.64 180.3L360.21 179.04L361.08 172.52L368.08 172.38L368.8 178.87L372.61 179.38ZM363.32 188.73L362.06 188.97L360.82 189.27L359.62 189.66L358.46 190.11L357.33 190.64L356.24 191.23L355.2 191.89L354.19 192.6L353.24 193.38L352.34 194.21L351.49 195.1L350.69 196.03L349.95 197.02L349.28 198.04L348.66 199.12L348.11 200.23L347.63 201.37L347.22 202.56L346.89 203.77L346.63 205.01L346.44 206.28L346.34 207.58L346.33 208.89L346.4 210.2L346.55 211.49L346.78 212.75L347.09 213.98L347.47 215.18L347.93 216.35L348.45 217.48L349.04 218.57L349.7 219.61L350.42 220.61L351.19 221.57L352.03 222.47L352.91 223.32L353.85 224.12L354.83 224.85L355.86 225.53L356.93 226.15L358.04 226.69L359.19 227.17L360.37 227.58L361.58 227.92L362.83 228.18L364.1 228.36L365.39 228.46L366.7 228.48L368.02 228.41L369.3 228.26L370.57 228.03L371.8 227.72L373 227.34L374.16 226.88L375.29 226.36L376.38 225.76L377.42 225.11L378.43 224.39L379.38 223.61L380.28 222.78L381.13 221.9L381.93 220.96L382.67 219.98L383.35 218.95L383.96 217.88L384.51 216.77L384.99 215.62L385.4 214.44L385.73 213.22L385.99 211.98L386.18 210.71L386.28 209.42L386.29 208.1L386.22 206.79L386.07 205.5L385.84 204.24L385.53 203.01L385.15 201.81L384.69 200.65L384.17 199.52L383.58 198.43L382.92 197.38L382.2 196.38L381.43 195.43L380.6 194.52L379.71 193.67L378.78 192.88L377.79 192.14L376.76 191.46L375.69 190.85L374.58 190.3L373.43 189.82L372.25 189.41L371.04 189.07L369.79 188.81L368.52 188.63L367.23 188.53L365.92 188.51L364.61 188.58L363.32 188.73Z" id="a2caFh4Nr1"></path><radialGradient id="gradientc1nK3SiR1m" gradientUnits="userSpaceOnUse" cx="351.53" cy="172.7" dx="389.08" dy="248.26" r="84.37"><stop style="stop-color: #1065d0;stop-opacity: 1" offset="0%"></stop><stop style="stop-color: #0a233e;stop-opacity: 1" offset="100%"></stop></radialGradient><path d="M379.31 208.24C379.45 215.41 373.74 221.35 366.57 221.49C359.39 221.64 353.45 215.93 353.31 208.75C353.17 201.58 358.88 195.64 366.05 195.5C373.23 195.36 379.17 201.07 379.31 208.24Z" id="fpnuxdKLi"></path><radialGradient id="gradientavirq1rEP" gradientUnits="userSpaceOnUse" cx="360.11" cy="197.93" dx="373.13" dy="219.82" r="25.47"><stop style="stop-color: #bac0c6;stop-opacity: 1" offset="0%"></stop><stop style="stop-color: #0a2541;stop-opacity: 1" offset="100%"></stop></radialGradient></defs><g><g><use xlink:href="#ajQL5FBY7" opacity="1" fill="url(#gradienteUdr7sgB3)"></use></g><g><use xlink:href="#a2caFh4Nr1" opacity="1" fill="url(#gradientc1nK3SiR1m)"></use><g><use xlink:href="#a2caFh4Nr1" opacity="1" fill-opacity="0" stroke="#279aeb" stroke-width="0.25" stroke-opacity="1"></use></g></g><g><use xlink:href="#fpnuxdKLi" opacity="1" fill="url(#gradientavirq1rEP)"></use></g></g></svg>