<?xml version="1.0" encoding="UTF-8" standalone="no"?>
<!DOCTYPE svg PUBLIC "-//W3C//DTD SVG 1.1//EN" "http://www.w3.org/Graphics/SVG/1.1/DTD/svg11.dtd">
<svg version="1.1" xmlns="http://www.w3.org/2000/svg" xmlns:xlink="http://www.w3.org/1999/xlink" preserveAspectRatio="xMidYMid meet" viewBox="414.7727299983526 176.2392235377164 76.22421658163631 76.07874712049838" width="72.22" height="72.08"><defs><path d="M472.77 213.36C472.77 224.88 463.41 234.24 451.88 234.24C440.36 234.24 431 224.88 431 213.36C431 201.83 440.36 192.47 451.88 192.47C463.41 192.47 472.77 201.83 472.77 213.36Z" id="b61reKel6"></path><radialGradient id="gradientaqDQt62W9" gradientUnits="userSpaceOnUse" cx="438.81" cy="197.47" dx="463.81" dy="229.24" r="40.43"><stop style="stop-color: #35b9fc;stop-opacity: 1" offset="0%"></stop><stop style="stop-color: #0c5dcc;stop-opacity: 1" offset="100%"></stop></radialGradient><path d="M458.11 184.24L461.79 178.57L468.24 181.25L465.97 187.69L469.41 189.82L474.72 185.12L479 189.63L474.92 195.31L477.58 198.45L484.16 197.52L486.27 203.08L480.73 206.39L481.34 210.97L487.86 211.84L488 218.84L480.98 218.98L479.67 223.4L485.34 227.09L482.38 233.34L476.59 229.66L473.47 233.52L476.78 239.25L471.66 243.35L466.96 238.04L463.01 240.52L463.95 247.3L457.99 249.32L455.46 242.86L450.47 242.96L449.99 248.97L443.38 248.5L443.24 241.51L439.01 239.99L434.92 245.07L428.64 241.2L432.26 235.73L430.08 232.77L423.74 235.9L419.61 229.38L424.93 225.28L423.48 222.51L416.48 222.24L415.77 215.86L422.26 214.93L422.16 209.74L416.17 206.66L418.44 200.42L424.47 201.7L426.79 197.65L422.28 192.15L426.59 187.86L431.39 191.97L435.41 189.09L433.07 181.94L438.41 179.03L442.13 185.16L445.71 183.9L446.58 177.38L453.57 177.24L454.3 183.73L458.11 184.24ZM448.81 193.59L447.55 193.83L446.32 194.13L445.12 194.52L443.95 194.97L442.83 195.5L441.74 196.09L440.69 196.75L439.69 197.46L438.74 198.24L437.83 199.07L436.98 199.96L436.19 200.89L435.45 201.88L434.77 202.9L434.16 203.98L433.61 205.09L433.13 206.23L432.72 207.42L432.38 208.63L432.12 209.87L431.94 211.14L431.84 212.44L431.82 213.75L431.89 215.06L432.04 216.35L432.27 217.61L432.58 218.84L432.97 220.04L433.42 221.21L433.95 222.34L434.54 223.43L435.2 224.47L435.91 225.47L436.69 226.43L437.52 227.33L438.41 228.18L439.34 228.98L440.33 229.71L441.35 230.39L442.42 231.01L443.54 231.55L444.68 232.03L445.87 232.44L447.08 232.78L448.32 233.04L449.59 233.22L450.89 233.32L452.2 233.34L453.51 233.27L454.8 233.12L456.06 232.89L457.29 232.58L458.49 232.2L459.66 231.74L460.79 231.21L461.87 230.62L462.92 229.97L463.92 229.25L464.88 228.47L465.78 227.64L466.63 226.76L467.43 225.82L468.16 224.84L468.84 223.81L469.46 222.74L470 221.63L470.48 220.48L470.89 219.3L471.23 218.08L471.49 216.84L471.67 215.57L471.77 214.28L471.79 212.96L471.72 211.65L471.57 210.36L471.34 209.1L471.03 207.87L470.65 206.67L470.19 205.51L469.66 204.38L469.07 203.29L468.42 202.24L467.7 201.24L466.92 200.29L466.09 199.38L465.21 198.53L464.27 197.74L463.29 197L462.26 196.32L461.19 195.71L460.08 195.16L458.93 194.68L457.75 194.27L456.53 193.93L455.29 193.67L454.02 193.49L452.73 193.39L451.41 193.37L450.1 193.44L448.81 193.59Z" id="i1IXAHSgLM"></path><radialGradient id="gradientcgk8QPx93" gradientUnits="userSpaceOnUse" cx="437.02" cy="177.56" dx="474.58" dy="253.12" r="84.37"><stop style="stop-color: #1163b6;stop-opacity: 1" offset="0%"></stop><stop style="stop-color: #0a233e;stop-opacity: 1" offset="100%"></stop></radialGradient><path d="M464.8 213.1C464.94 220.27 459.24 226.21 452.06 226.35C444.89 226.5 438.95 220.79 438.81 213.61C438.67 206.44 444.38 200.5 451.55 200.36C458.72 200.22 464.66 205.93 464.8 213.1Z" id="bDX7hBnM"></path><radialGradient id="gradiente1K6bOsHyj" gradientUnits="userSpaceOnUse" cx="445.61" cy="202.79" dx="458.62" dy="224.68" r="25.47"><stop style="stop-color: #bac0c6;stop-opacity: 1" offset="0%"></stop><stop style="stop-color: #162e47;stop-opacity: 1" offset="100%"></stop></radialGradient></defs><g><g><use xlink:href="#b61reKel6" opacity="1" fill="url(#gradientaqDQt62W9)"></use></g><g><use xlink:href="#i1IXAHSgLM" opacity="1" fill="url(#gradientcgk8QPx93)"></use><g><use xlink:href="#i1IXAHSgLM" opacity="1" fill-opacity="0" stroke="#279aeb" stroke-width="0.25" stroke-opacity="1"></use></g></g><g><use xlink:href="#bDX7hBnM" opacity="1" fill="url(#gradiente1K6bOsHyj)"></use></g></g></svg>