<?xml version="1.0" encoding="UTF-8" standalone="no"?>
<!DOCTYPE svg PUBLIC "-//W3C//DTD SVG 1.1//EN" "http://www.w3.org/Graphics/SVG/1.1/DTD/svg11.dtd">
<svg version="1.1" xmlns="http://www.w3.org/2000/svg" xmlns:xlink="http://www.w3.org/1999/xlink" preserveAspectRatio="xMidYMid meet" viewBox="460.157874999138 272.9080495084728 134.6168572061938 135.08203439212105" width="130.62" height="131.08"><defs><path d="M591.77 273.91L461.16 273.91L461.16 404.99L591.77 404.99L591.77 273.91Z" id="bDiB8kULg"></path><path d="M529.13 310.11L530.44 310.24L531.73 310.43L533.01 310.66L534.27 310.95L535.51 311.28L536.73 311.66L537.93 312.08L539.11 312.56L540.26 313.07L541.39 313.63L542.5 314.23L543.57 314.87L544.62 315.55L545.65 316.27L546.64 317.03L547.6 317.83L548.53 318.66L549.43 319.52L550.3 320.42L551.13 321.35L551.92 322.31L552.68 323.31L553.4 324.33L554.08 325.38L554.72 326.46L555.32 327.56L555.88 328.69L556.4 329.85L556.87 331.03L557.3 332.22L557.68 333.45L558.01 334.69L558.29 335.94L558.53 337.22L558.71 338.52L558.85 339.83L558.93 341.15L558.95 342.49L558.93 343.83L558.85 345.15L558.71 346.46L558.53 347.76L558.29 349.03L558.01 350.29L557.68 351.53L557.3 352.75L556.87 353.95L556.4 355.13L555.88 356.28L555.32 357.41L554.72 358.52L554.08 359.6L553.4 360.65L552.68 361.67L551.92 362.66L551.13 363.63L550.3 364.56L549.43 365.46L548.53 366.32L547.6 367.15L546.89 367.74L546.89 385.99L506.05 385.65L506.05 367.74L505.33 367.15L504.4 366.32L503.5 365.46L502.63 364.56L501.8 363.63L501.01 362.66L500.25 361.67L499.53 360.65L498.85 359.6L498.21 358.52L497.61 357.41L497.05 356.28L496.53 355.13L496.06 353.95L495.64 352.75L495.26 351.53L494.92 350.29L494.64 349.03L494.4 347.76L494.22 346.46L494.09 345.15L494.01 343.83L493.98 342.49L494.01 341.15L494.09 339.83L494.22 338.52L494.4 337.22L494.64 335.94L494.92 334.69L495.26 333.45L495.64 332.22L496.06 331.03L496.53 329.85L497.05 328.69L497.61 327.56L498.21 326.46L498.85 325.38L499.53 324.33L500.25 323.31L501.01 322.31L501.8 321.35L502.63 320.42L503.5 319.52L504.4 318.66L505.33 317.83L506.29 317.03L507.29 316.27L508.31 315.55L509.36 314.87L510.44 314.23L511.54 313.63L512.67 313.07L513.83 312.56L515 312.08L516.2 311.66L517.42 311.28L518.66 310.95L519.92 310.66L521.2 310.43L522.49 310.24L523.8 310.11L525.13 310.03L526.47 310L527.8 310.03L529.13 310.11Z" id="f1K2IAtkDI"></path><radialGradient id="gradienta6sY7a3kt" gradientUnits="userSpaceOnUse" cx="504.97" cy="316" dx="542.8" dy="400.88" r="92.93"><stop style="stop-color: #dee2e6;stop-opacity: 1" offset="0%"></stop><stop style="stop-color: #343a40;stop-opacity: 1" offset="100%"></stop></radialGradient><path d="M479.79 348.23L461.97 348.23" id="d3Oy3qGMQ"></path><path d="M509.76 342.49L509.76 350.38L526.47 350.38L542.8 350.38L542.8 342.49" id="a3O9GacsKv"></path><path d="M525.68 297.37L525.68 276.33" id="c1mybvzTNi"></path><path d="" id="calhUMWrWv"></path><path d="" id="alz5mOQ9O"></path><path d="M490.73 310.39L477.74 297.02" id="bC4HphkNE"></path><path d="M570.23 348.29L590.5 348.29" id="akNQLcLSc"></path><path d="M557.93 310.39L572.78 297.02" id="aPCT3fXVQ"></path><path d="" id="a1zgUBbwGX"></path><path d="M526.47 373.45L526.47 351.77" id="ccnsPDWTs"></path><path d="M546.89 385.99L506.05 385.99L506.05 402.25L546.89 402.25L546.89 385.99Z" id="gfbNY8Fui"></path><radialGradient id="gradienta4ruPpm3Fj" gradientUnits="userSpaceOnUse" cx="514.26" cy="379.5" dx="548" dy="424.75" r="56.45"><stop style="stop-color: #3e9ff6;stop-opacity: 1" offset="0%"></stop><stop style="stop-color: #054278;stop-opacity: 1" offset="100%"></stop></radialGradient></defs><g><g><use xlink:href="#bDiB8kULg" opacity="0.43" fill="#ffffff" fill-opacity="1"></use></g><g><g><filter id="shadow12057304" x="484.98" y="301" width="83.97" height="94.99" filterUnits="userSpaceOnUse" primitiveUnits="userSpaceOnUse"><feFlood></feFlood><feComposite in2="SourceAlpha" operator="in"></feComposite><feGaussianBlur stdDeviation="1"></feGaussianBlur><feOffset dx="1" dy="1" result="afterOffset"></feOffset><feFlood flood-color="#000000" flood-opacity="0.5"></feFlood><feComposite in2="afterOffset" operator="in"></feComposite><feMorphology operator="dilate" radius="1"></feMorphology><feComposite in2="SourceAlpha" operator="out"></feComposite></filter><path d="M529.13 310.11L530.44 310.24L531.73 310.43L533.01 310.66L534.27 310.95L535.51 311.28L536.73 311.66L537.93 312.08L539.11 312.56L540.26 313.07L541.39 313.63L542.5 314.23L543.57 314.87L544.62 315.55L545.65 316.27L546.64 317.03L547.6 317.83L548.53 318.66L549.43 319.52L550.3 320.42L551.13 321.35L551.92 322.31L552.68 323.31L553.4 324.33L554.08 325.38L554.72 326.46L555.32 327.56L555.88 328.69L556.4 329.85L556.87 331.03L557.3 332.22L557.68 333.45L558.01 334.69L558.29 335.94L558.53 337.22L558.71 338.52L558.85 339.83L558.93 341.15L558.95 342.49L558.93 343.83L558.85 345.15L558.71 346.46L558.53 347.76L558.29 349.03L558.01 350.29L557.68 351.53L557.3 352.75L556.87 353.95L556.4 355.13L555.88 356.28L555.32 357.41L554.72 358.52L554.08 359.6L553.4 360.65L552.68 361.67L551.92 362.66L551.13 363.63L550.3 364.56L549.43 365.46L548.53 366.32L547.6 367.15L546.89 367.74L546.89 385.99L506.05 385.65L506.05 367.74L505.33 367.15L504.4 366.32L503.5 365.46L502.63 364.56L501.8 363.63L501.01 362.66L500.25 361.67L499.53 360.65L498.85 359.6L498.21 358.52L497.61 357.41L497.05 356.28L496.53 355.13L496.06 353.95L495.64 352.75L495.26 351.53L494.92 350.29L494.64 349.03L494.4 347.76L494.22 346.46L494.09 345.15L494.01 343.83L493.98 342.49L494.01 341.15L494.09 339.83L494.22 338.52L494.4 337.22L494.64 335.94L494.92 334.69L495.26 333.45L495.64 332.22L496.06 331.03L496.53 329.85L497.05 328.69L497.61 327.56L498.21 326.46L498.85 325.38L499.53 324.33L500.25 323.31L501.01 322.31L501.8 321.35L502.63 320.42L503.5 319.52L504.4 318.66L505.33 317.83L506.29 317.03L507.29 316.27L508.31 315.55L509.36 314.87L510.44 314.23L511.54 313.63L512.67 313.07L513.83 312.56L515 312.08L516.2 311.66L517.42 311.28L518.66 310.95L519.92 310.66L521.2 310.43L522.49 310.24L523.8 310.11L525.13 310.03L526.47 310L527.8 310.03L529.13 310.11Z" id="b1chzmO5Lq" fill="white" fill-opacity="1" filter="url(#shadow12057304)"></path></g><use xlink:href="#f1K2IAtkDI" opacity="1" fill="url(#gradienta6sY7a3kt)"></use></g><g><g><use xlink:href="#d3Oy3qGMQ" opacity="1" fill-opacity="0" stroke="#adb5bd" stroke-width="3" stroke-opacity="1"></use></g></g><g><g><use xlink:href="#a3O9GacsKv" opacity="1" fill-opacity="0" stroke="#646c72" stroke-width="3" stroke-opacity="1"></use></g></g><g><g><use xlink:href="#c1mybvzTNi" opacity="1" fill-opacity="0" stroke="#adb5bd" stroke-width="3" stroke-opacity="1"></use></g></g><g><g><use xlink:href="#calhUMWrWv" opacity="1" fill-opacity="0" stroke="#1077d4" stroke-width="1" stroke-opacity="1"></use></g></g><g><g><use xlink:href="#alz5mOQ9O" opacity="1" fill-opacity="0" stroke="#1077d4" stroke-width="1" stroke-opacity="1"></use></g></g><g><g><use xlink:href="#bC4HphkNE" opacity="1" fill-opacity="0" stroke="#adb5bd" stroke-width="3" stroke-opacity="1"></use></g></g><g><g><use xlink:href="#akNQLcLSc" opacity="1" fill-opacity="0" stroke="#adb5bd" stroke-width="3" stroke-opacity="1"></use></g></g><g><g><use xlink:href="#aPCT3fXVQ" opacity="1" fill-opacity="0" stroke="#adb5bd" stroke-width="3" stroke-opacity="1"></use></g></g><g><g><use xlink:href="#a1zgUBbwGX" opacity="1" fill-opacity="0" stroke="#9f0f89" stroke-width="1" stroke-opacity="1"></use></g></g><g><g><use xlink:href="#ccnsPDWTs" opacity="1" fill-opacity="0" stroke="#646c72" stroke-width="3" stroke-opacity="1"></use></g></g><g><g><filter id="shadow15596968" x="497.05" y="376.99" width="59.84" height="35.25" filterUnits="userSpaceOnUse" primitiveUnits="userSpaceOnUse"><feFlood></feFlood><feComposite in2="SourceAlpha" operator="in"></feComposite><feGaussianBlur stdDeviation="1"></feGaussianBlur><feOffset dx="1" dy="1" result="afterOffset"></feOffset><feFlood flood-color="#000000" flood-opacity="0.5"></feFlood><feComposite in2="afterOffset" operator="in"></feComposite><feMorphology operator="dilate" radius="1"></feMorphology><feComposite in2="SourceAlpha" operator="out"></feComposite></filter><path d="M546.89 385.99L506.05 385.99L506.05 402.25L546.89 402.25L546.89 385.99Z" id="d3b7wuzx9h" fill="white" fill-opacity="1" filter="url(#shadow15596968)"></path></g><use xlink:href="#gfbNY8Fui" opacity="1" fill="url(#gradienta4ruPpm3Fj)"></use><g><use xlink:href="#gfbNY8Fui" opacity="1" fill-opacity="0" stroke="#646c72" stroke-width="1" stroke-opacity="1"></use></g></g></g></svg>