<?xml version="1.0" encoding="UTF-8" standalone="no"?>
<!DOCTYPE svg PUBLIC "-//W3C//DTD SVG 1.1//EN" "http://www.w3.org/Graphics/SVG/1.1/DTD/svg11.dtd">
<svg version="1.1" xmlns="http://www.w3.org/2000/svg" xmlns:xlink="http://www.w3.org/1999/xlink" preserveAspectRatio="xMidYMid meet" viewBox="46.287566863961956 280.05931409403195 134.6168572061938 135.08203439212105" width="130.62" height="131.08"><defs><path d="M177.9 281.06L47.29 281.06L47.29 412.14L177.9 412.14L177.9 281.06Z" id="j2boz61ab"></path><path d="M113.51 297.25L158.11 322.45L158.11 372.86L113.51 398.06L68.91 372.86L68.91 322.45L113.51 297.25Z" id="f1CC1M3V2E"></path><radialGradient id="gradientb11bznhWQq" gradientUnits="userSpaceOnUse" cx="90.4" cy="294.75" dx="140.45" dy="406.88" r="122.8"><stop style="stop-color: #dee2e6;stop-opacity: 1" offset="0%"></stop><stop style="stop-color: #343a40;stop-opacity: 1" offset="100%"></stop></radialGradient><path d="M175.87 334.25L175.87 360.97L175.87 347.83L158.11 347.83" id="aCj3TwLQp"></path><path d="M51.15 361.02L51.15 334.29L51.15 347.44L68.91 347.44" id="a1Cu0IpTKB"></path><path d="M112.6 319.73L137.31 333.69L137.31 361.62L112.6 375.59L87.88 361.62L87.88 333.69L112.6 319.73Z" id="cjEY2LC5i"></path><radialGradient id="gradientblefqEV35" gradientUnits="userSpaceOnUse" cx="101.6" cy="318.46" dx="138.69" dy="399.82" r="89.42"><stop style="stop-color: #3e9ff6;stop-opacity: 1" offset="0%"></stop><stop style="stop-color: #054278;stop-opacity: 1" offset="100%"></stop></radialGradient></defs><g><g><use xlink:href="#j2boz61ab" opacity="0.43" fill="#ffffff" fill-opacity="1"></use></g><g><g><filter id="shadow2077743" x="59.91" y="288.25" width="108.2" height="119.81" filterUnits="userSpaceOnUse" primitiveUnits="userSpaceOnUse"><feFlood></feFlood><feComposite in2="SourceAlpha" operator="in"></feComposite><feGaussianBlur stdDeviation="1"></feGaussianBlur><feOffset dx="1" dy="1" result="afterOffset"></feOffset><feFlood flood-color="#000000" flood-opacity="0.5"></feFlood><feComposite in2="afterOffset" operator="in"></feComposite><feMorphology operator="dilate" radius="1"></feMorphology><feComposite in2="SourceAlpha" operator="out"></feComposite></filter><path d="M113.51 297.25L158.11 322.45L158.11 372.86L113.51 398.06L68.91 372.86L68.91 322.45L113.51 297.25Z" id="bPT2uEd5u" fill="white" fill-opacity="1" filter="url(#shadow2077743)"></path></g><use xlink:href="#f1CC1M3V2E" opacity="1" fill="url(#gradientb11bznhWQq)"></use></g><g><g><use xlink:href="#aCj3TwLQp" opacity="1" fill-opacity="0" stroke="#6c757d" stroke-width="3" stroke-opacity="1"></use></g></g><g><g><use xlink:href="#a1Cu0IpTKB" opacity="1" fill-opacity="0" stroke="#6c757d" stroke-width="3" stroke-opacity="1"></use></g></g><g><g><filter id="shadow371994" x="78.88" y="310.73" width="68.43" height="74.86" filterUnits="userSpaceOnUse" primitiveUnits="userSpaceOnUse"><feFlood></feFlood><feComposite in2="SourceAlpha" operator="in"></feComposite><feGaussianBlur stdDeviation="1"></feGaussianBlur><feOffset dx="1" dy="1" result="afterOffset"></feOffset><feFlood flood-color="#000000" flood-opacity="0.5"></feFlood><feComposite in2="afterOffset" operator="in"></feComposite><feMorphology operator="dilate" radius="1"></feMorphology><feComposite in2="SourceAlpha" operator="out"></feComposite></filter><path d="M112.6 319.73L137.31 333.69L137.31 361.62L112.6 375.59L87.88 361.62L87.88 333.69L112.6 319.73Z" id="a2bSGaOxQI" fill="white" fill-opacity="1" filter="url(#shadow371994)"></path></g><use xlink:href="#cjEY2LC5i" opacity="1" fill="url(#gradientblefqEV35)"></use><g><use xlink:href="#cjEY2LC5i" opacity="1" fill-opacity="0" stroke="#646c72" stroke-width="1" stroke-opacity="1"></use></g></g></g></svg>