<?xml version="1.0" encoding="UTF-8" standalone="no"?>
<!DOCTYPE svg PUBLIC "-//W3C//DTD SVG 1.1//EN" "http://www.w3.org/Graphics/SVG/1.1/DTD/svg11.dtd">
<svg version="1.1" xmlns="http://www.w3.org/2000/svg" xmlns:xlink="http://www.w3.org/1999/xlink" preserveAspectRatio="xMidYMid meet" viewBox="249.62412423976923 283.83722646893546 134.6168572061938 135.08203439212105" width="130.62" height="131.08"><defs><path d="M381.24 284.84L250.62 284.84L250.62 415.92L381.24 415.92L381.24 284.84Z" id="a5bomLCzKC"></path><path d="M372.87 375.31L377.84 345.11L359.96 343.64L354.83 327.8L366.98 314.91L344.15 295.02L331.99 309.02L314.68 305.71L312.1 288.78L283.38 297.23L287.43 315.65L277.12 327.8L259.44 325.22L253.69 352.48L270.49 356.9L276.01 373.84L265.05 387.1L287.43 406.25L298.85 393.36L315.77 395.38L322.78 412.14L349.3 403.3L344.15 387.1L354.83 373.84L372.87 375.31Z" id="bkj26taVj"></path><radialGradient id="gradientbiFk9bwR1" gradientUnits="userSpaceOnUse" cx="283.99" cy="296.7" dx="349.13" dy="415.92" r="135.85"><stop style="stop-color: #dee2e6;stop-opacity: 1" offset="0%"></stop><stop style="stop-color: #343a40;stop-opacity: 1" offset="100%"></stop></radialGradient><path d="M288.15 352.24C288.15 367.59 300.61 380.05 315.96 380.05C331.3 380.05 343.76 367.59 343.76 352.24C343.76 336.9 331.3 324.44 315.96 324.44C300.61 324.44 288.15 336.9 288.15 352.24Z" id="dp18FVVGT"></path><radialGradient id="gradientahGYgdnqp" gradientUnits="userSpaceOnUse" cx="295.96" cy="324.44" dx="345.6" dy="417.05" r="105.08"><stop style="stop-color: #3e9ff6;stop-opacity: 1" offset="0%"></stop><stop style="stop-color: #054278;stop-opacity: 1" offset="100%"></stop></radialGradient><path d="M323 359.61L333.31 352.98L323 344.88" id="bjFU5kYPr"></path><path d="M321.83 367.7L310.04 337.13" id="bcOLYufYW"></path><path d="M307.6 359.61L296.92 352.43L305.75 346.35" id="h2fZME7DT9"></path></defs><g><g><use xlink:href="#a5bomLCzKC" opacity="0.43" fill="#ffffff" fill-opacity="1"></use></g><g><g><filter id="shadow16690388" x="244.69" y="279.78" width="143.15" height="142.36" filterUnits="userSpaceOnUse" primitiveUnits="userSpaceOnUse"><feFlood></feFlood><feComposite in2="SourceAlpha" operator="in"></feComposite><feGaussianBlur stdDeviation="1"></feGaussianBlur><feOffset dx="1" dy="1" result="afterOffset"></feOffset><feFlood flood-color="#000000" flood-opacity="0.5"></feFlood><feComposite in2="afterOffset" operator="in"></feComposite><feMorphology operator="dilate" radius="1"></feMorphology><feComposite in2="SourceAlpha" operator="out"></feComposite></filter><path d="M372.87 375.31L377.84 345.11L359.96 343.64L354.83 327.8L366.98 314.91L344.15 295.02L331.99 309.02L314.68 305.71L312.1 288.78L283.38 297.23L287.43 315.65L277.12 327.8L259.44 325.22L253.69 352.48L270.49 356.9L276.01 373.84L265.05 387.1L287.43 406.25L298.85 393.36L315.77 395.38L322.78 412.14L349.3 403.3L344.15 387.1L354.83 373.84L372.87 375.31Z" id="gi8AtJYcc" fill="white" fill-opacity="1" filter="url(#shadow16690388)"></path></g><use xlink:href="#bkj26taVj" opacity="1" fill="url(#gradientbiFk9bwR1)"></use></g><g><g><filter id="shadow11740968" x="279.15" y="315.44" width="74.61" height="74.61" filterUnits="userSpaceOnUse" primitiveUnits="userSpaceOnUse"><feFlood></feFlood><feComposite in2="SourceAlpha" operator="in"></feComposite><feGaussianBlur stdDeviation="1"></feGaussianBlur><feOffset dx="1" dy="1" result="afterOffset"></feOffset><feFlood flood-color="#000000" flood-opacity="0.5"></feFlood><feComposite in2="afterOffset" operator="in"></feComposite><feMorphology operator="dilate" radius="1"></feMorphology><feComposite in2="SourceAlpha" operator="out"></feComposite></filter><path d="M288.15 352.24C288.15 367.59 300.61 380.05 315.96 380.05C331.3 380.05 343.76 367.59 343.76 352.24C343.76 336.9 331.3 324.44 315.96 324.44C300.61 324.44 288.15 336.9 288.15 352.24Z" id="c1RKCr3pkL" fill="white" fill-opacity="1" filter="url(#shadow11740968)"></path></g><use xlink:href="#dp18FVVGT" opacity="1" fill="url(#gradientahGYgdnqp)"></use><g><use xlink:href="#dp18FVVGT" opacity="1" fill-opacity="0" stroke="#646c72" stroke-width="1" stroke-opacity="1"></use></g></g><g><g><use xlink:href="#bjFU5kYPr" opacity="1" fill-opacity="0" stroke="#6c757d" stroke-width="3" stroke-opacity="1"></use></g></g><g><g><use xlink:href="#bcOLYufYW" opacity="1" fill-opacity="0" stroke="#6c757d" stroke-width="3" stroke-opacity="1"></use></g></g><g><g><use xlink:href="#h2fZME7DT9" opacity="1" fill-opacity="0" stroke="#6c757d" stroke-width="3" stroke-opacity="1"></use></g></g></g></svg>